<svg xmlns="http://www.w3.org/2000/svg" width="703" height="800" viewBox="0 0 703 800" xmlns:xlink="http://www.w3.org/1999/xlink" role="img" artist="Katerina Limpitsouni" source="https://undraw.co/"><g transform="translate(0 0)"><path d="M389.376,144.287A118.073,118.073,0,1,0,258.1,282.165l48.97,144.494,97.518-115.9S374.216,283.654,354.6,250.48a117.944,117.944,0,0,0,34.765-106.193Z" transform="translate(85.645 0.448)" fill="#ed9da0"/><path d="M301.641,214.788s155.985,26.3,176.566,57.86,42.533,76.836,42.533,76.836,59,293.619-34.3,334.781L109.554,630.522l46.22-138.346L109.123,630.753,0,613.284s65.22-322.8,102.265-344.752,83.355-16.054,83.355-16.054,73.745,73.272,115.25-37.661l.773-.029Z" transform="translate(163.858 62.875)" fill="#6c63ff"/><path d="M653.612,722.319,433.59,769.779c-42.2-79.553-51.68-162.651-52.032-241.234l220.021-47.46a492.711,492.711,0,0,0,52.033,241.234Z" transform="translate(-359.516 -22.767)" fill="#e6e6e6"/><path d="M433.191,774.332l1.992-.43L656.467,726.17l1.181-2.363-.606-1.206a490.022,490.022,0,0,1-51.749-239.916l.141-3.475L379.88,527.864l.01,2.184c.1,21.594.866,41.174,2.353,59.86a563.814,563.814,0,0,0,8.018,60.884,458.459,458.459,0,0,0,15.92,61.138,409.4,409.4,0,0,0,26.055,60.6Zm217.491-52.424-214.637,46.3a404.455,404.455,0,0,1-24.761-58,453.063,453.063,0,0,1-15.731-60.417,558.446,558.446,0,0,1-7.941-60.307c-1.426-17.92-2.187-36.676-2.324-57.273l214.5-46.268a495.407,495.407,0,0,0,50.9,235.969Z" transform="translate(-360.542 -24.258)" fill="#090814"/><path d="M322.324,110.037s-33.008,10.143-46.73-6.323c0,0-32.929,1.376-39.789,19.208S187.783,149,174.069,133.9s-34.307-42.54-8.24-67.23c0,0,4.115-26.07,26.069-31.558l12.348,10.977s163.107-76.707,182.4,1.437c0,0,29.536-5.568,15.5,12.276,0,0,15.82,18.343,25.854,53.128a143.41,143.41,0,0,1-46.325,149.71h0s35.075-92.069,4.974-65.124-28.733-34.8-28.733-34.8-45.119-27.145-35.594-52.676Z" transform="translate(59.129 -12.418)" fill="#090814"/><path d="M653.612,722.319,433.59,769.779c-42.2-79.553-51.68-162.651-52.032-241.234l220.021-47.46a492.711,492.711,0,0,0,52.033,241.234Z" transform="translate(-378.855 -8.627)" fill="#e6e6e6"/><path d="M433.191,774.332l1.992-.43L656.467,726.17l1.181-2.363-.606-1.206a490.022,490.022,0,0,1-51.749-239.916l.141-3.475L379.88,527.864l.01,2.184c.1,21.594.866,41.174,2.353,59.86a563.814,563.814,0,0,0,8.018,60.884,458.459,458.459,0,0,0,15.92,61.138,409.4,409.4,0,0,0,26.055,60.6Zm217.491-52.424-214.637,46.3a404.455,404.455,0,0,1-24.761-58,453.063,453.063,0,0,1-15.731-60.417,558.446,558.446,0,0,1-7.941-60.307c-1.426-17.92-2.187-36.676-2.324-57.273l214.5-46.268a495.407,495.407,0,0,0,50.9,235.969Z" transform="translate(-379.881 -10.118)" fill="#090814"/><path d="M0,47.46,220.022,0c42.2,79.553,51.68,162.651,52.032,241.234L52.033,288.694A492.711,492.711,0,0,0,0,47.46Z" transform="translate(312.73 758.729) rotate(172)" fill="#e6e6e6"/><path d="M224.458,0l-1.992.43L1.181,48.162,0,50.525l.606,1.206A490.334,490.334,0,0,1,41.744,168.4a490.345,490.345,0,0,1,10.611,123.25l-.141,3.475,225.555-48.654-.01-2.184c-.1-21.594-.866-41.174-2.353-59.86a563.836,563.836,0,0,0-8.018-60.884A458.467,458.467,0,0,0,251.468,62.4,409.411,409.411,0,0,0,225.413,1.8ZM6.967,52.424,221.6,6.125a404.469,404.469,0,0,1,24.761,58A453.066,453.066,0,0,1,262.1,124.545a558.465,558.465,0,0,1,7.941,60.307c1.426,17.92,2.187,36.676,2.324,57.273l-214.5,46.268A495.762,495.762,0,0,0,47.009,167.261,495.763,495.763,0,0,0,6.967,52.424Z" transform="translate(316.139 761.342) rotate(172)" fill="#090814"/><path d="M130.42,161.849l259.623,18.372-9.575-68.116L135.63,90.427c-11.7-13.972-30.495-23.762-52.287-25.35-38.129-2.78-70.9,20.548-73.205,52.1s26.746,59.391,64.876,62.171c21.792,1.588,41.805-5.375,55.411-17.5Z" transform="translate(221.896 559.702)" fill="#ed9da0"/><path d="M72.148,209.157,61.171,176.222s26.07-27.835,0-43.418l91.928,11.86s37.215,27.449,39.875,4.805c0,0,46.564,30.868,56.169,11.658,0,0-27.541-59.554,15.729-90.156L207.3,45.083,166.286,17.328,0,0" transform="matrix(-0.966, 0.259, -0.259, -0.966, 662.518, 731.446)" fill="#6c63ff"/></g></svg>