<svg xmlns="http://www.w3.org/2000/svg" width="593.048" height="800.481" viewBox="0 0 593.048 800.481" xmlns:xlink="http://www.w3.org/1999/xlink" role="img" artist="Katerina Limpitsouni" source="https://undraw.co/"><g transform="translate(-630.629 -78.283)"><path d="M879.533,536.045l-102.8-74.855s-58.886-99.807-68.867-163.683-54.893-177.656-54.893-177.656V59.968s-51.9-19.961-55.892,34.93S608.06,220.657,608.06,220.657s14.971,89.826-18.963,112.779L465.337,536.045S584.106,644.833,676.926,658.807L879.533,799.533Z" transform="translate(344.144 79.231)" fill="#ed9da0"/><path d="M335.592,260.519H332.2c-30.532,0-47.694,36.045-27.632,59.061,6.457,7.408,16.271,12.536,31.021,12.8Z" transform="translate(353.622 67.812)" fill="#ed9da0"/><path d="M335.592,336.638H332.2c-30.532,0-47.694,36.045-27.632,59.061,6.457,7.408,16.271,12.537,31.021,12.8Z" transform="translate(353.622 63.555)" fill="#ed9da0"/><path d="M335.592,412.758H332.2c-30.532,0-47.694,36.045-27.632,59.061,6.457,7.408,16.271,12.537,31.021,12.8Z" transform="translate(353.622 59.296)" fill="#ed9da0"/><path d="M335.592,488.877H332.2c-30.532,0-47.694,36.045-27.632,59.061,6.457,7.408,16.271,12.537,31.021,12.8Z" transform="translate(353.622 55.037)" fill="#ed9da0"/><path d="M602.657,234.731h-2.973V153.361a47.1,47.1,0,0,0-47.1-47.1H380.2a47.1,47.1,0,0,0-47.1,47.1V599.766a47.1,47.1,0,0,0,47.1,47.1H552.592a47.1,47.1,0,0,0,47.1-47.1V292.652h2.973Z" transform="translate(351.542 76.442)" fill="#090814"/><path d="M590.433,154.411v445.75a35.311,35.311,0,0,1-12.913,27.247,32.668,32.668,0,0,1-2.787,2.044,35.011,35.011,0,0,1-19.472,5.879H382.037a34.765,34.765,0,0,1-8.334-1,35.17,35.17,0,0,1-26.838-34.174V154.411a35.174,35.174,0,0,1,35.166-35.171h21.025a16.705,16.705,0,0,0,15.467,23.019h98.762a16.722,16.722,0,0,0,15.48-23.016h22.5a35.174,35.174,0,0,1,35.171,35.166Z" transform="translate(350.771 75.716)" fill="#fff"/><ellipse cx="75.354" cy="168.672" rx="75.354" ry="168.672" transform="translate(928.25 362.763)" fill="#ed9da0"/><rect width="111" height="29" rx="14.5" transform="translate(713 243.809)" fill="#6c63ff"/><path d="M14.864.929A13.935,13.935,0,0,0,5.01,24.717,13.935,13.935,0,1,0,24.717,5.01,13.844,13.844,0,0,0,14.864.929m0-.929A14.864,14.864,0,1,1,0,14.864,14.864,14.864,0,0,1,14.864,0Z" transform="translate(896.664 243.38)" fill="#090814"/><rect width="44" height="15" rx="7.5" transform="translate(713 304.809)" fill="#6c63ff"/><rect width="44" height="15" rx="7.5" transform="translate(765 304.809)" fill="#e6e6e6"/><rect width="44" height="15" rx="7.5" transform="translate(817 304.809)" fill="#e6e6e6"/><rect width="44" height="15" rx="7.5" transform="translate(869 304.809)" fill="#e6e6e6"/><path d="M20,15H7.5a7.5,7.5,0,0,1,0-15H20V15Z" transform="translate(921 304.809)" fill="#e6e6e6"/><rect width="213" height="124" rx="16" transform="translate(715 564.809)" fill="#e6e6e6"/><g transform="translate(630.629 78.283)"><g transform="translate(34.427 35.986)"><path d="M172,126.435a9.888,9.888,0,0,1,3.419,3.178l9.82,5.841,16.685,7.814s3.935-13.989,8.637-14.882,12.457,9.475,12.457,9.475-13.521,21.891-19.41,19.648-19.051-13.147-19.051-13.147l-1.721-1.4-10.933-7.272a9.894,9.894,0,0,1-4.461-1.376c-3.419-1.977-5.173-5.34-3.916-7.517s5.047-2.34,8.47-.363h0Z" transform="translate(-163.123 -122.46)" fill="#ed9da0"/><path d="M274.77,128.106,283.3,118.06l5.155.742a9.244,9.244,0,0,1,6.861,13.458l-2.971,5.637L274.77,128.1h0Z" transform="translate(-233.365 -118.06)" fill="#e5e5e5"/></g><path d="M174.238,138.507l-15.02-20.7a.721.721,0,0,1,.122-.975l3.6-2.974a.711.711,0,0,1,.56-.156.732.732,0,0,1,.493.312l14.923,22.4a.708.708,0,0,1,.085.619.717.717,0,0,1-.438.452l-3.5,1.283a.725.725,0,0,1-.742-.152.574.574,0,0,1-.089-.1h0Z" transform="translate(-126.153 -79.324)" fill="#3f3d56"/><path d="M176.526,137.2,160.984,117.05a.625.625,0,0,1,.037-.883l3.089-2.433a.6.6,0,0,1,.508-.1.828.828,0,0,1,.482.326l15.591,21.687a.7.7,0,0,1,.13.575.514.514,0,0,1-.367.378l-3.137.894a.744.744,0,0,1-.7-.2.723.723,0,0,1-.089-.1h0Z" transform="translate(-127.248 -79.281)" fill="#e5e5e5"/><g transform="translate(8.238 85.365)"><g transform="translate(0 82.248)"><path d="M156.272,514.49l-6.757,14.586L138.49,524.1l8.537-11.025Z" transform="translate(-116.791 -513.07)" fill="#ed9da0"/><path d="M108.079,537.727l8.181-1.068s5.693,13.518,1.424,14.23-37.7,3.912-37.7-.356,13.874-9.605,13.874-9.605l9.605-6.757,4.625,3.557h0Z" transform="translate(-79.98 -526.345)" fill="#2f2e41"/></g><path d="M220.675,255.835s9.961,14.938-11.381,24.187L182.64,305.684l-10.612,30.834h-8.654l12.836-49.027,11.381-27.743,5.337-8.537,27.743,4.625h0Z" transform="translate(-132.837 -251.21)" fill="#2f2e41"/></g><g transform="translate(0 84.772)"><g transform="translate(0 79.789)"><path d="M141.852,506.865l-7.7,14.111-10.677-5.689,9.238-10.447Z" transform="translate(-100.968 -504.84)" fill="#ed9da0"/><path d="M91.652,528.563l8.233-.53s4.8,13.859.493,14.289-37.879,1.446-37.6-2.815,14.471-8.678,14.471-8.678l10.024-6.119,4.383,3.849h0Z" transform="translate(-62.775 -517.341)" fill="#2f2e41"/></g><path d="M212.969,256.037s8.964,15.557-12.935,23.393l-29.3,21.353-16.013,34.935-9.844-3.837,15.78-46.164L179.7,257.78l5.882-8.17,27.384,6.423h0Z" transform="translate(-115.861 -249.61)" fill="#2f2e41"/></g><g transform="translate(79.358 1.667)"><path d="M296.441,75.375,289.68,88.618l17.983,2.8-.2-17.8Z" transform="translate(-287.677 -55.776)" fill="#ed9da0"/><circle cx="12.516" cy="12.516" r="12.516" transform="translate(0 0)" fill="#ed9da0"/></g><path d="M286.212,164.152l2.066-33.44a42.04,42.04,0,0,0-1.71-24.028L285.86,98.7,269.5,99.768l-6.935,11.2-6.579,26.5-1.424,17.786,31.656,8.893h0Z" transform="translate(-186.223 -69.893)" fill="#6c63ff"/><g transform="translate(45.562 36.668)"><path d="M199.69,165.78a9.9,9.9,0,0,1,4.647.46l11.352-1.3,18.012-3.879s-5.337-13.518-2.132-17.074,15.65,0,15.65,0,2.488,25.611-3.556,27.391-23.123,1.068-23.123,1.068l-2.214-.07-13.106.827a9.876,9.876,0,0,1-4.383,1.606c-3.916.5-7.35-1.12-7.666-3.612s2.6-4.917,6.523-5.414h0Z" transform="translate(-193.147 -134.061)" fill="#ed9da0"/><path d="M290.51,136.763l.712-13.162,4.554-2.529a9.242,9.242,0,0,1,13.607,6.56l1.046,6.282-19.918,2.844h0Z" transform="translate(-254.403 -119.901)" fill="#6c63ff"/></g><path d="M305.05,44.016s-.791-9.286-2.974-6.12-7.209-7.968-7.209-7.968-13.67-2.311-12.654-3.546a14.8,14.8,0,0,1,13.254-5.246c2.1.256,8.374,2.347,9.584,3.774,3.2,3.774,5.208,14.916,0,19.11Z" transform="translate(-203.857 -21.025)" fill="#3f3d56"/></g><g transform="translate(768.326 603.276)"><g transform="translate(17.683 39.739)"><path d="M752.034,254.744c3,1.963,6.446,2.006,7.7.1s-.171-5.049-3.175-7.013a8.986,8.986,0,0,0-3.977-1.472L739.759,238.2l-3.7,6.1,13.035,7.394a9,9,0,0,0,2.943,3.054h0Z" transform="translate(-707.448 -193.064)" fill="#ed9da0"/><path d="M663.88,153.11l31.457,16.259,2.737-7.526-21.337-16.712-1.422-24.384a9.785,9.785,0,0,0-12.436-8.844h0a9.827,9.827,0,0,0-6.788,11.93l7.789,29.28h0Z" transform="translate(-655.764 -111.53)" fill="#6c63ff"/></g><path d="M681.927,81.858l1.472-9.193-9.927-4.044L672,82.592Z" transform="translate(-648.532 -44.171)" fill="#ed9da0"/><path d="M611.558,248.054s-2.851,17.813,8.548,19.951,37.408,3.563,37.408,3.563L691,312.179l6.77-7.483-28.856-44.53L645.758,245.56Z" transform="translate(-609.423 -158.063)" fill="#2f2e41"/><path d="M616.065,244.46s-6.646,16.769,4.019,21.33,35.744,11.591,35.744,11.591l23.878,46.911,8.231-5.833L669.429,268.73l-19.434-19.281-33.926-4.985h0Z" transform="translate(-611.211 -157.354)" fill="#2f2e41"/><path d="M641.406,97.728,628.582,95.59l-8.691,4.839c-5.06,7.358-5.477,30.7-6.67,39.549l-7.08,16.53,22.445-3.207,18.169-1.782L640.7,111.974l.713-14.25h0Z" transform="translate(-606.14 -61.53)" fill="#6c63ff"/><g transform="translate(15.471 0)"><ellipse cx="10.123" cy="10.123" rx="10.123" ry="10.123" transform="translate(5.293 11.201)" fill="#ed9da0"/><path d="M664.168,7.722c.292.171.684-.089.78-.413a1.666,1.666,0,0,0-.125-.994c-.182-.538-.363-1.08-.545-1.618a8.289,8.289,0,0,0-1.639-3.207A5.946,5.946,0,0,0,657.547.078a7.483,7.483,0,0,0-5.7,3.656,4.984,4.984,0,0,0,1.333,6.289,14.875,14.875,0,0,0-3.6,10.986c.153,4.233,4.768,8.131,7.779,11.114a3.25,3.25,0,0,0,.912-3.011c-.371-.695.16-1.5-.3-2.134s-.841.378-.378-.257c.292-.4-.848-1.322-.413-1.564,2.1-1.162,2.8-3.777,4.116-5.78a9.847,9.847,0,0,1,7.194-4.326,6.8,6.8,0,0,1,4.565,1.044,4.286,4.286,0,0,1,1.842,4.133,3.672,3.672,0,0,0-.763-5.744,5.994,5.994,0,0,0-1.272-5.651c-1.357-1.5-6.859-1.24-8.84-.848" transform="translate(-649.557 -0.005)" fill="#2f2e41"/><path d="M674.648,42.39c-2.622.282-4.518,2.555-6.115,4.654-.923,1.208-1.889,2.544-1.864,4.066s1.051,2.854,1.543,4.312a6.5,6.5,0,0,1-1.892,6.845,3.773,3.773,0,0,0,4.255-2.95c.381-2.206-1.293-4.333-1.094-6.564.175-1.963,1.721-3.474,3.036-4.942s2.551-3.417,1.946-5.291" transform="translate(-660.347 -27.287)" fill="#2f2e41"/></g><g transform="translate(9.637 41.643)"><path d="M729.455,260.084c3,1.963,6.446,2.006,7.7.1s-.171-5.049-3.175-7.013A8.986,8.986,0,0,0,730,251.7l-12.821-8.156-3.7,6.1,13.035,7.394a9,9,0,0,0,2.943,3.054Z" transform="translate(-684.868 -198.404)" fill="#ed9da0"/><path d="M641.3,158.45l31.457,16.259,2.737-7.526-21.337-16.712-1.422-24.384a9.784,9.784,0,0,0-12.436-8.844h0a9.827,9.827,0,0,0-6.788,11.93l7.789,29.28h0Z" transform="translate(-633.185 -116.87)" fill="#6c63ff"/></g><path d="M791.336,449.3l.727.417s4.989-2.851,7.483,0,4.276,9.974,4.276,9.974,10.33,8.548,4.276,8.548c-4.557,0-15.376-5.046-20.446-7.543a3.515,3.515,0,0,1-1.742-4.379,8.769,8.769,0,0,1,1.881-3.4,5.148,5.148,0,0,0,1.425-2.715,1.452,1.452,0,0,1,2.124-.905h0Z" transform="translate(-721.709 -288.659)" fill="#2f2e41"/><path d="M830.336,411.315l.727.417s4.989-2.851,7.483,0,4.276,9.974,4.276,9.974,10.33,8.548,4.276,8.548c-4.557,0-15.376-5.046-20.446-7.544a3.515,3.515,0,0,1-1.742-4.379,8.77,8.77,0,0,1,1.881-3.4,5.147,5.147,0,0,0,1.425-2.715,1.452,1.452,0,0,1,2.124-.905h0Z" transform="translate(-746.812 -264.207)" fill="#2f2e41"/></g><rect width="213.667" height="123.555" rx="16" transform="translate(714.582 380.597)" fill="#e6e6e6"/><path d="M11.148.7a10.451,10.451,0,0,0-7.39,17.841,10.451,10.451,0,1,0,14.78-14.78A10.383,10.383,0,0,0,11.148.7m0-.7A11.148,11.148,0,1,1,0,11.148,11.148,11.148,0,0,1,11.148,0Z" transform="translate(714.582 351.14)" fill="#090814"/><rect width="97.544" height="11.148" rx="5.574" transform="translate(744.31 356.444)" fill="#e6e6e6"/><path d="M11.148.7a10.451,10.451,0,0,0-7.39,17.841,10.451,10.451,0,1,0,14.78-14.78A10.383,10.383,0,0,0,11.148.7m0-.7A11.148,11.148,0,1,1,0,11.148,11.148,11.148,0,0,1,11.148,0Z" transform="translate(714.582 535.736)" fill="#090814"/><rect width="97.544" height="11.148" rx="5.574" transform="translate(744.31 541.04)" fill="#e6e6e6"/></g></svg>