<svg xmlns="http://www.w3.org/2000/svg" width="800" height="700.58" viewBox="0 0 800 700.58" xmlns:xlink="http://www.w3.org/1999/xlink" role="img" artist="Katerina Limpitsouni" source="https://undraw.co/"><g transform="translate(-644 -341.665)"><ellipse cx="400" cy="39.179" rx="400" ry="39.179" transform="translate(644 963.888)" fill="#f2f2f2"/><path d="M473.035,337.541c-.329,4.4-1.883,8.619-2.452,13-.645,4.828-.076,9.744-.392,14.61s-1.719,9.984-5.422,13.156a255.47,255.47,0,0,1,63.09,13.649c-6.155-7.583-6.319-18.174-6.167-27.905.2-14.395.455-29.068,5.156-42.654a103.809,103.809,0,0,0-42.641-.556c-3.058.607-12.322.228-13.7,3.084C469.509,326.027,473.263,334.356,473.035,337.541Z" transform="translate(407.691 108.369)" fill="#ed9da0"/><path d="M510.157,749.25a26.259,26.259,0,0,0,2.528,3.172,12.715,12.715,0,0,0,4.815,2.313l13.245,4.208c4.916,1.567,10.376,3.589,12.461,8.291,2.351,5.308-1,11.766-5.953,14.787s-11.021,3.463-16.822,3.69a395.742,395.742,0,0,1-96.8-8.2,5.053,5.053,0,0,1-1.858-.657c-2.528-1.706-.367-5.523,1.82-7.583,8.531-8.089,17.807-16.569,29.422-18.439,6.1-1,12.234-.594,18.3-2.047,4.36-1.049,8.48-2.856,12.828-3.931C492.248,742.868,504.369,742.16,510.157,749.25Z" transform="translate(396.048 220.388)" fill="#090814"/><path d="M443.553,523.977a80.328,80.328,0,0,0-1.137,53.725c-4.411-.48-6.319,5.485-6.205,9.934a73.591,73.591,0,0,0,2.793,18.3c.809,2.831,1.795,5.712,1.479,8.619-.455,4.07-3.337,7.406-4.84,11.21-3.16,8.051.088,17.024.632,25.656.506,8.1-1.428,16.126-2.983,24.088a256.883,256.883,0,0,0-4.55,40.278,121.49,121.49,0,0,1-1,15.33c-1.137,7.179-3.791,14.092-4.3,21.333-.72,11.273,4.044,22.332,3.615,33.63-.506,13.257-8.139,26.148-5.472,39.178.379,1.833,1.4,3.994,3.286,4.019,19.058.24,36.866-5.055,55.722-2.288,1.921-43.627,3.791-87.457,12.385-130.288,7.583-38.13,20.436-75.829,19.235-114.7-.7-22.231-5.978-44.032-9.188-66.047a86.887,86.887,0,0,0-59.476,8.025Z" transform="translate(396.15 159.81)" fill="#f2f2f2"/><path d="M524.157,764.25a26.252,26.252,0,0,0,2.528,3.172,12.716,12.716,0,0,0,4.815,2.313l13.245,4.209c4.916,1.567,10.376,3.589,12.461,8.291,2.351,5.308-1,11.766-5.953,14.787s-11.021,3.463-16.822,3.69a395.736,395.736,0,0,1-96.8-8.2,5.055,5.055,0,0,1-1.858-.657c-2.528-1.706-.367-5.523,1.82-7.583,8.531-8.089,17.807-16.569,29.422-18.439,6.1-1,12.234-.594,18.3-2.047,4.36-1.049,8.48-2.856,12.828-3.93C506.248,757.868,518.369,757.16,524.157,764.25Z" transform="translate(399.742 224.345)" fill="#090814"/><path d="M447.155,524.67c-4.878,6.319-6.319,14.66-5.662,22.572s3.324,15.507,5.94,23c-3.476,3.2-2.755,8.708-2.3,13.409,1.656,17.466-4.411,34.894-3.526,52.411.367,7.368,1.972,14.635,2.351,22,.417,8.051-.607,16.1-1.567,24.1a1437.8,1437.8,0,0,0-10.111,154.3c0,4.752-.076,9.58,1.264,14.13,9.188,6.761,20.727,7.671,31.848,5.144s21.27-8.164,31.242-13.725a96.475,96.475,0,0,0,15.469-9.984,8.253,8.253,0,0,0,3.109-4.272c1.062-5.055-5.965-7.343-10-10.616-5.864-4.765-5.776-13.586-5.169-21.119l3.665-45.7c.834-10.351,1.643-20.9-.708-31.014-.961-4.095-2.439-8.3-1.555-12.423,1.441-6.7,8.367-10.439,13.08-15.431,7.128-7.583,9.327-18.338,10.97-28.575A590.635,590.635,0,0,0,530.4,516c-9.289,3.223-20.3,1.466-30.092,2.224s-19.526,4.032-29.447,4.3C462.6,522.711,452.236,518.148,447.155,524.67Z" transform="translate(399.119 160.368)" fill="#f2f2f2"/><circle cx="46.761" cy="46.761" r="46.761" transform="translate(866.433 366.1)" fill="#ed9da0"/><path d="M541.567,372.207a251.658,251.658,0,0,0-46.648-16.1c-11.3-2.692-24.2-4.31-33.643,2.452-2.528,1.807-4.815,4.651-4.272,7.709a7.027,7.027,0,0,1,6.736,6.117c.278,2.679-1.036,5.245-2.325,7.583l-10.907,20.221a79.028,79.028,0,0,0-5.371,11.374c-2.2,6.42-2.679,13.3-3.147,20.07l-1.264,18.351c-.784,11.564-1.58,23.178-.531,34.717.784,8.708,2.6,17.453,1.365,26.111-1,6.964-3.943,13.5-5.6,20.348-3.109,12.891-1.694,27.021-7.722,38.85a11.7,11.7,0,0,1,7.823-.708c18.3,3.374,32.7,17.82,50.464,23.343,4.487-6.547,10.566-11.374,15.583-17.466a33.77,33.77,0,0,0,7.166-15.848c3.792,5.055,7.014,9,9.277,14.863a9.986,9.986,0,0,0,2.022,3.7c2.389,2.326,6.319,1.428,9.516.455a196.146,196.146,0,0,1,48.24-8.177c2.629-.114,3.905-1.378,4.727-3.88s.367-5.207-.126-7.785c-3.147-16.847-6.66-33.719-7.242-50.844-.354-10.111.341-20.36-.935-30.445-.632-4.942-1.731-9.807-2.818-14.66l-9.024-40.1c-.506-2.237-2.907-3.7-3.93-5.763-4.145-8.392-12.069-14.458-16.164-22.875A29.991,29.991,0,0,1,541.567,372.207Z" transform="translate(398.054 117.571)" fill="#6c63ff"/><path d="M471.7,340.8a3.1,3.1,0,0,1,.442-1.87,4.221,4.221,0,0,1,1.82-1.125,9.593,9.593,0,0,0,5.346-10.25l4.423-.923.139-15.406c6.572-3.64,15.532-.885,21.712-5.169,3.476-2.427,5.258-6.547,7.381-10.212s5.283-7.355,9.5-7.659a27.071,27.071,0,0,0,1.453,22.913,26.1,26.1,0,0,0,10.654-9.959l2.2,12.638a3.133,3.133,0,0,0,.935,2.06c1.15.847,2.7-.215,3.716-1.264l5.725-5.624a78.82,78.82,0,0,1,4.916,18.818c9.4-9.125,12.322-23.785,8.708-36.373s-13.08-23.014-24.48-29.447-24.619-9.137-37.7-9.618a53.613,53.613,0,0,0-13.118.847,62.279,62.279,0,0,0-13.371,5.055c-6.534,3.071-13.131,6.446-18.009,11.754-8.493,9.251-10.4,22.85-9.466,35.387,1.264,16.43,6.6,32.291,12.8,47.558,2.06,5.055,4.259,10.174,7.659,14.483,5.118,6.483,17.693,1.1,16.088-11.716C480.063,346.547,471.7,350.073,471.7,340.8Z" transform="translate(402.32 90.782)" fill="#090814"/><path d="M435.772,554c-8.513,32.226-21.585,59.569-37.824,79.115-4.9,5.877-10.232,11.109-15.969,12.828a14.1,14.1,0,0,1-2.367.506,10.835,10.835,0,0,1-8.643-2.717,28.062,28.062,0,0,1-4.939-6.319c-5.308-8.608-9.526-19.28-12.353-31.254-1.662-7.515-3.041-15.235-4.127-23.1q-2.51-16.506-5.007-33.024c-1.63-10.768-3.274-21.662-3.615-32.859-.553-18.186,2.394-36.2,6.535-52.714a69.162,69.162,0,0,0,1.7-7.962c0-.19.048-.379.068-.581.491-4.36.239-8.923.682-13.321.832-8.847,4.352-16.177,8.486-20.84s8.868-7.052,13.568-9.378l7.319-3.652,4.543-2.262,18.479-9.213c2.558-1.264,5.143-2.945,7.742-3.791,2.9-1.011,2.879-.48,3.1,4.777.416,9.529.28,18.894,1.364,28.335,1.03,9.011,2.844,17.694,4.209,26.54,3.445,22.332,4.018,45.839,6.733,68.524.621,5.169,1.48,10.679,3.724,13.9,2.572,3.791,6.9,4.727,7.585,10.667A23.482,23.482,0,0,1,435.772,554Z" transform="translate(456.835 127.928)" fill="#090814"/><path d="M460.646,375.008c9.087-7.785,21.485-12.057,33.251-10.111,6.926,1.125,13.359,4.246,19.564,7.583,12.095,6.42,24.013,13.814,32.733,24.367a97.681,97.681,0,0,1,12.916,21.738,52.709,52.709,0,0,1,3.792,10.629c3.084,14.281-4.487,28.474-11.779,41.137l-14.028,24.341c-6.445,11.185-12.942,22.446-21.333,32.265-3.867,4.525-8.114,8.708-12.348,12.891L484.823,558.2a2.092,2.092,0,0,1-3.45-.025l-6.142-4.891a104.481,104.481,0,0,0,15.7-13.308c8.038-8.316,14.648-17.883,21.22-27.412L532.6,482.913c5.978-8.682,12.221-18.237,11.551-28.752-.316-5.055-2.212-9.807-4.2-14.445q-5.27-12.373-11.45-24.354c-4.626-8.96-9.681-17.807-16.341-25.378s-15.077-13.9-24.771-16.645a20.625,20.625,0,0,0-8.973-.859c-6.648,1.1-11.374,6.812-15.583,12.12l-12.815,16.43c-2.919,3.728-5.6,8.051-5.776.973C443.938,391.906,454.15,381.5,460.646,375.008Z" transform="translate(402.274 120.381)" fill="#090814"/><path d="M462.344,483.047c2.528,9.731,6.256,20.777,15.621,24.468,6.635,2.616,14.408.493,20.145-3.792s9.807-10.325,13.548-16.43a159.56,159.56,0,0,1,10.452-15.848c7.494-9.4,17.694-16.859,22.749-27.8,1.491-3.261,2.528-6.749,4.221-9.883a61.766,61.766,0,0,1,6.117-8.177,88.632,88.632,0,0,0,13.788-23.937c1.163-3.021,2.161-6.256,1.706-9.453-.9-6.155-6.724-10.2-12.145-13.22-3.3-1.833-6.749-3.615-10.5-3.893-5.485-.43-10.881,2.528-14.256,6.863a27.425,27.425,0,0,0-5.207,15.381c-.379,6.736.935,13.738-1.264,20.107a31.6,31.6,0,0,1-4.765,8.24,96.62,96.62,0,0,1-25.921,23.924,44.981,44.981,0,0,0-3.071-13.94c-.961-2.452-19.792,0-22.243.4-4.853.708-14.256,1.264-17.314,5.889s.733,12.4,1.972,17.062Z" transform="translate(404.543 123.179)" fill="#ed9da0"/><path d="M463.56,377.722a66.527,66.527,0,0,0-7.785,7.583c-5.611,6.762-8.354,15.558-9.062,24.316s.493,17.555,2,26.212q2.047,11.652,4.84,23.141c.518-5.776,5.194-10.553,10.616-12.638s11.374-1.858,17.15-1.011a83.831,83.831,0,0,1,21.561,6.231l2.667-37.371a65.109,65.109,0,0,0-.088-15.166,33.428,33.428,0,0,0-15.6-22.686C479.725,370.164,472.66,369.772,463.56,377.722Z" transform="translate(402.873 122.305)" fill="#6c63ff"/><path d="M603.626,437.212a17.29,17.29,0,0,1,5.169-4.562,17.344,17.344,0,0,1-2.844,6.319c-2.2,3-4.512,5.055-5.156,4.562S601.4,440.208,603.626,437.212Z" transform="translate(443.533 138.379)" fill="#6c63ff"/><path d="M541.681,346.77h1.264a.607.607,0,0,1,.607.607V361.7h-2.4V347.377a.607.607,0,0,1,.531-.607Z" transform="translate(502.408 226.306)" fill="#d6d6e3"/><path d="M626.442,457.6a20.221,20.221,0,1,1-40.442,0c0-9.264,6.231-14.749,14.736-16.354a29.713,29.713,0,0,1,5.485-.493,31.011,31.011,0,0,1,3.791.227C619.365,442.14,626.442,447.726,626.442,457.6Z" transform="translate(439.675 140.516)" fill="#ff6884"/><path d="M606.936,440.968c-.366.7-2.351,1.264-4.752,1.264a8.38,8.38,0,0,1-4.524-.948,29.721,29.721,0,0,1,5.485-.493,31.027,31.027,0,0,1,3.791.177Z" transform="translate(442.751 140.525)" opacity="0.1"/><path d="M609.6,477.314a20.221,20.221,0,0,1-20.221-20.221c0-9.1,6-14.547,14.268-16.253a27.243,27.243,0,0,0-2.907.379c-8.505,1.605-14.736,7.09-14.736,16.354a20.221,20.221,0,0,0,20.221,20.221,19.817,19.817,0,0,0,4.537-.518C610.367,477.3,610.013,477.314,609.6,477.314Z" transform="translate(439.675 140.539)" opacity="0.1"/><path d="M675.678,816.864c2.793,2.528,7.065,2.464,10.856,2.186l17.276-1.264c13.725-1.011,27.918-2.148,40.025-8.682a9.518,9.518,0,0,0,3.324-2.528,10.7,10.7,0,0,0,1.453-5.447,252.256,252.256,0,0,1,11.1-55.09c7.583-23.823,18.957-47.3,18.806-72.24v-1.807c-.215-7.81-1.592-15.532-2.439-23.3-1.4-13-1.264-26.111-1.163-39.179a85.017,85.017,0,0,1,1.062-15.3c.8-4.107,3.791-8.227,1.959-11.842-3.551-7.014-16.43-9.592-23.355-9.845-9.327-.329-18.5,2.111-27.513,4.537-2.742.746-5.611,1.542-7.684,3.476-2.78,2.6-3.577,6.686-3.678,10.49-.48,16.872,9.239,32.569,10.009,49.415.139,3.033,0,6.319,1.769,8.847a36.648,36.648,0,0,0,3.791,3.855c3.792,4.158,3.905,10.427,3.64,16.063-.114,2.275-.24,4.55-.392,6.825a339.793,339.793,0,0,1-18.237,89.036,48.556,48.556,0,0,1-3.791,8.847,42.867,42.867,0,0,1-9.378,10.389,119.86,119.86,0,0,1-16.67,11.93c-3.93,2.325-8.126,4.55-10.818,8.24S672.342,813.755,675.678,816.864Z" transform="translate(462.729 175.271)" fill="#ed9da0"/><path d="M675.678,795.715c2.793,2.528,7.065,2.464,10.856,2.186l17.276-1.264c13.725-1.011,27.918-2.148,40.025-8.682a9.518,9.518,0,0,0,3.324-2.528,10.7,10.7,0,0,0,1.453-5.447,252.256,252.256,0,0,1,11.1-55.09c7.583-23.823,18.957-47.3,18.806-72.24a362.74,362.74,0,0,1-43.994,2.174,339.793,339.793,0,0,1-18.237,89.036,48.548,48.548,0,0,1-3.791,8.847,42.868,42.868,0,0,1-9.378,10.388,119.84,119.84,0,0,1-16.67,11.931c-3.93,2.326-8.126,4.55-10.818,8.24S672.342,792.606,675.678,795.715Z" transform="translate(462.73 196.42)" fill="#f2f2f2"/><path d="M718.889,765.537a65.093,65.093,0,0,0,11.905-5.687l19.046-10.742a16.137,16.137,0,0,1,5.649-2.288l2.275,17c.569,4.171.872,9.074-2.275,11.867a11.072,11.072,0,0,1-3.792,1.972c-6.913,2.389-14.37,2.439-21.687,2.667-22.471.72-45.169,3.349-67.311-.594-2.7-.48-5.637-1.264-7.267-3.412-1.858-2.528-1.327-6.193.468-8.758a20.322,20.322,0,0,1,7.318-5.7c5.637-3.033,11.488-5.611,17.34-8.2a1.693,1.693,0,0,1,1.2-.2c.569.19.746.885.9,1.466,1.024,4.145,4.36,7.419,8.164,9.378C690.87,764.3,710.472,768.217,718.889,765.537Z" transform="translate(457.686 221.264)" fill="#6c63ff"/><path d="M685.678,830.864c2.793,2.528,7.065,2.464,10.856,2.186l17.276-1.264c13.725-1.011,27.918-2.148,40.025-8.682a9.518,9.518,0,0,0,3.324-2.528,10.7,10.7,0,0,0,1.454-5.447,252.252,252.252,0,0,1,11.1-55.09c7.583-23.823,18.957-47.3,18.806-72.24v-1.807c-.215-7.81-1.592-15.532-2.439-23.3-1.4-13-1.264-26.111-1.163-39.179a85.024,85.024,0,0,1,1.062-15.3c.8-4.107,3.791-8.227,1.959-11.842-3.551-7.014-16.43-9.592-23.355-9.845-9.327-.329-18.5,2.111-27.513,4.537-2.742.746-5.611,1.542-7.684,3.476-2.78,2.6-3.577,6.686-3.678,10.49-.48,16.872,9.239,32.569,10.009,49.415.139,3.033,0,6.319,1.769,8.847a36.637,36.637,0,0,0,3.792,3.855c3.791,4.158,3.905,10.427,3.64,16.063-.114,2.275-.24,4.55-.392,6.825a339.793,339.793,0,0,1-18.237,89.036,48.564,48.564,0,0,1-3.792,8.847,42.872,42.872,0,0,1-9.377,10.388,119.86,119.86,0,0,1-16.67,11.931c-3.93,2.326-8.126,4.55-10.818,8.24S682.342,827.755,685.678,830.864Z" transform="translate(465.368 178.964)" fill="#ed9da0"/><path d="M685.678,809.715c2.793,2.528,7.065,2.464,10.856,2.186l17.276-1.264c13.725-1.011,27.918-2.148,40.025-8.682a9.518,9.518,0,0,0,3.324-2.528,10.7,10.7,0,0,0,1.454-5.447,252.252,252.252,0,0,1,11.1-55.09c7.583-23.823,18.957-47.3,18.806-72.24a362.739,362.739,0,0,1-43.994,2.174,339.793,339.793,0,0,1-18.237,89.036,48.556,48.556,0,0,1-3.792,8.847,42.868,42.868,0,0,1-9.378,10.389,119.859,119.859,0,0,1-16.67,11.93c-3.93,2.325-8.126,4.55-10.818,8.24S682.342,806.606,685.678,809.715Z" transform="translate(465.368 200.113)" fill="#f2f2f2"/><path d="M728.889,779.537a65.086,65.086,0,0,0,11.905-5.687l19.046-10.743a16.139,16.139,0,0,1,5.649-2.288l2.275,17c.569,4.171.872,9.074-2.275,11.867a11.072,11.072,0,0,1-3.792,1.972c-6.913,2.389-14.37,2.439-21.687,2.667-22.471.72-45.169,3.349-67.311-.594-2.7-.48-5.637-1.264-7.267-3.412-1.858-2.528-1.327-6.193.468-8.758a20.321,20.321,0,0,1,7.318-5.7c5.637-3.033,11.488-5.611,17.34-8.2a1.694,1.694,0,0,1,1.2-.2c.569.19.746.885.9,1.466,1.024,4.145,4.36,7.419,8.164,9.378C700.87,778.3,720.472,782.216,728.889,779.537Z" transform="translate(460.324 224.957)" fill="#6c63ff"/><path d="M665.81,389.449c6.155-7.583,6.319-18.174,6.167-27.905,0-3.791-.114-7.709-.253-11.564v-.089a130.359,130.359,0,0,0-2.237-21.106h0a76.72,76.72,0,0,0-2.654-9.858c.834-.19,1.668-.367,2.528-.518a103.557,103.557,0,0,1,40.126,0c2.287.455,8.076.354,11.374,1.479a3.792,3.792,0,0,1,2.288,1.605c.644,1.352-.682,5.27-1.643,8.746h0a17.087,17.087,0,0,0-.885,4.853,33.31,33.31,0,0,0,.708,4.613c.594,2.793,1.378,5.561,1.744,8.392.645,4.828.076,9.744.392,14.61s1.719,9.984,5.422,13.156a255.467,255.467,0,0,0-63.077,13.586Z" transform="translate(460.73 107.722)" fill="#ed9da0"/><circle cx="46.761" cy="46.761" r="46.761" transform="translate(1108.455 359.149)" fill="#ed9da0"/><path d="M655.567,481.259c-7.728-34.747-.67-72.065,17.786-99.5,4.105-6.113,8.234-12.39,13.622-16.051,6.411-4.334,14-4.484,21.256-4.573,6.411,0,13.022,0,18.915,3.243,7.964,4.319,13.457,13.7,18.092,23.016,4.94,9.924,9.41,20.669,10.163,32.386.4,6.949-.565,14,.247,20.923,1.035,8.773,4.882,16.634,6.458,25.272.859,4.663,1.035,9.49,1.588,14.243a164.136,164.136,0,0,0,3.623,19.19,797.844,797.844,0,0,0,47.711,141.561c5.881,13.2,12.175,26.244,16.127,40.546,1.788,6.471,3.082,13.451,1.623,20.116-2.435,11.059-22,18.075-23.914,19.16a11.031,11.031,0,0,1-6.234,1.495c-74.557,2.512-138.988,15.5-139.446,10.866-7.234-73.231-16.98-142.159-5.8-214.508,1.506-9.759.965-25.571-1.294-35.106Z" transform="translate(471.806 119.51)" fill="#6c63ff"/><path d="M737.525,423.943c1.339,5.283,3.01,10.477,3.462,16.038.36,4.449-.074,8.948.12,13.409a91.216,91.216,0,0,0,2.225,14.572Q746,481.769,749.9,495.046c1.237,3.981,2.668,8.366,1.671,12.474s-4.09,6.648-4.977,10.73c-.923,4.31.923,8.847,3.278,11.994s5.3,5.384,7.479,8.733c2.373,3.653,3.693,8.316,5.364,12.638,2.373,5.717,1.279,11.352,4.319,16.442l8.433,21.657a10.771,10.771,0,0,0,2.678,3.539c3.693,2.629,14.107-4.7,17.864-7.085,4.986-3.248,10.821-1.34,16.333-.8s12.15-1.415,14.117-8.468a25.228,25.228,0,0,0,.4-8.847,113.478,113.478,0,0,0-6.3-28.979c-2.013-5.536-4.469-10.831-5.734-16.758-1.034-4.815-1.237-9.883-2.059-14.774s-2.271-9.567-3.435-14.344c-8.254-33.946-2.05-71.09-4.718-106.679-.988-13.131-3.915-27.526-12.169-34.363-4.9-4.057-10.793-4.689-16.619-5.055l-2.631-.164-4.238-.291c-6.131-.417-12.28-.733-18.253,1.049-8.4,2.528-18.512,11.463-18.844,24.3a201.072,201.072,0,0,0,5.669,51.943Z" transform="translate(478.144 115.604)" fill="#090814"/><path d="M712.2,355.193c-6.943-1.112-14.214-1.681-20.805,1.011-6.3,2.591-11.326,7.912-15.856,13.51a47.473,47.473,0,0,0-7.565,12.246c-3.862,9.908-2.356,21.333,0,31.823,6.422,28.891,19.174,56.758,39.639,75.829a148.182,148.182,0,0,0,19.831,15.166c9.06,5.927,18.415,11.374,28.438,14.8,2.8.961,5.776,1.769,8.641,1.087a7.294,7.294,0,0,0,5.663-6.547c-16.422-10.3-31.145-23.608-45.767-36.853A99.223,99.223,0,0,1,713.2,465.891c-5.187-6.509-8.845-14.37-13.874-21.03-4.53-5.978-10.193-11.021-13.591-17.858a51.682,51.682,0,0,1-4.224-14.888c-1.676-10.578-1.993-21.814,1.767-31.709s12.379-18.022,22.006-17.845c4.938.088,9.638,2.275,14.191,4.411l28.654,13.5c-.351-.177,1.642-5.725,1.552-6.5-.272-2.414-.657-2.452-2.265-4.284-2.741-3.059-7-5.207-10.476-6.989A82.45,82.45,0,0,0,712.2,355.193Z" transform="translate(460.678 117.699)" fill="#6c63ff"/><path d="M681.957,293.926c-.025,32.027,6.433,28.548,12.651,24.67.9,16.051-.4,32.468-6.319,47.406s-16.822,28.31-31.457,34.945c12.992,2.174,24.657-7.153,36.221-13.46,8.063-4.385,21.839.126,30.66-2.528,7.482-2.2,15.166-4.12,21.915-8.051,12.537-7.318,15.381-28.689,17.921-42.97s.228-29.068-3.994-42.97a75.611,75.611,0,0,0-5.674-14.231,49.112,49.112,0,0,0-70.13-17.466c-11.652,7.671-22.388,12.2-31.286,22.906-1.264,1.479,9.674,10.75,11.772,9.714C663.632,294.179,675.017,300.184,681.957,293.926Z" transform="translate(457.183 90.499)" fill="#090814"/><path d="M739.268,380.56a437.159,437.159,0,0,1,17.782,43.817c4.145,12.019,7.8,24.644,6.42,37.283s-8.847,25.4-20.979,29.384c-5.156,1.693-10.679,1.706-16.1,1.833a341.053,341.053,0,0,0-38.812,3.134,170.921,170.921,0,0,1-18.085,2.01c-8.569.278-17.137-1.062-25.681-.366-13.826,1.125-26.957,7.583-40.834,7.583a10.365,10.365,0,0,1-4.929-.91c-2.528-1.365-3.652-4.322-4.512-7.052-1.934-6.167-3.45-13.245-.177-18.818,4.032-6.863,13.194-8.24,21.144-8.847q26.844-1.9,53.75-2.654c15.3-.43,31.886-1.011,43.754-10.692a6.241,6.241,0,0,0,1.908-2.2,7.013,7.013,0,0,0-.152-4.512,196.549,196.549,0,0,1-5.99-56.3,8.341,8.341,0,0,1,1.264-4.828,7.924,7.924,0,0,1,4.006-2.325,58.654,58.654,0,0,1,32.708-.91" transform="translate(441.111 124.636)" fill="#ed9da0"/><path d="M684.344,402.5a9.887,9.887,0,0,0-4.7,3.824c.52-5.972-.182-12-.078-18.016s1.117-12.288,4.561-16.957c4.379-5.958,11.824-8.092,18.789-8.292,10.109-.3,20.569,2.936,27.975,10.526a32.681,32.681,0,0,1,8.771,18.618c.234,1.962,1.013,9.323-.845,10.584-1.624,1.117-7.8-2.735-9.784-3.351a60.01,60.01,0,0,0-44.685,3.065Z" transform="translate(462.702 114.926)" fill="#6c63ff"/></g></svg>