<?xml version="1.0" encoding="UTF-8"?>
<svg version="1.1" xmlns="http://www.w3.org/2000/svg" width="274" height="359">
<path d="M0 0 C90.42 0 180.84 0 274 0 C274 118.47 274 236.94 274 359 C183.58 359 93.16 359 0 359 C0 240.53 0 122.06 0 0 Z " fill="#010101" transform="translate(0,0)"/>
<path d="M0 0 C53.79 0 107.58 0 163 0 C163 108.24 163 216.48 163 328 C162.67 328 162.34 328 162 328 C161.67 321.73 161.34 315.46 161 309 C160.34 309 159.68 309 159 309 C158.67 305.04 158.34 301.08 158 297 C157.34 297 156.68 297 156 297 C155.81824219 296.28714844 155.63648438 295.57429688 155.44921875 294.83984375 C155.07216797 293.40318359 155.07216797 293.40318359 154.6875 291.9375 C154.44386719 290.99777344 154.20023438 290.05804688 153.94921875 289.08984375 C153.0774598 286.25214279 151.96688958 283.63240736 150.76928711 280.92114258 C149.33439299 277.33777798 148.41747813 273.60324487 147.4375 269.875 C145.88373196 263.92602359 145.88373196 263.92602359 143.84765625 258.1328125 C143 256 143 256 143 253 C142.34 253 141.68 253 141 253 C138.125 246.375 138.125 246.375 137 243 C136.34 243 135.68 243 135 243 C133.73828125 241.6796875 133.73828125 241.6796875 132.3125 239.875 C127.08454453 233.19222712 127.08454453 233.19222712 119.765625 229.58203125 C118.21919515 229.48602805 116.67228701 229.39742973 115.125 229.31640625 C111.54478737 228.78332312 109.45949671 226.44067403 107 224 C105.64919397 222.85020677 104.29483127 221.70458284 102.9375 220.5625 C99.55687664 217.59963428 96.8136273 214.49802313 94 211 C92.63875 209.6696875 92.63875 209.6696875 91.25 208.3125 C89 206 89 206 88 203 C86.69339212 202.28236635 85.35413435 201.62333168 84 201 C76.60250102 195.74632005 70.3154355 191.26570181 67.76171875 182.3203125 C66.99878077 179.99628602 65.99399962 178.15989184 64.75 176.0625 C62.27722291 171.3159049 62.82197403 167.09624277 64 162 C65.40941894 157.92010306 66.11018309 156.47330687 69.9375 154.4375 C70.948125 153.963125 71.95875 153.48875 73 153 C78.82955103 147.34190636 81.31121869 138.92098509 82 131 C82.66 131 83.32 131 84 131 C83.67 127.04 83.34 123.08 83 119 C80.69 119 78.38 119 76 119 C75.95101562 117.77023438 75.90203125 116.54046875 75.8515625 115.2734375 C75.77648971 113.64060434 75.70094385 112.00779288 75.625 110.375 C75.5940625 109.56675781 75.563125 108.75851563 75.53125 107.92578125 C75.30387736 103.26464205 74.69295009 99.39905565 73 95 C72.1875 91.5625 72.1875 91.5625 73 88 C76.32339726 85.10043681 80.15790096 83.13498458 84 81 C85.33719341 80.19255627 86.67038609 79.37845865 88 78.55859375 C98.6701606 72 98.6701606 72 101 72 C101 71.34 101 70.68 101 70 C103.01171875 68.5625 103.01171875 68.5625 105.6875 67 C106.55761719 66.484375 107.42773438 65.96875 108.32421875 65.4375 C110.83647195 64.08785157 113.33203915 62.99988443 116 62 C116 61.34 116 60.68 116 60 C122.20298189 57.04833954 128.39768585 54.87105293 135 53 C135.99 52.67 136.98 52.34 138 52 C138 51.01 138 50.02 138 49 C136.72125 48.773125 135.4425 48.54625 134.125 48.3125 C129.54534651 47.29797458 125.78904456 45.53028811 121.65625 43.35546875 C116.9021092 40.92945866 111.95195925 38.98201095 107 37 C105.88753906 36.55269531 104.77507812 36.10539062 103.62890625 35.64453125 C97.80126597 33.34716092 92.12604242 31.32130327 86 30 C86 29.34 86 28.68 86 28 C85.25234375 27.87882812 84.5046875 27.75765625 83.734375 27.6328125 C82.74953125 27.46523438 81.7646875 27.29765625 80.75 27.125 C79.28820312 26.88136719 79.28820312 26.88136719 77.796875 26.6328125 C75.20641865 26.04670366 73.32986188 25.22416471 71 24 C69.00889599 23.61709538 67.00899487 23.27395385 65 23 C65 22.34 65 21.68 65 21 C62.36 20.67 59.72 20.34 57 20 C57 19.34 57 18.68 57 18 C52.71 17.34 48.42 16.68 44 16 C44 15.34 44 14.68 44 14 C43.16597656 13.89042969 42.33195312 13.78085938 41.47265625 13.66796875 C34.65182443 12.70695808 28.4547682 11.40686272 22 9 C22 8.34 22 7.68 22 7 C19.03 6.67 16.06 6.34 13 6 C13 5.34 13 4.68 13 4 C8.71 3.34 4.42 2.68 0 2 C0 1.34 0 0.68 0 0 Z " fill="#FDFDFD" transform="translate(111,0)"/>
<path d="M0 0 C35.64 0 71.28 0 108 0 C106.63721482 4.08835553 103.88706303 5.23845017 100.375 7.375 C99.09544799 8.17172359 97.81679158 8.96988744 96.5390625 9.76953125 C95.92579102 10.15189941 95.31251953 10.53426758 94.68066406 10.92822266 C92.64294564 12.22769736 90.69003331 13.62192208 88.75 15.0625 C86 17 86 17 84 17 C83.505 18.485 83.505 18.485 83 20 C81.35286865 21.0318605 79.67967917 22.02201448 78 23 C74.99106465 25.22670105 72.06235621 27.55501915 69.125 29.875 C53.73263158 42 53.73263158 42 51 42 C51 42.66 51 43.32 51 44 C49.63671875 45.41015625 49.63671875 45.41015625 47.6875 47.0625 C46.96433594 47.67996094 46.24117187 48.29742187 45.49609375 48.93359375 C41.8736843 51.93242724 38.20310256 54.8706874 34.515625 57.7890625 C31.04286529 60.84120845 28.47211309 63.58366072 27 68 C28.42892578 68.07347656 28.42892578 68.07347656 29.88671875 68.1484375 C31.14097656 68.22320312 32.39523438 68.29796875 33.6875 68.375 C34.92886719 68.44460937 36.17023437 68.51421875 37.44921875 68.5859375 C40.72472794 68.96790007 43.0035445 69.71869495 46 71 C47.56159351 108.03198511 48.29934132 144.93360324 48 182 C51.83324008 184.11836952 54.59977384 184.31430187 59 184 C61.71582918 182.97238896 62.93231434 182.06768566 65 180 C65.99 180.33 66.98 180.66 68 181 C68 178.69 68 176.38 68 174 C68.66 175.32 69.32 176.64 70 178 C70 175.03 70 172.06 70 169 C69.34 168.67 68.68 168.34 68 168 C68 169.32 68 170.64 68 172 C67.34 172 66.68 172 66 172 C64.77482692 166.33357449 64.90771133 160.76291482 65 155 C65.33 155 65.66 155 66 155 C66.66 158.3 67.32 161.6 68 165 C67.505 154.605 67.505 154.605 67 144 C66.34 144 65.68 144 65 144 C64.93006836 143.40687012 64.86013672 142.81374023 64.78808594 142.20263672 C63.2648009 128.48954358 63.2648009 128.48954358 60 115.125 C56.81701304 105.06383433 56.13040387 94.45024259 55 84 C54.80648062 82.25645585 54.61251602 80.51296101 54.41796875 78.76953125 C54.28003906 77.52558594 54.14210937 76.28164062 54 75 C59.63281599 74.7603057 64.54538831 75.61470179 70 77 C70 77.66 70 78.32 70 79 C70.67546875 79.06058594 71.3509375 79.12117188 72.046875 79.18359375 C73.38492188 79.30927734 73.38492188 79.30927734 74.75 79.4375 C76.07257813 79.55931641 76.07257813 79.55931641 77.421875 79.68359375 C79.69350452 79.96238465 81.79851823 80.38790577 84 81 C85.1749908 85.30829961 84.63609581 88.61772278 84 93 C83.86034659 95.41362935 83.75619474 97.8295179 83.68359375 100.24609375 C83.6524221 101.23005882 83.6524221 101.23005882 83.62062073 102.23390198 C83.55594062 104.30167546 83.49662534 106.36956101 83.4375 108.4375 C83.39423693 109.85092242 83.35062035 111.26433407 83.30664062 112.67773438 C83.20034484 116.11837471 83.09885528 119.55913692 83 123 C81.68 123 80.36 123 79 123 C81.51307047 137.32203622 81.51307047 137.32203622 87 150.6875 C88.93265491 154.32757561 89.63168416 157.83048734 90.375 161.875 C91.51931831 167.82034095 93.39931815 172.12211231 96.79296875 177.109375 C98 179 98 179 98 181 C98.99 181.33 99.98 181.66 101 182 C102.6875 183.125 102.6875 183.125 104 185 C104.5 188.4375 104.5 188.4375 104 192 C101.45998158 194.77092918 99.1526559 195.93619812 95.69140625 197.3828125 C93.30087755 198.38461734 91.29936063 199.42671919 89.0625 200.7890625 C78.23653822 207.27911612 67.38488818 207.12644174 55 207 C53.50002556 209.94952958 52.19976433 212.91489173 51 216 C50.34 216 49.68 216 49 216 C48.34 219.3 47.68 222.6 47 226 C46.34 226 45.68 226 45 226 C44.85884766 227.01320312 44.85884766 227.01320312 44.71484375 228.046875 C43.82651107 231.71670837 42.2654922 234.90644708 40.5625 238.25 C40.24990234 238.88679687 39.93730469 239.52359375 39.61523438 240.1796875 C37.25346482 244.87326759 37.25346482 244.87326759 35 246 C33.96898053 248.31979381 32.97063483 250.65429915 32 253 C31.34 253.99 30.68 254.98 30 256 C29.34 256 28.68 256 28 256 C27.855625 256.763125 27.71125 257.52625 27.5625 258.3125 C27 261 27 261 26 264 C25.34 264 24.68 264 24 264 C23.67 265.98 23.34 267.96 23 270 C22.34 270 21.68 270 21 270 C20.72285156 270.86367188 20.44570313 271.72734375 20.16015625 272.6171875 C18.68915223 276.90637769 16.90709334 281.02974668 15.12109375 285.1953125 C14.20963776 287.47554037 13.50977796 289.60576194 13 292 C12.34 292 11.68 292 11 292 C10.89042969 292.75023437 10.78085938 293.50046875 10.66796875 294.2734375 C9.74050243 300.26049652 8.51134069 305.89831542 6.6640625 311.6640625 C5.68895116 315.09416003 5.32834468 318.45387742 5 322 C4.34 322 3.68 322 3 322 C3.01740234 322.87398438 3.01740234 322.87398438 3.03515625 323.765625 C3.10921061 330.49399222 3.11521971 337.35076548 2 344 C1.34 344.66 0.68 345.32 0 346 C0 231.82 0 117.64 0 0 Z " fill="#FCFCFC" transform="translate(0,0)"/>
<path d="M0 0 C0.66 0 1.32 0 2 0 C2.33801152 2.54112232 2.67053379 5.08276746 3 7.625 C3.09539062 8.33785156 3.19078125 9.05070313 3.2890625 9.78515625 C3.81606101 13.88821609 4.10466984 17.85245742 4 22 C3.34 21.67 2.68 21.34 2 21 C1.67 19.35 1.34 17.7 1 16 C1 19.96 1 23.92 1 28 C1.66 28 2.32 28 3 28 C3 26.68 3 25.36 3 24 C3.99 24.33 4.98 24.66 6 25 C6 28.3 6 31.6 6 35 C5.34 34.67 4.68 34.34 4 34 C3.67 34.99 3.34 35.98 3 37 C0.525 37.495 0.525 37.495 -2 38 C-1.979375 37.195625 -1.95875 36.39125 -1.9375 35.5625 C-1.70366379 33.06645115 -1.70366379 33.06645115 -3 32 C-3.14115161 29.32941149 -3.04247107 26.67567762 -3 24 C-2.34 23.67 -1.68 23.34 -1 23 C-1.165 22.0925 -1.33 21.185 -1.5 20.25 C-2.28873311 14.86217525 -2.08025923 9.43087444 -2 4 C-1.34 4 -0.68 4 0 4 C0 2.68 0 1.36 0 0 Z " fill="#585858" transform="translate(65,144)"/>
<path d="M0 0 C0.66 0 1.32 0 2 0 C2.33801152 2.54112232 2.67053379 5.08276746 3 7.625 C3.09539062 8.33785156 3.19078125 9.05070313 3.2890625 9.78515625 C3.81606101 13.88821609 4.10466984 17.85245742 4 22 C3.34 21.67 2.68 21.34 2 21 C1.31060191 18.67328146 0.64533078 16.33932406 0 14 C-0.66 13.01 -1.32 12.02 -2 11 C-2.07905064 8.66800612 -2.08798769 6.33167378 -2 4 C-1.34 4 -0.68 4 0 4 C0 2.68 0 1.36 0 0 Z " fill="#8F8F8F" transform="translate(65,144)"/>
<path d="M0 0 C0.66 0.33 1.32 0.66 2 1 C-2.29 5.29 -6.58 9.58 -11 14 C-9.02 14.66 -7.04 15.32 -5 16 C-5 16.33 -5 16.66 -5 17 C-7.64 16.67 -10.28 16.34 -13 16 C-12.85045318 11.06495496 -10.24246885 8.84688295 -6.85546875 5.6484375 C-4.63533135 3.67602069 -2.36728016 1.79339406 0 0 Z " fill="#3D3D3D" transform="translate(40,52)"/>
<path d="M0 0 C4.92320582 8.4397814 4.56359732 18.53695247 5 28 C4.67 28 4.34 28 4 28 C2.16883655 23.14510868 1.42023966 18.55470828 0.875 13.4375 C0.78863281 12.69564453 0.70226563 11.95378906 0.61328125 11.18945312 C0.19261904 7.44021767 -0.1047769 3.77945244 0 0 Z " fill="#6E6E6E" transform="translate(59,110)"/>
<path d="M0 0 C0.99 0.33 1.98 0.66 3 1 C3 4.3 3 7.6 3 11 C2.34 10.67 1.68 10.34 1 10 C0.67 10.99 0.34 11.98 0 13 C-0.99 12.67 -1.98 12.34 -3 12 C-2.34 12 -1.68 12 -1 12 C-1.020625 10.7625 -1.04125 9.525 -1.0625 8.25 C-1.06766681 5.3359175 -0.93015558 2.79046673 0 0 Z " fill="#8D8D8D" transform="translate(68,168)"/>
<path d="M0 0 C2 2 2 2 2.1953125 3.9453125 C2.13020833 5.96354167 2.06510417 7.98177083 2 10 C1.01 10 0.02 10 -1 10 C-1.33 10.66 -1.66 11.32 -2 12 C-2 10.02 -2 8.04 -2 6 C-1.34 6 -0.68 6 0 6 C0 4.02 0 2.04 0 0 Z " fill="#2F2F2F" transform="translate(65,170)"/>
<path d="M0 0 C0.33 0 0.66 0 1 0 C1.13277344 0.69867188 1.26554687 1.39734375 1.40234375 2.1171875 C1.57894531 3.02726563 1.75554687 3.93734375 1.9375 4.875 C2.11152344 5.77992188 2.28554687 6.68484375 2.46484375 7.6171875 C2.89963701 9.99956317 2.89963701 9.99956317 4 12 C3.34 12 2.68 12 2 12 C2 13.65 2 15.3 2 17 C1.67 17 1.34 17 1 17 C-0.22517308 11.33357449 -0.09228867 5.76291482 0 0 Z " fill="#DFDFDF" transform="translate(65,155)"/>
<path d="M0 0 C0.66 0 1.32 0 2 0 C2.33 3.96 2.66 7.92 3 12 C0 9 0 9 -0.29296875 6.73828125 C-0.25816406 5.93777344 -0.22335938 5.13726562 -0.1875 4.3125 C-0.16042969 3.50425781 -0.13335937 2.69601563 -0.10546875 1.86328125 C-0.07066406 1.24839844 -0.03585938 0.63351563 0 0 Z " fill="#9C9C9C" transform="translate(65,144)"/>
</svg>
