<svg xmlns="http://www.w3.org/2000/svg" width="800" height="730.607" viewBox="0 0 800 730.607" xmlns:xlink="http://www.w3.org/1999/xlink" role="img" artist="Katerina Limpitsouni" source="https://undraw.co/"><g transform="translate(-523.029 -167)"><path d="M630.664,252.812h-4.019V142.84A63.65,63.65,0,0,0,563,79.19H330.014a63.65,63.65,0,0,0-63.65,63.65V746.148a63.65,63.65,0,0,0,63.65,63.65H563a63.65,63.65,0,0,0,63.65-63.65V331.082h4.019Z" transform="translate(475.495 87.81)" fill="#090814"/><path d="M565.5,95.686H535.092A22.582,22.582,0,0,1,514.177,126.8H380.694a22.582,22.582,0,0,1-20.915-31.112h-28.4a47.533,47.533,0,0,0-47.533,47.533V745.645a47.532,47.532,0,0,0,47.531,47.532H565.492a47.533,47.533,0,0,0,47.533-47.533V143.219A47.532,47.532,0,0,0,565.5,95.686Z" transform="translate(475.57 87.877)" fill="#fff"/><path d="M27.856,0A27.856,27.856,0,1,1,0,27.856,27.856,27.856,0,0,1,27.856,0Z" transform="translate(784.464 250.343)" fill="#e6e6e6"/><path d="M3.653,0H63.018a3.653,3.653,0,0,1,3.653,3.653V22.833a3.653,3.653,0,0,1-3.653,3.653H3.653A3.653,3.653,0,0,1,0,22.833V3.653A3.653,3.653,0,0,1,3.653,0Z" transform="translate(997.264 264.043)" fill="#e6e6e6"/><path d="M17.058,0H203.631a17.058,17.058,0,0,1,17.058,17.058v99.15a17.058,17.058,0,0,1-17.058,17.058H17.058A17.058,17.058,0,0,1,0,116.208V17.058A17.058,17.058,0,0,1,17.058,0Z" transform="translate(816.971 552.867)" fill="#f2f2f2"/><path d="M9.991,0A9.991,9.991,0,1,1,0,9.991,9.991,9.991,0,0,1,9.991,0Z" transform="translate(816.802 697.378)" fill="#f2f2f2"/><path d="M692.615,579.614a3.017,3.017,0,1,0,0,6.034h61.207a3.017,3.017,0,1,0,0-6.034Z" transform="translate(155.175 124.735)" fill="#f2f2f2"/><path d="M220.689,141.613H0V26.974C0,12.077,7.637,0,17.058,0H203.631c9.421,0,17.058,12.077,17.058,26.974Z" transform="translate(816.971 739.44)" fill="#f2f2f2"/><g transform="translate(523.029 750.113)"><path d="M6.66,0h235.6a6.66,6.66,0,0,1,6.66,6.66V61.606a6.66,6.66,0,0,1-6.66,6.66H6.66A6.66,6.66,0,0,1,0,61.606V6.66A6.66,6.66,0,0,1,6.66,0Z" transform="translate(0 0)" fill="#090814"/><path d="M6.615,0H240.642a6.558,6.558,0,0,1,6.615,6.5V60.1a6.558,6.558,0,0,1-6.615,6.5H6.615A6.558,6.558,0,0,1,0,60.1V6.5A6.558,6.558,0,0,1,6.615,0Z" transform="translate(0.833 0.833)" fill="#f2f2f2"/><path d="M18.1,0A18.1,18.1,0,1,1,0,18.1,18.1,18.1,0,0,1,18.1,0Z" transform="translate(23.523 16.009)" fill="#6c63ff"/><path d="M692.615,557.868a3.017,3.017,0,0,0,0,6.034H834.856a3.017,3.017,0,0,0,0-6.034Z" transform="translate(-609.178 -535.199)" fill="#6c63ff"/><path d="M692.615,579.614a3.017,3.017,0,1,0,0,6.034h61.207a3.017,3.017,0,1,0,0-6.034Z" transform="translate(-609.178 -538.841)" fill="#6c63ff"/></g><path d="M17.058,0H203.631a17.058,17.058,0,0,1,17.058,17.058v99.15a17.058,17.058,0,0,1-17.058,17.058H17.058A17.058,17.058,0,0,1,0,116.208V17.058A17.058,17.058,0,0,1,17.058,0Z" transform="translate(816.971 359.319)" fill="#6c63ff"/><path d="M9.991,0A9.991,9.991,0,1,1,0,9.991,9.991,9.991,0,0,1,9.991,0Z" transform="translate(816.802 503.829)" fill="#f2f2f2"/><path d="M692.615,579.614a3.017,3.017,0,1,0,0,6.034h61.207a3.017,3.017,0,1,0,0-6.034Z" transform="translate(155.175 -68.813)" fill="#f2f2f2"/><g transform="translate(554.069 391.818)"><path d="M6.66,0h235.6a6.66,6.66,0,0,1,6.66,6.66V61.606a6.66,6.66,0,0,1-6.66,6.66H6.66A6.66,6.66,0,0,1,0,61.606V6.66A6.66,6.66,0,0,1,6.66,0Z" transform="translate(0 0)" fill="#090814"/><path d="M6.615,0H240.642a6.558,6.558,0,0,1,6.615,6.5V60.1a6.558,6.558,0,0,1-6.615,6.5H6.615A6.558,6.558,0,0,1,0,60.1V6.5A6.558,6.558,0,0,1,6.615,0Z" transform="translate(0.833 0.833)" fill="#f2f2f2"/><path d="M18.1,0A18.1,18.1,0,1,1,0,18.1,18.1,18.1,0,0,1,18.1,0Z" transform="translate(23.523 16.009)" fill="#6c63ff"/><path d="M692.615,557.868a3.017,3.017,0,0,0,0,6.034H834.856a3.017,3.017,0,0,0,0-6.034Z" transform="translate(-609.178 -535.199)" fill="#6c63ff"/><path d="M692.615,579.614a3.017,3.017,0,1,0,0,6.034h61.207a3.017,3.017,0,1,0,0-6.034Z" transform="translate(-609.178 -538.841)" fill="#6c63ff"/></g><g transform="translate(1074.106 585.367)"><path d="M6.66,0h235.6a6.66,6.66,0,0,1,6.66,6.66V61.606a6.66,6.66,0,0,1-6.66,6.66H6.66A6.66,6.66,0,0,1,0,61.606V6.66A6.66,6.66,0,0,1,6.66,0Z" transform="translate(0 0)" fill="#090814"/><path d="M6.615,0H240.642a6.558,6.558,0,0,1,6.615,6.5V60.1a6.558,6.558,0,0,1-6.615,6.5H6.615A6.558,6.558,0,0,1,0,60.1V6.5A6.558,6.558,0,0,1,6.615,0Z" transform="translate(0.833 0.833)" fill="#f2f2f2"/><path d="M18.1,0A18.1,18.1,0,1,1,0,18.1,18.1,18.1,0,0,1,18.1,0Z" transform="translate(23.523 16.009)" fill="#6c63ff"/><path d="M692.615,557.868a3.017,3.017,0,0,0,0,6.034H834.856a3.017,3.017,0,0,0,0-6.034Z" transform="translate(-609.178 -535.199)" fill="#6c63ff"/><path d="M692.615,579.614a3.017,3.017,0,1,0,0,6.034h61.207a3.017,3.017,0,1,0,0-6.034Z" transform="translate(-609.178 -538.841)" fill="#6c63ff"/></g><rect width="14" height="15" rx="4" transform="translate(1024.028 506.409)" fill="#f2f2f2"/><rect width="14" height="15" rx="4" transform="translate(1004.029 506.409)" fill="#f2f2f2"/><rect width="14" height="15" rx="4" transform="translate(984.029 506.409)" fill="#f2f2f2"/><rect width="14" height="15" rx="4" transform="translate(1024.028 700.409)" fill="#f2f2f2"/><rect width="14" height="15" rx="4" transform="translate(1004.029 700.409)" fill="#f2f2f2"/><rect width="14" height="15" rx="4" transform="translate(984.029 700.409)" fill="#f2f2f2"/></g></svg>