<svg xmlns="http://www.w3.org/2000/svg" width="960" height="797.54" viewBox="0 0 960 797.54" xmlns:xlink="http://www.w3.org/1999/xlink" role="img" artist="Katerina Limpitsouni" source="https://undraw.co/"><g transform="translate(-568.805 -177)"><path d="M632.948,630.458,610.365,628.5l-3.943-83.327h32.2Z" transform="translate(804.67 316.168)" fill="#ed9da0"/><path d="M219.158,612.978a7.592,7.592,0,0,0,3.185-5.335c.147-2.211-.959-4.583-3.287-7.049-.055-.711-.779-9.506-2.388-11.082.135-.471.954-3.586-.389-5.619a3.908,3.908,0,0,0-3.034-1.655l-.06-.006-.03.052c-.039.068-3.956,6.874-9.849,7.471-3.378.347-6.76-1.4-10.053-5.167-.116-.279-1.048-4.873-1.649-7.914l-.024-.122L159.473,593.43l-18.767,5.194a5.463,5.463,0,0,0-.909,10.189l9.1,4.373a28.46,28.46,0,0,0,12.257,2.793H210.5a13.781,13.781,0,0,0,8.662-3Z" transform="translate(1223.366 355.912)" fill="#090814"/><path d="M848.43,634.666H524.27v-2.649H848.91Z" transform="translate(679.895 339.874)" fill="#e6e6e6"/><circle cx="8.569" cy="8.569" r="8.569" transform="translate(568.805 177)" fill="#e6e6e6"/><circle cx="8.569" cy="8.569" r="8.569" transform="translate(612.182 177)" fill="#e6e6e6"/><circle cx="8.569" cy="8.569" r="8.569" transform="translate(655.559 177)" fill="#e6e6e6"/><circle cx="8.569" cy="8.569" r="8.569" transform="translate(698.936 177)" fill="#e6e6e6"/><circle cx="8.569" cy="8.569" r="8.569" transform="translate(742.313 177)" fill="#e6e6e6"/><circle cx="8.569" cy="8.569" r="8.569" transform="translate(785.69 177)" fill="#e6e6e6"/><circle cx="8.569" cy="8.569" r="8.569" transform="translate(829.067 177)" fill="#e6e6e6"/><circle cx="8.569" cy="8.569" r="8.569" transform="translate(872.444 177)" fill="#e6e6e6"/><circle cx="8.569" cy="8.569" r="8.569" transform="translate(915.821 177)" fill="#e6e6e6"/><circle cx="8.569" cy="8.569" r="8.569" transform="translate(959.199 177)" fill="#e6e6e6"/><circle cx="8.569" cy="8.569" r="8.569" transform="translate(568.805 220.922)" fill="#e6e6e6"/><circle cx="8.569" cy="8.569" r="8.569" transform="translate(612.182 220.922)" fill="#e6e6e6"/><circle cx="8.569" cy="8.569" r="8.569" transform="translate(655.559 220.922)" fill="#e6e6e6"/><circle cx="8.569" cy="8.569" r="8.569" transform="translate(698.936 220.922)" fill="#6c63ff"/><circle cx="8.569" cy="8.569" r="8.569" transform="translate(742.313 220.922)" fill="#e6e6e6"/><circle cx="8.569" cy="8.569" r="8.569" transform="translate(785.69 220.922)" fill="#e6e6e6"/><circle cx="8.569" cy="8.569" r="8.569" transform="translate(829.067 220.922)" fill="#e6e6e6"/><circle cx="8.569" cy="8.569" r="8.569" transform="translate(872.444 220.922)" fill="#e6e6e6"/><circle cx="8.569" cy="8.569" r="8.569" transform="translate(915.821 220.922)" fill="#e6e6e6"/><circle cx="8.569" cy="8.569" r="8.569" transform="translate(959.199 220.922)" fill="#e6e6e6"/><circle cx="8.569" cy="8.569" r="8.569" transform="translate(568.805 264.843)" fill="#e6e6e6"/><circle cx="8.569" cy="8.569" r="8.569" transform="translate(612.182 264.843)" fill="#e6e6e6"/><circle cx="8.569" cy="8.569" r="8.569" transform="translate(655.559 264.843)" fill="#e6e6e6"/><circle cx="8.569" cy="8.569" r="8.569" transform="translate(698.936 264.843)" fill="#e6e6e6"/><circle cx="8.569" cy="8.569" r="8.569" transform="translate(742.313 264.843)" fill="#e6e6e6"/><circle cx="8.569" cy="8.569" r="8.569" transform="translate(785.69 264.843)" fill="#e6e6e6"/><circle cx="8.569" cy="8.569" r="8.569" transform="translate(829.067 264.843)" fill="#e6e6e6"/><circle cx="8.569" cy="8.569" r="8.569" transform="translate(872.444 264.843)" fill="#e6e6e6"/><circle cx="8.569" cy="8.569" r="8.569" transform="translate(915.821 264.843)" fill="#e6e6e6"/><circle cx="8.569" cy="8.569" r="8.569" transform="translate(959.199 264.843)" fill="#e6e6e6"/><circle cx="8.569" cy="8.569" r="8.569" transform="translate(568.805 308.765)" fill="#e6e6e6"/><circle cx="8.569" cy="8.569" r="8.569" transform="translate(612.182 308.765)" fill="#e6e6e6"/><circle cx="8.569" cy="8.569" r="8.569" transform="translate(655.559 308.765)" fill="#e6e6e6"/><circle cx="8.569" cy="8.569" r="8.569" transform="translate(698.936 308.765)" fill="#e6e6e6"/><circle cx="8.569" cy="8.569" r="8.569" transform="translate(742.313 308.765)" fill="#e6e6e6"/><circle cx="8.569" cy="8.569" r="8.569" transform="translate(785.69 308.765)" fill="#e6e6e6"/><circle cx="8.569" cy="8.569" r="8.569" transform="translate(829.067 308.765)" fill="#e6e6e6"/><circle cx="8.569" cy="8.569" r="8.569" transform="translate(872.444 308.765)" fill="#e6e6e6"/><circle cx="8.569" cy="8.569" r="8.569" transform="translate(915.821 308.765)" fill="#e6e6e6"/><circle cx="8.569" cy="8.569" r="8.569" transform="translate(959.199 308.765)" fill="#e6e6e6"/><circle cx="8.569" cy="8.569" r="8.569" transform="translate(568.805 352.686)" fill="#e6e6e6"/><circle cx="8.569" cy="8.569" r="8.569" transform="translate(612.182 352.686)" fill="#6c63ff"/><circle cx="8.569" cy="8.569" r="8.569" transform="translate(655.559 352.686)" fill="#e6e6e6"/><circle cx="8.569" cy="8.569" r="8.569" transform="translate(698.936 352.686)" fill="#e6e6e6"/><circle cx="8.569" cy="8.569" r="8.569" transform="translate(742.313 352.686)" fill="#e6e6e6"/><circle cx="8.569" cy="8.569" r="8.569" transform="translate(785.69 352.686)" fill="#e6e6e6"/><circle cx="8.569" cy="8.569" r="8.569" transform="translate(829.067 352.686)" fill="#e6e6e6"/><circle cx="8.569" cy="8.569" r="8.569" transform="translate(872.444 352.686)" fill="#e6e6e6"/><circle cx="8.569" cy="8.569" r="8.569" transform="translate(915.821 352.686)" fill="#e6e6e6"/><circle cx="8.569" cy="8.569" r="8.569" transform="translate(568.805 396.608)" fill="#e6e6e6"/><circle cx="8.569" cy="8.569" r="8.569" transform="translate(612.182 396.608)" fill="#e6e6e6"/><circle cx="8.569" cy="8.569" r="8.569" transform="translate(655.559 396.608)" fill="#e6e6e6"/><circle cx="8.569" cy="8.569" r="8.569" transform="translate(698.936 396.608)" fill="#e6e6e6"/><circle cx="8.569" cy="8.569" r="8.569" transform="translate(742.313 396.608)" fill="#e6e6e6"/><circle cx="8.569" cy="8.569" r="8.569" transform="translate(785.69 396.608)" fill="#e6e6e6"/><circle cx="8.569" cy="8.569" r="8.569" transform="translate(829.067 396.608)" fill="#e6e6e6"/><circle cx="8.569" cy="8.569" r="8.569" transform="translate(872.444 396.608)" fill="#e6e6e6"/><circle cx="8.569" cy="8.569" r="8.569" transform="translate(915.821 396.608)" fill="#e6e6e6"/><circle cx="8.569" cy="8.569" r="8.569" transform="translate(568.805 440.529)" fill="#e6e6e6"/><circle cx="8.569" cy="8.569" r="8.569" transform="translate(612.182 440.529)" fill="#e6e6e6"/><circle cx="8.569" cy="8.569" r="8.569" transform="translate(655.559 440.529)" fill="#6c63ff"/><circle cx="8.569" cy="8.569" r="8.569" transform="translate(698.936 440.529)" fill="#e6e6e6"/><circle cx="8.569" cy="8.569" r="8.569" transform="translate(742.313 440.529)" fill="#e6e6e6"/><circle cx="8.569" cy="8.569" r="8.569" transform="translate(785.69 440.529)" fill="#e6e6e6"/><circle cx="8.569" cy="8.569" r="8.569" transform="translate(829.067 440.529)" fill="#e6e6e6"/><circle cx="8.569" cy="8.569" r="8.569" transform="translate(872.444 440.529)" fill="#e6e6e6"/><circle cx="8.569" cy="8.569" r="8.569" transform="translate(915.821 440.529)" fill="#e6e6e6"/><circle cx="8.569" cy="8.569" r="8.569" transform="translate(568.805 484.451)" fill="#e6e6e6"/><circle cx="8.569" cy="8.569" r="8.569" transform="translate(612.182 484.451)" fill="#e6e6e6"/><circle cx="8.569" cy="8.569" r="8.569" transform="translate(655.559 484.451)" fill="#e6e6e6"/><circle cx="8.569" cy="8.569" r="8.569" transform="translate(698.936 484.451)" fill="#e6e6e6"/><circle cx="8.569" cy="8.569" r="8.569" transform="translate(742.313 484.451)" fill="#e6e6e6"/><circle cx="8.569" cy="8.569" r="8.569" transform="translate(785.69 484.451)" fill="#e6e6e6"/><circle cx="8.569" cy="8.569" r="8.569" transform="translate(829.067 484.451)" fill="#e6e6e6"/><circle cx="8.569" cy="8.569" r="8.569" transform="translate(872.444 484.451)" fill="#e6e6e6"/><circle cx="8.569" cy="8.569" r="8.569" transform="translate(915.821 484.451)" fill="#e6e6e6"/><circle cx="8.569" cy="8.569" r="8.569" transform="translate(959.199 484.451)" fill="#e6e6e6"/><circle cx="8.569" cy="8.569" r="8.569" transform="translate(568.805 528.372)" fill="#e6e6e6"/><circle cx="8.569" cy="8.569" r="8.569" transform="translate(612.182 528.372)" fill="#e6e6e6"/><circle cx="8.569" cy="8.569" r="8.569" transform="translate(655.559 528.372)" fill="#e6e6e6"/><circle cx="8.569" cy="8.569" r="8.569" transform="translate(698.936 528.372)" fill="#e6e6e6"/><circle cx="8.569" cy="8.569" r="8.569" transform="translate(742.313 528.372)" fill="#e6e6e6"/><circle cx="8.569" cy="8.569" r="8.569" transform="translate(785.69 528.372)" fill="#e6e6e6"/><circle cx="8.569" cy="8.569" r="8.569" transform="translate(829.067 528.372)" fill="#e6e6e6"/><circle cx="8.569" cy="8.569" r="8.569" transform="translate(872.444 528.372)" fill="#e6e6e6"/><circle cx="8.569" cy="8.569" r="8.569" transform="translate(915.821 528.372)" fill="#e6e6e6"/><circle cx="8.569" cy="8.569" r="8.569" transform="translate(959.199 528.372)" fill="#e6e6e6"/><circle cx="8.569" cy="8.569" r="8.569" transform="translate(568.805 572.294)" fill="#e6e6e6"/><circle cx="8.569" cy="8.569" r="8.569" transform="translate(612.182 572.294)" fill="#e6e6e6"/><circle cx="8.569" cy="8.569" r="8.569" transform="translate(655.559 572.294)" fill="#e6e6e6"/><circle cx="8.569" cy="8.569" r="8.569" transform="translate(698.936 572.294)" fill="#e6e6e6"/><circle cx="8.569" cy="8.569" r="8.569" transform="translate(742.313 572.294)" fill="#e6e6e6"/><circle cx="8.569" cy="8.569" r="8.569" transform="translate(785.69 572.294)" fill="#e6e6e6"/><circle cx="8.569" cy="8.569" r="8.569" transform="translate(829.067 572.294)" fill="#e6e6e6"/><circle cx="8.569" cy="8.569" r="8.569" transform="translate(872.444 572.294)" fill="#e6e6e6"/><circle cx="8.569" cy="8.569" r="8.569" transform="translate(915.821 572.294)" fill="#e6e6e6"/><circle cx="8.569" cy="8.569" r="8.569" transform="translate(959.199 572.294)" fill="#e6e6e6"/><path d="M675.14,193.831a10.834,10.834,0,0,1,10.834,10.834V638.02a10.834,10.834,0,0,1-10.834,10.834H364.208a10.834,10.834,0,0,1-10.834-10.834V204.664a10.834,10.834,0,0,1,10.834-10.834H675.14" transform="translate(397.257 59.753)" fill="#090814"/><path d="M362.991,634.28H671.4V203.447H362.991Z" transform="translate(399.735 62.231)" fill="#f2f2f2"/><path d="M589.167,257.643a2.167,2.167,0,0,1,2.167,2.167v4.334a2.167,2.167,0,0,1-2.167,2.167H417.992a2.167,2.167,0,0,1-2.167-2.167V259.81a2.167,2.167,0,0,1,2.167-2.167H589.167" transform="translate(413.351 76.198)" fill="#d6d6e3"/><path d="M589.167,274.009a2.167,2.167,0,0,1,2.167,2.167v4.334a2.167,2.167,0,0,1-2.167,2.167H417.992a2.167,2.167,0,0,1-2.167-2.167v-4.334a2.167,2.167,0,0,1,2.167-2.167H589.167" transform="translate(413.351 80.415)" fill="#d6d6e3"/><path d="M589.167,290.376a2.167,2.167,0,0,1,2.167,2.167v4.334a2.167,2.167,0,0,1-2.167,2.167H417.992a2.167,2.167,0,0,1-2.167-2.167v-4.334a2.167,2.167,0,0,1,2.167-2.167H589.167" transform="translate(413.351 84.633)" fill="#6c63ff"/><path d="M589.167,307.1a2.167,2.167,0,0,1,2.167,2.167V313.6a2.167,2.167,0,0,1-2.167,2.167H417.992a2.167,2.167,0,0,1-2.167-2.167v-4.334a2.167,2.167,0,0,1,2.167-2.167H589.167" transform="translate(413.351 88.943)" fill="#d6d6e3"/><path d="M589.167,323.467a2.167,2.167,0,0,1,2.167,2.167v4.334a2.167,2.167,0,0,1-2.167,2.167H417.992a2.167,2.167,0,0,1-2.167-2.167v-4.334a2.167,2.167,0,0,1,2.167-2.167H589.167" transform="translate(413.351 93.161)" fill="#d6d6e3"/><path d="M589.167,339.834A2.167,2.167,0,0,1,591.334,342v4.334a2.167,2.167,0,0,1-2.167,2.167H417.992a2.167,2.167,0,0,1-2.167-2.167V342a2.167,2.167,0,0,1,2.167-2.167H589.167" transform="translate(413.351 97.379)" fill="#d6d6e3"/><path d="M418.933,394.89a2.518,2.518,0,0,0-2.515,2.515V514.266a2.518,2.518,0,0,0,2.515,2.515h168.7a2.518,2.518,0,0,0,2.515-2.515V397.405a2.518,2.518,0,0,0-2.515-2.515Z" transform="translate(413.503 111.567)" fill="#6c63ff"/><path d="M277.6,191.066l-1.771-.47L314.479,45.221H538.634v1.832H315.886Z" transform="translate(639.89 188.653)" fill="#3f3d56"/><path d="M712.093,202.06a19.231,19.231,0,1,1,19.232-19.231A19.231,19.231,0,0,1,712.093,202.06Zm0-36.631a17.4,17.4,0,1,0,17.4,17.4,17.4,17.4,0,0,0-17.4-17.4Z" transform="translate(484.745 51.961)" fill="#3f3d56"/><circle cx="7.326" cy="7.326" r="7.326" transform="translate(1189.512 227.463)" fill="#6c63ff"/><path d="M326.02,356.941l1.77.473-38.922,145.3-224.155-.429,0-1.832,222.746.428Z" transform="translate(585.482 268.985)" fill="#3f3d56"/><path d="M262.933,589.4a19.232,19.232,0,1,1-19.268,19.195A19.232,19.232,0,0,1,262.933,589.4Zm-.07,36.631A17.4,17.4,0,1,0,245.5,608.594,17.4,17.4,0,0,0,262.863,626.027Z" transform="translate(368.984 161.693)" fill="#3f3d56"/><circle cx="7.326" cy="7.326" r="7.326" transform="translate(624.553 762.994)" fill="#6c63ff"/><path d="M627.722,627.83H604.3l5.133-84.128,34.162,1.846Z" transform="translate(700.521 317.115)" fill="#ed9da0"/><path d="M898.8,468.515l-19.845,5.1a10.386,10.386,0,0,1-12.965-9.659h0a10.386,10.386,0,0,1,10.713-10.78l17.48.564,33.683-12.265-31.836-23.743,3.693-33.238,62.044,49.81a10.307,10.307,0,0,1,3.828,7.3h0a10.307,10.307,0,0,1-7.557,10.675C943.5,464.149,922.317,467.783,898.8,468.515Z" transform="translate(505.34 108.889)" fill="#ed9da0"/><path d="M28.216,64.369a32.319,32.319,0,1,1,25-7.414c2.26,7.4,9.244,12.772,18.8,19.677L37.663,84.04C38.693,72.926,34.146,70.8,28.216,64.369Z" transform="translate(1326.581 388.134)" fill="#ed9da0"/><path d="M105.714,414.087,86.327,259.9,70.633,413.163,0,409.932c21.244-99.343,36.094-193.717,32.48-280.656l-.166-.018-5.539-24C14.5,86.718,19.858,69.74,34.163,53.548l.829.53,6.557-15.3a21.377,21.377,0,0,1,8.808-20.473l11.5-8.15L96.946,0l1.573.08a19.2,19.2,0,0,1,18.189,17.707c6.243,18.662,7.4,36.814,1.927,54.3l.469-.074C110.694,92.47,102.869,112.6,105.914,132l.264.023c25.031,26.394,37.461,68.527,44.779,118.638s13.21,108.21,14.308,166.65Z" transform="translate(1292.42 456.457)" fill="#d6d6e3"/><path d="M834.464,559.928a1.865,1.865,0,0,1,1.865,1.865V636.4a1.865,1.865,0,0,1-1.865,1.865h-53.53a1.865,1.865,0,0,1-1.865-1.865V561.794a1.865,1.865,0,0,1,1.865-1.865h53.53" transform="translate(482.943 154.099)" fill="#6c63ff"/><path d="M833.239,580.77l1.808,31.334a13.607,13.607,0,0,1-15.564,14.246h0c-7.961-1.171-8.142-8.956-6.19-16.762l7.435-29.741c18.24-65.4,23.164-129.589,22.241-192.193a15.718,15.718,0,0,1,16.141-15.99h0a15.71,15.71,0,0,1,15.245,16.259C871.773,461.435,861.05,528.193,833.239,580.77Z" transform="translate(491.496 105.58)" fill="#ed9da0"/><g transform="translate(1325.679 371.589)"><path d="M314.368,342.443l6.4-7.447c-.533,39.211-33.994,73.449-33.994,73.449l75.032-8.235,1.9-10.4,3.92,8.565,9.161-2.554,2.636-6.342,5.653,3.387-11.6-50.423c-11.456-48.1-46.389-41.047-46.389-41.047-47.983-.228-40.309,33.6-40.309,33.6Z" transform="translate(-286.324 -301.034)" fill="#090814"/></g><path d="M219.158,612.978a7.592,7.592,0,0,0,3.185-5.335c.147-2.211-.959-4.583-3.287-7.049-.055-.711-.779-9.506-2.388-11.082.135-.471.954-3.586-.389-5.619a3.908,3.908,0,0,0-3.034-1.655l-.06-.006-.03.052c-.039.068-3.956,6.874-9.849,7.471-3.378.347-6.76-1.4-10.053-5.167-.116-.279-1.048-4.873-1.649-7.914l-.024-.122L159.473,593.43l-18.767,5.194a5.463,5.463,0,0,0-.909,10.189l9.1,4.373a28.46,28.46,0,0,0,12.257,2.793H210.5a13.781,13.781,0,0,0,8.662-3Z" transform="translate(1114.623 355.912)" fill="#090814"/></g></svg>