<svg xmlns="http://www.w3.org/2000/svg" width="800" height="540.185" viewBox="0 0 800 540.185" xmlns:xlink="http://www.w3.org/1999/xlink" role="img" artist="Katerina Limpitsouni" source="https://undraw.co/"><g transform="translate(-558.37 -161)"><path d="M63.7,517.932l16.715,2.456,18.1-50.1L78.811,459.631Z" transform="translate(530.351 164.624)" fill="#ed9da0"/><path d="M120.94,525.294h0a14.506,14.506,0,0,1,.1,4.842h0a5.734,5.734,0,0,1-6.507,4.839l-51.766-7.611a3.912,3.912,0,0,1-3.3-4.439l.317-2.155s-1.609-6.854,4.838-14.063c0,0,7.25,8.352,18.481,0l3.726-4.942L103.8,519.123l11.375,3.129c2.489.685,4.789.655,5.77,3.042Z" transform="translate(530.438 165.303)" fill="#090814"/><path d="M94.084,524.152l16.98,0,8.077-65.5H94.08Z" transform="translate(631.183 166.01)" fill="#ed9da0"/><path d="M152.2,524.489h0a14.579,14.579,0,0,1,.808,4.8h0a5.763,5.763,0,0,1-5.763,5.763H94.657a3.932,3.932,0,0,1-3.932-3.932v-2.189s-2.6-6.58,2.754-14.69c0,0,6.656,6.35,16.6-3.6l2.933-5.314,21.232,15.528,11.768,1.448c2.575.317,4.857-.049,6.182,2.181Z" transform="translate(631.244 165.288)" fill="#090814"/><path d="M0,1.7S16.173-9.094,20.892-1.934s2.981,32.8,2.981,32.8L0,25.149Z" transform="translate(684.188 313.845)" fill="#ed9da0"/><path d="M385.163,438.744s-5.222,62.783-6.343,76.237a95.675,95.675,0,0,1-5.605,24.664,23.192,23.192,0,0,0-2.242,8.969s-14.356,24.116-23.387,41.766a126.687,126.687,0,0,0-11.607,34.18s22.232,4.1,25.6,2.98,7.7-25.547,45.274-86.773l26.907-56.056s15.7,50.45,19.059,56.056c0,0,5.869,82.828,8.111,88.434s30.443-1.661,30.443-1.661l-4.921-84.531-10.09-95.295-51.571-15.7Z" transform="translate(260.741 34.199)" fill="#090814"/><path d="M494.183,278.513l-28.027-16.981s-.777-10.544-8.762-11.041c-4.009-.249-10.025-.63-19.054-1.212-1.908-.123-3.2,10.316-5.382,10.174L403.372,267.3l4.484,76.236s-6.727,30.27-4.484,35.876-5.606,7.848-3.363,8.969,0,8.969,0,8.969,43.723,22.422,91.931,5.606l-4.484-14.574c1.241-3.873-1.121-33.633-7.848-53.813l3.363-7.848Z" transform="translate(245.158 78.957)" fill="#e6e6e6"/><path d="M523.063,332.75s-10.09,42.6,2.242,42.6,41.481-48.208,41.481-48.208L556.7,314.813l-18.11,25.144-.948-12.812Z" transform="translate(215.872 62.906)" fill="#ed9da0"/><circle cx="9.816" cy="9.816" r="9.816" transform="translate(770.154 372.271)" fill="#ed9da0"/><rect width="251.182" height="1.692" transform="translate(558.37 699.493)" fill="#f2f2f2"/><circle cx="23.543" cy="23.543" r="23.543" transform="translate(672.852 278.283)" fill="#ed9da0"/><path d="M440.956,215.527l-1.353-1.375c-.086-.2-9.291-20.176-1.8-32.5,3.467-5.7,9.771-8.924,18.737-9.571,14.028-1.014,23.63,2.313,28.545,9.884a8.487,8.487,0,0,1-7.153,13.074h-.189l-2.578-3.347-.15.326a5.326,5.326,0,0,1-5.587,2.882c-.427-.031-.805.338-1.109,1.127a2,2,0,0,1-1.5,1.39c-1.855.361-4.5-1.975-5.682-3.14a1.9,1.9,0,0,1-.885,1.3c-1.247.72-3.188-.22-3.745-.52-4.438.943-7.311.691-8.541-.749-.834,5.9-2.625,16.529-4.772,17.118a1.074,1.074,0,0,1-1.172-.512c-.517-.671-.979-1.006-1.268-.912-.7.222-.356,2.523-.415,4.007Z" transform="translate(235.662 99.177)" fill="#090814"/><path d="M505.256,288.891l11.184-1.817A54.6,54.6,0,0,1,532.163,315.8c3.363,17.938,4.484,21.3,4.484,21.3l-26.907,6.727L495.166,315.8Z" transform="translate(221.752 69.7)" fill="#e6e6e6"/><rect width="87.887" height="176.922" transform="translate(670.475 469.538) rotate(-85.49)" fill="#fff"/><path d="M608.762,323.449,449.977,310.923a14.107,14.107,0,0,0-15.171,12.956L428.7,401.237a14.115,14.115,0,0,0,12.958,15.178l158.785,12.527a14.107,14.107,0,0,0,15.171-12.956l5.8-73.526.117-1.5.185-2.338A14.107,14.107,0,0,0,608.762,323.449Zm-4.689,67.306L603.067,403.5a8.544,8.544,0,0,1-9.168,7.823l-21.243-1.674a8.544,8.544,0,0,1-7.823-9.168l1.006-12.745a8.547,8.547,0,0,1,9.168-7.823l21.236,1.676a8.554,8.554,0,0,1,7.831,9.166ZM438.61,384.11A7.812,7.812,0,0,1,447,376.943l28.32,2.235a7.809,7.809,0,1,1-1.215,15.571l-.015,0-28.32-2.235a7.8,7.8,0,0,1-7.163-8.409Zm6.063-63.035-.194-.792.815-.075c.318-.034,7.852-.711,13.716,3.478s7.662,11.538,7.74,11.846l.186.794-.813.082a21.464,21.464,0,0,1-3.465-.023,20.491,20.491,0,0,1-10.253-3.463C446.542,328.733,444.744,321.384,444.673,321.075Z" transform="translate(238.046 63.869)" fill="#6c63ff"/><path d="M625.567,427.621l-9.2-.726a2.486,2.486,0,0,0-.391,4.956l9.2.726a2.486,2.486,0,0,0,.391-4.956Z" transform="translate(192.728 35.456)" fill="#6c63ff"/><path d="M648.071,429.4l-9.2-.726a2.486,2.486,0,0,0-.391,4.956l9.2.726a2.486,2.486,0,1,0,.391-4.956Z" transform="translate(187.216 35.021)" fill="#6c63ff"/><path d="M626.233,419.182l-9.2-.726a2.486,2.486,0,1,0-.391,4.956l9.2.726a2.486,2.486,0,1,0,.391-4.956Z" transform="translate(192.565 37.523)" fill="#6c63ff"/><path d="M648.737,420.957l-9.2-.726a2.486,2.486,0,0,0-.391,4.956l9.2.726a2.486,2.486,0,1,0,.391-4.956Z" transform="translate(187.053 37.088)" fill="#6c63ff"/><path d="M626.9,410.743l-9.2-.726a2.486,2.486,0,0,0-.391,4.956l9.2.726a2.486,2.486,0,1,0,.391-4.956Z" transform="translate(192.402 39.59)" fill="#6c63ff"/><path d="M649.4,412.518l-9.2-.726a2.486,2.486,0,0,0-.391,4.956l9.2.726a2.486,2.486,0,0,0,.391-4.956Z" transform="translate(186.89 39.155)" fill="#6c63ff"/><rect width="1.511" height="186.967" transform="translate(670.372 413.662) rotate(-85.509)" fill="#fff"/><path d="M511.717,191.99l-.117,1.5-6.487-.509L436,187.555l.125-1.5,69.107,5.431Z" transform="translate(347.862 212.836)" fill="#3f3d56"/><path d="M381.063,323.75s-10.09,42.6,2.242,42.6,41.481-48.208,41.481-48.208L414.7,305.813l-9.726,13.5-8.385,11.641-.948-12.812Z" transform="translate(250.651 65.11)" fill="#ed9da0"/><circle cx="9.816" cy="9.816" r="9.816" transform="translate(662.933 365.475)" fill="#ed9da0"/><path d="M406.32,279.874l-6.727-6.727s-13.453,7.848-14.574,15.7-6.727,32.512-6.727,32.512l20.741,1.682,6.727-10.09Z" transform="translate(250.377 73.111)" fill="#e6e6e6"/><g transform="translate(806.41 179.122)"><rect width="241.624" height="48.325" rx="16" fill="#f2f2f2"/><path d="M12.081,2.265a9.816,9.816,0,0,0-9.816,9.816V36.244a9.816,9.816,0,0,0,9.816,9.816H229.543a9.816,9.816,0,0,0,9.816-9.816V12.081a9.816,9.816,0,0,0-9.816-9.816H12.081m0-2.265H229.543a12.081,12.081,0,0,1,12.081,12.081V36.244a12.081,12.081,0,0,1-12.081,12.081H12.081A12.081,12.081,0,0,1,0,36.244V12.081A12.081,12.081,0,0,1,12.081,0Z" fill="#090814"/><g transform="translate(18.017 8.349)"><path d="M6.325,0H25.3a6.325,6.325,0,0,1,6.325,6.325V25.3A6.325,6.325,0,0,1,25.3,31.627H6.325A6.325,6.325,0,0,1,0,25.3V6.325A6.325,6.325,0,0,1,6.325,0Z" transform="translate(0 0)" fill="#6c63ff"/><path d="M11.017-78.3v-2.049A6.233,6.233,0,0,1,7.1-81.812a4.887,4.887,0,0,1-1.538-3.624h2.78a2.457,2.457,0,0,0,.831,1.785,3.432,3.432,0,0,0,1.845.766v-4.9l-.846-.234A6.871,6.871,0,0,1,7.1-89.622,3.775,3.775,0,0,1,6-92.448a4.436,4.436,0,0,1,.65-2.4A4.814,4.814,0,0,1,8.43-96.52a6.467,6.467,0,0,1,2.588-.766V-99.38h1.266V-97.3a6.239,6.239,0,0,1,2.663.731A4.8,4.8,0,0,1,16.724-94.9a4.518,4.518,0,0,1,.68,2.328H14.669a2.23,2.23,0,0,0-.729-1.5,3,3,0,0,0-1.657-.7v4.622l.707.187a10.193,10.193,0,0,1,2.221.859A4.885,4.885,0,0,1,16.943-87.6a4.016,4.016,0,0,1,.669,2.383,4.466,4.466,0,0,1-1.4,3.381,6.041,6.041,0,0,1-3.926,1.486V-78.3Zm1.266-4.6a3.22,3.22,0,0,0,1.82-.775,2.033,2.033,0,0,0,.692-1.563,1.6,1.6,0,0,0-.686-1.392,6.019,6.019,0,0,0-1.824-.8Zm-1.266-7.591v-4.268a2.77,2.77,0,0,0-1.6.731,1.9,1.9,0,0,0-.575,1.4,1.61,1.61,0,0,0,.669,1.392,5.323,5.323,0,0,0,1.506.749Z" transform="translate(4.225 104.653)" fill="#fff"/></g><path d="M5.271,0h94.883a5.271,5.271,0,0,1,0,10.542H5.271A5.271,5.271,0,0,1,5.271,0Z" transform="translate(60.187 10.985)" fill="#6c63ff"/><path d="M5.271,0H57.984a5.271,5.271,0,0,1,0,10.542H5.271A5.271,5.271,0,0,1,5.271,0Z" transform="translate(60.187 26.798)" fill="#6c63ff"/><ellipse cx="8.424" cy="8.424" rx="8.424" ry="8.424" transform="translate(230.818 38.851)" fill="#6c63ff"/><path d="M299.314,365.506a1.69,1.69,0,0,1-1.352-.68l-4.145-5.526a1.69,1.69,0,0,1,2.7-2.028l2.711,3.615,6.964-10.446a1.69,1.69,0,0,1,2.813,1.875l-8.288,12.436a1.691,1.691,0,0,1-1.359.755Z" transform="translate(-85.53 -333.438)" fill="#090814"/></g><g transform="translate(953.649 262.74)"><rect width="241.624" height="48.325" rx="16" transform="translate(0 0)" fill="#f2f2f2"/><path d="M12.081,2.265a9.816,9.816,0,0,0-9.816,9.816V36.244a9.816,9.816,0,0,0,9.816,9.816H229.543a9.816,9.816,0,0,0,9.816-9.816V12.081a9.816,9.816,0,0,0-9.816-9.816H12.081m0-2.265H229.543a12.081,12.081,0,0,1,12.081,12.081V36.244a12.081,12.081,0,0,1-12.081,12.081H12.081A12.081,12.081,0,0,1,0,36.244V12.081A12.081,12.081,0,0,1,12.081,0Z" transform="translate(0 0)" fill="#090814"/><g transform="translate(18.017 8.349)"><path d="M6.325,0H25.3a6.325,6.325,0,0,1,6.325,6.325V25.3A6.325,6.325,0,0,1,25.3,31.627H6.325A6.325,6.325,0,0,1,0,25.3V6.325A6.325,6.325,0,0,1,6.325,0Z" transform="translate(0 0)" fill="#6c63ff"/><path d="M11.017-78.3v-2.049A6.233,6.233,0,0,1,7.1-81.812a4.887,4.887,0,0,1-1.538-3.624h2.78a2.457,2.457,0,0,0,.831,1.785,3.432,3.432,0,0,0,1.845.766v-4.9l-.846-.234A6.871,6.871,0,0,1,7.1-89.622,3.775,3.775,0,0,1,6-92.448a4.436,4.436,0,0,1,.65-2.4A4.814,4.814,0,0,1,8.43-96.52a6.467,6.467,0,0,1,2.588-.766V-99.38h1.266V-97.3a6.239,6.239,0,0,1,2.663.731A4.8,4.8,0,0,1,16.724-94.9a4.518,4.518,0,0,1,.68,2.328H14.669a2.23,2.23,0,0,0-.729-1.5,3,3,0,0,0-1.657-.7v4.622l.707.187a10.193,10.193,0,0,1,2.221.859A4.885,4.885,0,0,1,16.943-87.6a4.016,4.016,0,0,1,.669,2.383,4.466,4.466,0,0,1-1.4,3.381,6.041,6.041,0,0,1-3.926,1.486V-78.3Zm1.266-4.6a3.22,3.22,0,0,0,1.82-.775,2.033,2.033,0,0,0,.692-1.563,1.6,1.6,0,0,0-.686-1.392,6.019,6.019,0,0,0-1.824-.8Zm-1.266-7.591v-4.268a2.77,2.77,0,0,0-1.6.731,1.9,1.9,0,0,0-.575,1.4,1.61,1.61,0,0,0,.669,1.392,5.323,5.323,0,0,0,1.506.749Z" transform="translate(4.225 104.653)" fill="#fff"/></g><path d="M5.271,0h94.883a5.271,5.271,0,0,1,0,10.542H5.271A5.271,5.271,0,0,1,5.271,0Z" transform="translate(60.187 10.985)" fill="#6c63ff"/><path d="M5.271,0H57.984a5.271,5.271,0,0,1,0,10.542H5.271A5.271,5.271,0,0,1,5.271,0Z" transform="translate(60.187 26.798)" fill="#6c63ff"/><ellipse cx="8.424" cy="8.424" rx="8.424" ry="8.424" transform="translate(230.818 38.851)" fill="#6c63ff"/><path d="M299.314,365.506a1.69,1.69,0,0,1-1.352-.68l-4.145-5.526a1.69,1.69,0,0,1,2.7-2.028l2.711,3.615,6.964-10.446a1.69,1.69,0,0,1,2.813,1.875l-8.288,12.436a1.691,1.691,0,0,1-1.359.755Z" transform="translate(-85.53 -333.438)" fill="#090814"/></g><g transform="translate(1110.705 161)"><rect width="241.624" height="48.325" rx="16" transform="translate(0)" fill="#f2f2f2"/><path d="M12.081,2.265a9.816,9.816,0,0,0-9.816,9.816V36.244a9.816,9.816,0,0,0,9.816,9.816H229.543a9.816,9.816,0,0,0,9.816-9.816V12.081a9.816,9.816,0,0,0-9.816-9.816H12.081m0-2.265H229.543a12.081,12.081,0,0,1,12.081,12.081V36.244a12.081,12.081,0,0,1-12.081,12.081H12.081A12.081,12.081,0,0,1,0,36.244V12.081A12.081,12.081,0,0,1,12.081,0Z" transform="translate(0)" fill="#090814"/><g transform="translate(18.017 8.349)"><path d="M6.325,0H25.3a6.325,6.325,0,0,1,6.325,6.325V25.3A6.325,6.325,0,0,1,25.3,31.627H6.325A6.325,6.325,0,0,1,0,25.3V6.325A6.325,6.325,0,0,1,6.325,0Z" transform="translate(0 0)" fill="#6c63ff"/><path d="M11.017-78.3v-2.049A6.233,6.233,0,0,1,7.1-81.812a4.887,4.887,0,0,1-1.538-3.624h2.78a2.457,2.457,0,0,0,.831,1.785,3.432,3.432,0,0,0,1.845.766v-4.9l-.846-.234A6.871,6.871,0,0,1,7.1-89.622,3.775,3.775,0,0,1,6-92.448a4.436,4.436,0,0,1,.65-2.4A4.814,4.814,0,0,1,8.43-96.52a6.467,6.467,0,0,1,2.588-.766V-99.38h1.266V-97.3a6.239,6.239,0,0,1,2.663.731A4.8,4.8,0,0,1,16.724-94.9a4.518,4.518,0,0,1,.68,2.328H14.669a2.23,2.23,0,0,0-.729-1.5,3,3,0,0,0-1.657-.7v4.622l.707.187a10.193,10.193,0,0,1,2.221.859A4.885,4.885,0,0,1,16.943-87.6a4.016,4.016,0,0,1,.669,2.383,4.466,4.466,0,0,1-1.4,3.381,6.041,6.041,0,0,1-3.926,1.486V-78.3Zm1.266-4.6a3.22,3.22,0,0,0,1.82-.775,2.033,2.033,0,0,0,.692-1.563,1.6,1.6,0,0,0-.686-1.392,6.019,6.019,0,0,0-1.824-.8Zm-1.266-7.591v-4.268a2.77,2.77,0,0,0-1.6.731,1.9,1.9,0,0,0-.575,1.4,1.61,1.61,0,0,0,.669,1.392,5.323,5.323,0,0,0,1.506.749Z" transform="translate(4.225 104.653)" fill="#fff"/></g><path d="M5.271,0h94.883a5.271,5.271,0,0,1,0,10.542H5.271A5.271,5.271,0,0,1,5.271,0Z" transform="translate(60.187 10.985)" fill="#6c63ff"/><path d="M5.271,0H57.984a5.271,5.271,0,0,1,0,10.542H5.271A5.271,5.271,0,0,1,5.271,0Z" transform="translate(60.187 26.798)" fill="#6c63ff"/><ellipse cx="8.424" cy="8.424" rx="8.424" ry="8.424" transform="translate(230.818 38.851)" fill="#6c63ff"/><path d="M299.314,365.506a1.69,1.69,0,0,1-1.352-.68l-4.145-5.526a1.69,1.69,0,0,1,2.7-2.028l2.711,3.615,6.964-10.446a1.69,1.69,0,0,1,2.813,1.875l-8.288,12.436a1.691,1.691,0,0,1-1.359.755Z" transform="translate(-85.53 -333.438)" fill="#090814"/></g></g></svg>