<svg xmlns="http://www.w3.org/2000/svg" width="800" height="596.285" viewBox="0 0 800 596.285" xmlns:xlink="http://www.w3.org/1999/xlink" role="img" artist="Katerina Limpitsouni" source="https://undraw.co/"><g transform="translate(-559.129 -281.456)"><g transform="translate(559.129 484.597)"><rect width="382.842" height="10.128" transform="translate(365.624 390.944) rotate(-90)" fill="#d6d6e3"/><path d="M460.621,136.271H46.382V146.4H248.944V527.216h10.128V146.4H460.621Z" transform="translate(-46.382 -136.271)" fill="#d6d6e3"/></g><path d="M1.293,5.16,43.308,0l3.239,44.663H-6.981Z" transform="translate(1248.589 381.466)" fill="#ed9da0"/><g transform="translate(577.222 674.389)"><path d="M137.855,317.621c-1.259-2.122-6.7.15-7.7-1.776s4.061-4.843,6.952-11.523c.521-1.2,3.806-8.8,1.374-11.138-4.609-4.44-25.7,13.882-33.08,7.886-1.62-1.316-2.751-3.943-7.654-8.208-1.95-1.7-3.13-2.463-4.271-2.178-1.619.4-1.748,2.572-3.484,6.833-2.6,6.391-4.145,6.005-5.662,11.1-1.126,3.785-.869,5.986-2.195,6.415-1.876.607-3.6-3.408-5.979-3.049-2.426.367-3.892,5.042-4.355,8.542-.869,6.568,1.543,10.9,2.88,15.46,1.453,4.953,2.315,12.485-1.04,23.147L40.427,452.7c7.331-19.2,28.56-71.83,37.48-91.388,2.575-5.646,5.418-11.373,11.256-13.633,5.621-2.176,13.34-.877,23.181-3.248,1.149-.277,4.339-1.088,4.74-2.964.332-1.551-1.544-2.417-1.256-3.869.387-1.948,4.076-1.972,8.609-4.22a26.826,26.826,0,0,0,6.9-5.091c.516-.489,8.192-7.844,6.516-10.669Z" transform="translate(18.867 -250.32)" fill="#f2f2f2"/><path d="M26.72,344.216c-1.4.005-1.86,3.333-3.095,3.269s-1.205-3.391-3.65-6.737c-.441-.6-3.219-4.406-5.07-3.888-3.509.981-.6,16.619-5.674,18.511-1.113.415-2.729.213-6.237,1.388-1.4.468-2.112.825-2.3,1.468-.269.911.758,1.6,2.349,3.682,2.385,3.122,1.752,3.767,3.816,5.983,1.533,1.645,2.687,2.154,2.515,2.928-.243,1.1-2.712.785-3.222,2.055-.52,1.3,1.351,3.365,2.936,4.6,2.973,2.322,5.8,2.388,8.419,3.047,2.85.716,6.8,2.466,11.061,7.189l36.341,43.3c-7.308-9.138-27.014-34.743-34.04-44.764-2.028-2.893-4.018-5.941-3.443-9.458.554-3.387,3.419-6.8,5.094-12.314.2-.644.718-2.443-.087-3.182-.665-.61-1.632.061-2.261-.5-.845-.752.208-2.57.413-5.443a15.275,15.275,0,0,0-.508-4.856c-.091-.394-1.486-6.284-3.356-6.276h0Z" transform="translate(-0.651 -227.657)" fill="#f2f2f2"/><path d="M37.217,356.816l-.846-7.555.387-.573A13.979,13.979,0,0,0,39.47,341c0-.39-.016-.781-.035-1.178A11.817,11.817,0,0,1,40.292,334c.573-1.273,2.182-4.221,4.6-3.856a2.739,2.739,0,0,1,1.518.741c.055-.088.111-.175.171-.27a8.312,8.312,0,0,1,1.924-2.116,9.72,9.72,0,0,0,1.612-1.631c.314-.39.558-.733.764-1.021a3.548,3.548,0,0,1,2.884-1.893c1.539.073,2.346,1.346,2.88,2.189a18.207,18.207,0,0,1,1.673,3.305,5.716,5.716,0,0,0,.283.649c.5.73,4.529.047,6.048-.2,3.413-.569,6.366-1.062,7.583,1.091.872,1.539.224,3.575-1.983,6.213a12.335,12.335,0,0,1-2.068,1.934,2.529,2.529,0,0,1,1.215,1.587h0c.46,1.831-1.114,3.666-4.677,5.461a12.575,12.575,0,0,1-3.745,1.335,14.711,14.711,0,0,1-2.1.186,2.487,2.487,0,0,1-.308,1.12c-.626,1.149-1.928,1.7-3.891,1.565a30.507,30.507,0,0,1-5.507-.886,13.355,13.355,0,0,0-3.477-.518c-1.718.139-3.043,1.514-4.6,3.3l-3.88,4.535h0Z" transform="translate(16.876 -233.967)" fill="#f2f2f2"/><path d="M51.437,325.095l-7.093,2.735-.652-.229a13.979,13.979,0,0,0-8.127-.673c-.378.1-.751.214-1.131.332a11.818,11.818,0,0,1-5.846.647c-1.377-.231-4.636-1.04-4.9-3.472a2.739,2.739,0,0,1,.331-1.656l-.3-.1a8.312,8.312,0,0,1-2.535-1.325,9.721,9.721,0,0,0-1.986-1.146c-.457-.2-.851-.354-1.182-.48a3.547,3.547,0,0,1-2.563-2.309c-.32-1.508.707-2.61,1.387-3.341a18.209,18.209,0,0,1,2.773-2.456,5.722,5.722,0,0,0,.556-.438c.58-.665-1.1-4.393-1.728-5.8-1.416-3.157-2.642-5.888-.868-7.611,1.268-1.234,3.4-1.124,6.512.342a12.337,12.337,0,0,1,2.395,1.51,2.528,2.528,0,0,1,1.227-1.578h0c1.655-.909,3.829.148,6.469,3.139a12.575,12.575,0,0,1,2.241,3.284,14.712,14.712,0,0,1,.713,1.984,2.486,2.486,0,0,1,1.162.014c1.27.314,2.13,1.435,2.5,3.366a30.505,30.505,0,0,1,.539,5.552,13.352,13.352,0,0,0,.381,3.494c.57,1.627,2.236,2.559,4.356,3.61l5.37,2.6Z" transform="translate(6.582 -247.229)" fill="#f2f2f2"/><path d="M37.217,311.709l-.846-7.555.387-.573a13.978,13.978,0,0,0,2.712-7.69c0-.39-.016-.781-.035-1.178a11.817,11.817,0,0,1,.857-5.819c.573-1.273,2.182-4.221,4.6-3.856a2.739,2.739,0,0,1,1.518.741c.055-.088.111-.175.171-.27a8.313,8.313,0,0,1,1.924-2.116,9.719,9.719,0,0,0,1.612-1.631c.314-.39.558-.733.764-1.021a3.548,3.548,0,0,1,2.884-1.893c1.539.073,2.346,1.346,2.88,2.189a18.209,18.209,0,0,1,1.673,3.305,5.716,5.716,0,0,0,.283.649c.5.73,4.529.047,6.048-.2,3.413-.569,6.366-1.062,7.583,1.091.872,1.539.224,3.575-1.983,6.213a12.336,12.336,0,0,1-2.068,1.933,2.529,2.529,0,0,1,1.215,1.587h0c.46,1.831-1.114,3.666-4.677,5.461a12.575,12.575,0,0,1-3.745,1.335,14.711,14.711,0,0,1-2.1.186,2.486,2.486,0,0,1-.308,1.12c-.626,1.149-1.928,1.7-3.891,1.565a30.5,30.5,0,0,1-5.507-.886,13.357,13.357,0,0,0-3.477-.518c-1.718.139-3.043,1.514-4.6,3.3l-3.88,4.534h0Z" transform="translate(16.876 -256.101)" fill="#f2f2f2"/><path d="M49.216,458.06l-1.583-.992-.383-1.828.383,1.828-1.846.212c-.029-.171-.13-.566-.281-1.182a264.2,264.2,0,0,1-5.447-29.848,304.329,304.329,0,0,1-2.468-34.54c-.171-11.637.379-20.448.821-27.528.334-5.341.739-10.426,1.136-15.38,1.058-13.235,2.056-25.737,1.313-39.578A36.669,36.669,0,0,0,36.6,292.857a34.751,34.751,0,0,0-8.925-10.47L30,279.461a38.547,38.547,0,0,1,9.874,11.6,40.16,40.16,0,0,1,4.722,17.963c.755,14.085-.254,26.708-1.322,40.07-.394,4.936-.8,10-1.131,15.318-.438,7.015-.983,15.749-.814,27.236a300.606,300.606,0,0,0,2.435,34.117,260.02,260.02,0,0,0,5.374,29.44c.434,1.777.525,2.149.08,2.853h0Z" transform="translate(12.607 -255.8)" fill="#f2f2f2"/><path d="M27.786,296.111c-.153,0-.308,0-.465-.015-3.181-.171-6.127-2.076-8.757-5.658-1.233-1.685-1.864-3.608-3.123-7.442a46.655,46.655,0,0,1-1.72-7.716c-.378-2.7-.33-3.823.2-4.819a5.7,5.7,0,0,1,2.632-2.4,2.111,2.111,0,0,1,.146-1.1c.637-1.558,2.329-1.353,3.245-1.255a9.171,9.171,0,0,0,1.665.1,4.694,4.694,0,0,0,2.307-.777,10.387,10.387,0,0,1,3.125-1.229,11.138,11.138,0,0,1,5.877.467c4.04,1.346,6.032,4.487,8.338,8.124a28.524,28.524,0,0,1,3.079,7.026c.751,2.627.646,3.794.42,4.662-.46,1.784-1.545,2.805-4.3,5.06a50.1,50.1,0,0,1-5.563,4.261c-2.887,1.667-4.7,2.714-7.108,2.714h0Z" transform="translate(5.641 -263.589)" fill="#f2f2f2"/></g><path d="M800,398.542h0a1.206,1.206,0,0,1-1.153,1.252H0v-2.5H798.847A1.206,1.206,0,0,1,800,398.542Z" transform="translate(559.129 476.409)" fill="#f2f2f2"/><g transform="translate(1068.848 296.402)"><path d="M428.046,177.522s-46.717,5.619-38.837-31.319S441.769,41.041,441.769,41.041L467.124,55.26l-29.109,68.808,12.531,9.886-22.5,43.568Z" transform="translate(-388.313 5.193)" fill="#ed9da0"/><path d="M574.133,103.827,567.55,157.97l-164.958-.808,33.13-57.579Z" transform="translate(-381.307 33.92)" fill="#6c63ff"/><ellipse cx="31.397" cy="20.256" rx="31.397" ry="20.256" transform="matrix(0.582, -0.813, 0.813, 0.582, 43.582, 51.055)" fill="#ed9da0"/></g><rect width="234.972" height="10.128" transform="translate(1245.813 875.541) rotate(-90)" fill="#d6d6e3"/><rect width="234.972" height="10.128" transform="translate(1197.199 875.541) rotate(-90)" fill="#d6d6e3"/><rect width="234.972" height="10.128" transform="translate(1087.815 875.541) rotate(-90)" fill="#d6d6e3"/><rect width="234.972" height="10.128" transform="translate(1049.057 875.541) rotate(-90)" fill="#d6d6e3"/><path d="M577.643,237.5H382.059l-37.519,53.218,194.616,11.6Z" transform="translate(659.055 398.001)" fill="#3f3d56"/><g transform="translate(706.091 366.366)"><path d="M317.134,133.868l1.022-44.4L182.367,99.917,181.672,130Z" transform="translate(-144.793 -51.799)" fill="#ed9da0"/><path d="M240.605,110.316l-6.494,15.625-9.327.3s10.921,3.344,13.954,23.189l-8.962,2.686s-8.607,8.03-24.7,7.251l-43.137-3.608-.166-15.038,29.814-3.445s6.643-4.37-26.243-22.339c0,0-10.894-6.662-1.1-39.558a10.914,10.914,0,0,1,10.131-7.871c2.6-.056,5.042.879,6.016,4.112,2.478,8.23-.029,16.434,6.782,21.571s53.423,17.128,53.423,17.128Z" transform="translate(-160.166 -67.503)" fill="#090814"/></g><path d="M621.549,282.548S580.82,351.82,488.66,339.336a71.215,71.215,0,0,1-52.22-35.219c-21.247-37.127-53.511-102.136-43.051-138.947L237.517,135.421,225.236,97.566,393.928,75.653a37.141,37.141,0,0,1,37.015,18.375l82.174,143.508,24.5,2.675,83.935,42.337Z" transform="translate(600.749 310.855)" fill="#090814"/><path d="M301.952,138.647l-2.219-38.54L182.8,118.653l1.5,26.116Z" transform="translate(579.69 330.579)" fill="#ed9da0"/><path d="M301.952,138.647l-2.219-38.54L182.8,118.653l1.5,26.116Z" transform="translate(579.69 330.581)" fill="#090814" opacity="0.046"/><path d="M241.342,123.042l-5.216,16.1-9.273,1.047s11.154,2.455,15.775,21.991l-8.717,3.4s-7.933,8.7-24.032,9.214l-43.287-.126-1.375-14.976,29.44-5.833s6.27-4.891-27.955-20.155c0,0-11.395-5.764-4.275-39.342a10.914,10.914,0,0,1,9.465-8.66c2.59-.266,5.1.47,6.327,3.615,3.132,8,1.293,16.383,8.5,20.956s54.628,12.775,54.628,12.775Z" transform="translate(545.867 311.833)" fill="#090814"/><path d="M635.306,268.2s-35.024,72.324-127.89,67.3a71.215,71.215,0,0,1-54.884-30.9c-24.165-35.3-61.555-97.5-54.09-135.033l-157.76-17.113-15.287-36.744L391.777,80.293a37.14,37.14,0,0,1,38.373,15.338L523.6,232.062l24.633.7L635.306,268.2Z" transform="translate(600.59 320.456)" fill="#090814"/><path d="M431.421,1.206l-8.1,6.077,42.538,58.743,8.1-2.026Z" transform="translate(697.712 282.048)" fill="#3f3d56"/><path d="M539.289,89.379l46.589-2.026,20.256,91.153s-73.935,148.88-124.575,142.8V301.056c0-8.1-42.538-28.359-42.538-28.359l-10.128-34.436,30.384-46.589s12.154-36.461,52.666-56.717l27.346-45.576Z" transform="translate(700.448 324.321)" fill="#6c63ff"/><circle cx="54.692" cy="54.692" r="54.692" transform="translate(1209.353 296.214)" fill="#ed9da0"/><path d="M408.978,93.468l-43.27,17.209,84.9,112.431,29.829-22.945Z" transform="translate(655.998 312.129)" fill="#e6e6e6"/><g transform="translate(1072.807 453.2)"><path d="M530.448,249.537S516.269,294.4,485.885,271.97s-74.063-91.3-74.063-91.3l23.422-17.218,50.64,54.931,14.179-7.329Z" transform="translate(-380.737 -91.539)" fill="#ed9da0"/><path d="M528.35,115.21l46.589,28.359-68.871,149.9L461.5,232.7Z" transform="translate(-356.357 -115.21)" fill="#6c63ff"/><ellipse cx="20.256" cy="31.397" rx="20.256" ry="31.397" transform="translate(0 45.733) rotate(-30)" fill="#ed9da0"/></g><path d="M611.919,175.477c12.085-39.62,33.342-55.218,33.342-55.218s9.392,2.489,11.594,3.757c12.054,6.94,15.682,22.736,8.618,34.718-18.007,30.541-55.111,100.515-47.382,146.893,0,0,12.154,64.82-85.076,64.82s-190.408-22.282-190.408-22.282l50.641-8.1,115.162,8.226c26.312,1.879,48.487-20.634,44.972-46.777q-.174-1.294-.414-2.618c-5.774-31.753,58.95-123.416,58.95-123.416Z" transform="translate(658.107 341.02)" fill="#d6d6e3"/><path d="M518.513,46.778a18.451,18.451,0,0,0,18.6,24.616l.316-.021h0a31.275,31.275,0,0,1,.6,38.3h0a108.272,108.272,0,0,0,6.77,43.187s5.3,31.658,14.525,38.733,22.361-10.435,22.361-10.435-.044,17.992,12.521,16.585,31.588,7.113,37.737-22.211-15.051-83.349-15.051-83.349L605.346,46A60.7,60.7,0,0,0,530.873,2.05L505.757,8.722a35.992,35.992,0,0,0-25.081,45.624h0l37.838-7.568" transform="translate(725.032 281.456)" fill="#090814"/></g></svg>