<svg xmlns="http://www.w3.org/2000/svg" width="960" height="500" viewBox="0 0 960 500" xmlns:xlink="http://www.w3.org/1999/xlink" role="img" artist="Katerina Limpitsouni" source="https://undraw.co/"><g transform="translate(-454.77 -317.185)"><path d="M707.961,25.031l29.892,8.246s13.6,1.4,2.062,40.2-19.939,113.34-58.691,120.185-69.639-81.017-69.639-81.017l96.376-87.614Z" transform="translate(388.513 315.165)" fill="#090814"/><path d="M546.544,608.818s-55.2,23.795-68.529,17.132-53.3-23.795-65.674,11.422c-9.978,28.4,48.272,30.183,71.2,29.809A19.154,19.154,0,0,0,498,660.215h0l79.475-27.126S559.87,603.108,546.544,608.818Z" transform="translate(344.739 70.751)" fill="#ed9da0"/><path d="M.931,133.249c5.359-2.144,13.739-20.892,20.037-36.861a61.865,61.865,0,1,1,68.6,24.9,52.291,52.291,0,0,0-.122,13.863l19.035.951-1.9,45.684-48.544,23.8S-8.589,137.056.931,133.249Z" transform="translate(990.291 340.667)" fill="#ed9da0"/><path d="M125.635,279.829s-3.136-43.908-8.9-68.072c-2.445,4.434-3.906,8.064-3,10.487.712,1.9.537,4.641-.136,7.675a38.559,38.559,0,0,1-23.155,27.092c-22.1,9.114-60.711,24.105-55.233,15.2C42.828,259.84,0,241.755,0,232.238s67.576-16.18,61.866-25.7,5.709-28.552,3.805-46.637S81.378,76.62,80.424,51.873c-.526-13.692,9.149-21.557,17.9-25.851,5.241-3.612,25.71-7.812,33.976-6.983C141.815,19.989,172.275,0,172.275,0c1.9,22.843,42.828,50.445,42.828,50.445l39.853-33.223s17.255-3.9,24.869-2.943,19.988,8.564,30.46,6.659,20.938,5.713,20.938,5.713,0,.134-.015.4c4.373-1.021,15.231-1.993,20.478,11.5,6.662,17.131,12.276,34.39,15.487,86.383s-4.542,118.726-2.638,121.581-2.855,20.943-6.664,20.943H317.884s4.788-20.7-9.836-32.377c3.605,23.828,15.56,44.749,15.56,44.749Z" transform="translate(826.563 457.995)" fill="#6c63ff"/><path d="M1056.542,667.524V709.4a28.014,28.014,0,0,1-27.668,28.012L147.688,748.294A16.09,16.09,0,0,1,131.4,732.206V685.912a15.948,15.948,0,0,1,15.456-15.941l884.069-27.286a24.851,24.851,0,0,1,25.618,24.839Z" transform="translate(358.228 68.89)" fill="#e6e6e6"/><path d="M1056.542,700.855v11.353a28.014,28.014,0,0,1-27.668,28.012L147.688,751.1A16.09,16.09,0,0,1,131.4,735.011v-1.49Z" transform="translate(358.228 66.085)" fill="#d6d6e3"/><path d="M809.111,523.267,697.618,508.8l-198.256,7.233,71.8,22.462Z" transform="translate(432.433 214.167)" fill="#fff"/><path d="M503.724,516.566v11.422l-108.5,24.747-10.6-2.446-1.77-.409L304.8,508Z" transform="translate(441.812 214.206)" fill="#090814"/><path d="M507.677,517v11.422l-108.5,24.747-10.6-2.446-1.77-11.831Z" transform="translate(437.859 213.772)" fill="#fff" opacity="0.223"/><path d="M477.857,681.084c1.9-.952,41.879-8.566,41.879-8.566L447.4,665.855Z" transform="translate(342.994 67.772)" fill="#090814"/><path d="M714.239,562.855l6.663,5.711-61.867,87.565s-9.518.952-6.663-3.807Z" transform="translate(333.139 72.972)" fill="#090814"/><path d="M105.828,503.016l251.03,2.376a9.128,9.128,0,0,1,8.217,5.337l67.652,148.227a9.128,9.128,0,0,1-8.619,12.912L172.2,663.154a9.128,9.128,0,0,1-7.943-5.236L97.483,516.03a9.128,9.128,0,0,1,8.345-13.014Z" transform="translate(397.584 94.506)" fill="#090814"/><path d="M792.544,608.83s-55.2,23.795-68.529,17.132-53.3-23.795-65.674,11.422c-9.978,28.4,48.272,30.183,71.2,29.809A19.155,19.155,0,0,0,744,660.227h0l72.662-11.953S805.87,603.119,792.544,608.83Z" transform="translate(332.88 70.739)" fill="#ed9da0"/><path d="M784.663,392.374s52.825,7.6,55.68,11.4-2.855,26.65-2.855,26.65l-38.072,6.663-29.3-6.318Z" transform="translate(327.437 81.664)" fill="#6c63ff"/><path d="M846.1,506.554l92.075,36.83,57.547-10.358L990.7,491.834l-.737-6-96.677-29.924-6.906,6.905Z" transform="translate(415.718 216.717)" fill="#6c63ff"/><path d="M901.724,463.616v39.856L998.4,533.4l-5.019-41.192Z" transform="translate(413.036 216.345)" opacity="0.1"/><g transform="translate(1224.928 674.159)"><path d="M904.777,661.093l6.517,2.413L989,692.286l6.039,2.236a1.272,1.272,0,0,0,1.159-.136l7.117-4.772,74.028-49.666,6.994-4.69a1.285,1.285,0,0,0-.341-2.3l-11.152-3.415-78.391-24.015-6.844-2.1a1.279,1.279,0,0,0-1.1.164l-5.392,3.633L911.28,654.263l-6.769,4.56a1.284,1.284,0,0,0,.266,2.27Z" transform="translate(-903.943 -603.375)" fill="#d6d6e3"/><path d="M1078.3,642.337l-75.246,51.175a2.77,2.77,0,0,1-2.508.312l-79.884-29.164a2.794,2.794,0,0,1-.565-4.961l72.831-47.528a2.769,2.769,0,0,1,2.334-.326l82.3,25.516a2.794,2.794,0,0,1,.739,4.975Z" transform="translate(-908.69 -608.051)" fill="#fff"/></g><g transform="translate(454.77 333.104)"><path d="M710.908,317.917H529.5a13.259,13.259,0,0,1-13.244-13.244V167.5A13.259,13.259,0,0,1,529.5,154.252h181.41A13.259,13.259,0,0,1,724.152,167.5V304.673A13.259,13.259,0,0,1,710.908,317.917Z" transform="translate(-516.254 -154.252)" fill="#fff"/><path d="M710.908,317.917H529.5a13.259,13.259,0,0,1-13.244-13.244V167.5A13.259,13.259,0,0,1,529.5,154.252h181.41A13.259,13.259,0,0,1,724.152,167.5V304.673A13.259,13.259,0,0,1,710.908,317.917ZM529.5,156.464A11.045,11.045,0,0,0,518.466,167.5V304.673A11.045,11.045,0,0,0,529.5,315.705h181.41a11.045,11.045,0,0,0,11.033-11.033V167.5a11.045,11.045,0,0,0-11.033-11.033Z" transform="translate(-516.254 -154.252)" fill="#3f3d56"/><circle cx="3.318" cy="3.318" r="3.318" transform="translate(171.405 9.953)" fill="#3f3d56"/><circle cx="3.318" cy="3.318" r="3.318" transform="translate(180.252 9.953)" fill="#3f3d56"/><circle cx="3.318" cy="3.318" r="3.318" transform="translate(189.099 9.953)" fill="#3f3d56"/><path d="M533.413,214.752a1.661,1.661,0,0,0-1.659,1.659,1.674,1.674,0,0,0,1.659,1.659H704.818a1.661,1.661,0,0,0,1.659-1.659,1.674,1.674,0,0,0-1.659-1.659Z" transform="translate(-514.614 -147.849)" fill="#e6e6e6"/><path d="M673.908,214.252v4.423H533.466a2.228,2.228,0,0,1-2.212-2.212,2.218,2.218,0,0,1,2.212-2.212Z" transform="translate(-514.666 -147.902)" fill="#6c63ff"/><path d="M688.294,207.6H666.177a4.423,4.423,0,0,1,0-8.847h22.117a4.423,4.423,0,1,1,0,8.847Z" transform="translate(-500.854 -149.542)" fill="#e6e6e6"/><path d="M557.294,186.6H535.177a4.423,4.423,0,0,1,0-8.847h22.117a4.423,4.423,0,0,1,0,8.847Z" transform="translate(-514.719 -151.765)" fill="#e6e6e6"/><path d="M533.413,259.752a1.661,1.661,0,0,0-1.659,1.659,1.674,1.674,0,0,0,1.659,1.659H704.818a1.661,1.661,0,0,0,1.659-1.659,1.674,1.674,0,0,0-1.659-1.659Z" transform="translate(-514.614 -143.086)" fill="#e6e6e6"/><path d="M588.758,259.252v4.423H533.466a2.228,2.228,0,0,1-2.212-2.212,2.218,2.218,0,0,1,2.212-2.212Z" transform="translate(-514.666 -143.139)" fill="#6c63ff"/><path d="M688.294,252.6H666.177a4.423,4.423,0,0,1,0-8.847h22.117a4.423,4.423,0,1,1,0,8.847Z" transform="translate(-500.854 -144.779)" fill="#e6e6e6"/></g><path d="M847.521,35.064s-67.072-95.577-147.4,28.861l-50,102.762s32.632,12.174,59.988-4.556c33-20.181,61.828-82.064,61.828-82.064l.854.351,64.422-29.892,10.308-15.461Z" transform="translate(278.843 317.185)" fill="#090814"/></g></svg>