<svg xmlns="http://www.w3.org/2000/svg" width="800" height="349.495" viewBox="0 0 800 349.495" xmlns:xlink="http://www.w3.org/1999/xlink" role="img" artist="Katerina Limpitsouni" source="https://undraw.co/"><g transform="translate(-550 -315.111)"><path d="M650.259,592.719H377.849V320.309h272.41Z" transform="translate(393.896 71.19)" fill="#fff"/><path d="M650.259,592.719H377.849V320.309h272.41Zm-268.385-4.025H646.234V324.334H381.874Z" transform="translate(393.896 71.19)" fill="#d6d6e3"/><g transform="translate(1033.852 381.504)"><rect width="166.901" height="133.2" rx="8" transform="translate(0 0)" fill="#f2f2f2"/><path d="M6.419,3.21a3.213,3.213,0,0,0-3.21,3.21V126.78a3.213,3.213,0,0,0,3.21,3.21H160.481a3.213,3.213,0,0,0,3.21-3.21V6.419a3.213,3.213,0,0,0-3.21-3.21H6.419m0-3.21H160.481A6.419,6.419,0,0,1,166.9,6.419V126.78a6.419,6.419,0,0,1-6.419,6.419H6.419A6.419,6.419,0,0,1,0,126.78V6.419A6.419,6.419,0,0,1,6.419,0Z" transform="translate(0 0)" fill="#090814"/><rect width="42.665" height="6.419" rx="3.21" transform="translate(61.726 88.852)" fill="#6c63ff"/><rect width="53.694" height="6.419" rx="3.21" transform="translate(56.143 101.713)" fill="#6c63ff"/><g transform="translate(55.192 25.067)"><path d="M821.807,419.345a27.868,27.868,0,0,1-41.067,24.534l-.005-.005a27.859,27.859,0,1,1,41.073-24.528Z" transform="translate(-766.084 -391.484)" fill="#6c63ff"/><circle cx="7.573" cy="7.573" r="7.573" transform="translate(20.434 11.362)" fill="#fff"/><path d="M810.665,441.252a39.034,39.034,0,0,1-26.14-.1l-.005,0,5.642-11.137h15.146Z" transform="translate(-769.727 -399.097)" fill="#fff"/></g></g><g transform="translate(626.229 315.111)"><rect width="166.901" height="133.2" rx="8" fill="#f2f2f2"/><path d="M6.419,3.21a3.213,3.213,0,0,0-3.21,3.21V126.78a3.213,3.213,0,0,0,3.21,3.21H160.481a3.213,3.213,0,0,0,3.21-3.21V6.419a3.213,3.213,0,0,0-3.21-3.21H6.419m0-3.21H160.481A6.419,6.419,0,0,1,166.9,6.419V126.78a6.419,6.419,0,0,1-6.419,6.419H6.419A6.419,6.419,0,0,1,0,126.78V6.419A6.419,6.419,0,0,1,6.419,0Z" fill="#090814"/><g transform="translate(37.471 23.359)"><path d="M326,309.672a39.277,39.277,0,0,0-27.042-12.317v39.359Z" transform="translate(-244.839 -297.356)" fill="#3f3d56"/><path d="M326,318.813l-27.042,27.042h37.791A39.256,39.256,0,0,0,326,318.813Z" transform="translate(-244.839 -301.595)" fill="#e4e4e4"/><path d="M336.795,356.038a39.5,39.5,0,0,1-.678,7.312c-.035.191-.072.38-.111.569a39.073,39.073,0,0,1-4.559,11.947c-.115.2-.234.4-.353.592v0a39.515,39.515,0,0,1-7.91,9.358c-.154.134-.308.267-.464.4a39.222,39.222,0,0,1-23.758,9.181V356.038Z" transform="translate(-244.839 -308.951)" fill="#f0f0f0"/><path d="M287.534,395.431c.523,0,1.043-.013,1.561-.034v-39.36l-28.624,28.624a39.256,39.256,0,0,0,27.063,10.769Z" transform="translate(-237.233 -308.951)" fill="#cacaca"/><path d="M284.564,303.419a39.394,39.394,0,0,0-39.394,39.394h41V303.454C285.635,303.433,285.1,303.419,284.564,303.419Z" transform="translate(-234.21 -298.554)" fill="#6c63ff"/><path d="M272.467,356.038l-8.282,8.282-.271.271-.006.006-7.222,7.221-.275.275-7.8,7.8-.275.275v0l-4.491,4.489a39.28,39.28,0,0,1-12.331-28.623Z" transform="translate(-231.511 -308.951)" fill="#6c63ff"/></g></g><path d="M3.21,0H171.5a3.21,3.21,0,1,1,0,6.419H3.21A3.21,3.21,0,0,1,3.21,0Z" transform="translate(820.596 508.604)" fill="#d6d6e3"/><path d="M3.21,0H171.5a3.21,3.21,0,1,1,0,6.419H3.21A3.21,3.21,0,0,1,3.21,0Z" transform="translate(820.596 524.639)" fill="#d6d6e3"/><path d="M3.21,0H171.5a3.21,3.21,0,1,1,0,6.419H3.21A3.21,3.21,0,0,1,3.21,0Z" transform="translate(820.596 540.674)" fill="#d6d6e3"/><path d="M3.21,0H171.5a3.21,3.21,0,1,1,0,6.419H3.21A3.21,3.21,0,0,1,3.21,0Z" transform="translate(820.596 439.512)" fill="#6c63ff"/><path d="M3.21,0H171.5a3.21,3.21,0,1,1,0,6.419H3.21A3.21,3.21,0,0,1,3.21,0Z" transform="translate(820.596 455.546)" fill="#6c63ff"/><path d="M3.21,0H171.5a3.21,3.21,0,1,1,0,6.419H3.21A3.21,3.21,0,0,1,3.21,0Z" transform="translate(820.596 471.581)" fill="#6c63ff"/><path d="M0,0H174.705V6.167H0Z" transform="translate(820.596 578.368)" fill="#f0f0f0"/><path d="M0,0H174.705V6.167H0Z" transform="translate(820.596 594.403)" fill="#f0f0f0"/><path d="M0,0H174.705V6.167H0Z" transform="translate(820.596 610.438)" fill="#f0f0f0"/><g transform="translate(999.464 507.896)"><path d="M560.144,325.706h118.93V273.559h-1.83v50.317h-117.1Z" transform="translate(-560.144 -271.944)" fill="#090814"/><circle cx="10.063" cy="10.063" r="10.063" transform="translate(107.951)" fill="#090814"/></g><path d="M317.627,237.706H198.7V185.559h1.829v50.317h117.1Z" transform="translate(510.739 257.682)" fill="#090814"/><circle cx="10.063" cy="10.063" r="10.063" transform="translate(700.288 441.626)" fill="#3f3d56"/><circle cx="4.025" cy="4.025" r="4.025" transform="translate(994.568 556.709)" fill="#6c63ff"/><circle cx="4.025" cy="4.025" r="4.025" transform="translate(823.538 490.939)" fill="#6c63ff"/><g transform="translate(592.835 396.17)"><rect width="10.383" height="13.684" transform="translate(15 254.817) rotate(-163.78)" fill="#ed9da0"/><path d="M.746,581.808a3.4,3.4,0,0,1-.7-2.691A4.341,4.341,0,0,1,2.336,576.5c.113-.3,1.522-3.984,2.41-4.46a3.412,3.412,0,0,1,.869-2.365,1.748,1.748,0,0,1,1.509-.331l.026,0,.006.026c.008.034.84,3.446,3.3,4.439,1.408.569,3.078.245,4.963-.963.085-.1,1.059-1.962,1.7-3.193l.025-.052L28.82,580.869l7.411,4.575a2.443,2.443,0,0,1-.88,4.489l-4.453.742a12.73,12.73,0,0,1-5.613-.332L4.094,584.178a6.163,6.163,0,0,1-3.345-2.37Z" transform="translate(0.003 -322.697)" fill="#090814"/><rect width="11.028" height="14.535" transform="translate(69.263 241.972)" fill="#ed9da0"/><path d="M138.219,593.857a3.607,3.607,0,0,1-1.513-2.534,4.615,4.615,0,0,1,1.561-3.349c.026-.338.37-4.516,1.134-5.264a3.629,3.629,0,0,1,.185-2.669,1.856,1.856,0,0,1,1.441-.786l.029,0,.014.025c.019.033,1.879,3.265,4.679,3.549,1.6.165,3.211-.663,4.776-2.455.055-.132.5-2.315.783-3.759l.012-.058,15.253,8.017,8.915,2.467a2.6,2.6,0,0,1,.432,4.84l-4.322,2.078a13.518,13.518,0,0,1-5.823,1.327H142.333a6.547,6.547,0,0,1-4.115-1.424Z" transform="translate(-71.188 -328.745)" fill="#090814"/><path d="M0,0H12.167L15.4,19.457H0Z" transform="translate(36.17 28.743)" fill="#ed9da0"/><path d="M193.213,483.432a5.263,5.263,0,0,0,1.253-7.973l6.84-68.638-11.421.758-3.164,67.587a5.292,5.292,0,0,0,6.492,8.266Z" transform="translate(-160.616 -344.174)" fill="#ed9da0"/><path d="M185.279,400.408l2.994,22.758-.416,13.948,12.562,1.15,2.518-11.6,1.387-30.712a9.165,9.165,0,0,0-8.1-9.517h0a9.165,9.165,0,0,0-10.144,7.9Z" transform="translate(-160.638 -340.303)" fill="#2f2e41"/><circle cx="16.521" cy="16.521" r="16.521" transform="translate(22.939 2.273)" fill="#ed9da0"/><path d="M196.478,381.378l-11.465,1.31h0a30.509,30.509,0,0,0-3.9,27.549l8.651,25.026s-12.009,24.074-12.009,46.426-22.87,102.137-22.87,102.137l32.192,3.358,14.046-84.994,19.357,84.651,22.1-3.6L230.405,472.258l-8.042-36.531-.343-17.815s3.42-13.368-5.139-21.926l-10.449-14.56Z" transform="translate(-154.884 -339.357)" fill="#090814"/><path d="M288.461,442.733a5.767,5.767,0,0,0-7-5.4l-62.344-42.721-5.287,11.373L277.1,444.618a5.8,5.8,0,0,0,11.361-1.884Z" transform="translate(-166.043 -341.862)" fill="#ed9da0"/><path d="M204.691,406.814l23.443,9.109,13.182,7.745,7.721-11.463-9.82-8.529-28.777-17.508a10.042,10.042,0,0,0-13.409,2.767h0a10.042,10.042,0,0,0,2.249,13.908Z" transform="translate(-162.512 -339.987)" fill="#090814"/><path d="M221.644,342.438H197.367V331.856c5.328-2.117,10.543-3.917,13.694,0a10.582,10.582,0,0,1,10.582,10.582Z" transform="translate(-162.926 -329.545)" fill="#090814"/><path d="M198.372,331.092c-14.513.064-18.575,18.191-18.575,28.454,0,5.723,2.588,7.77,6.656,8.463l1.436-7.661,3.364,7.991c1.143.006,2.343-.016,3.587-.04l1.141-2.349,2.544,2.307c10.188.015,24.993-.895,18.422-8.711C208.144,349.075,211.022,331.036,198.372,331.092Z" transform="translate(-159.6 -329.838)" fill="#090814"/></g><g transform="translate(1190.285 404.201)"><rect width="10.383" height="13.684" transform="matrix(0.96, -0.279, 0.279, 0.96, 101.65, 233.935)" fill="#9f616a"/><path d="M36.643,581.808a3.4,3.4,0,0,0,.7-2.691,4.341,4.341,0,0,0-2.292-2.617c-.113-.3-1.522-3.984-2.41-4.46a3.412,3.412,0,0,0-.869-2.365,1.748,1.748,0,0,0-1.509-.331l-.026,0-.006.026c-.008.034-.84,3.446-3.3,4.439-1.408.569-3.078.245-4.963-.963-.085-.1-1.059-1.962-1.7-3.193l-.025-.052L8.569,580.869l-7.411,4.575a2.443,2.443,0,0,0,.88,4.489l4.453.742a12.731,12.731,0,0,0,5.613-.332l21.191-6.165a6.163,6.163,0,0,0,3.345-2.37Z" transform="translate(83.081 -330.439)" fill="#090814"/><rect width="11.028" height="14.535" transform="translate(31.355 234.231)" fill="#9f616a"/><path d="M175.871,593.857a3.607,3.607,0,0,0,1.513-2.534,4.615,4.615,0,0,0-1.561-3.349c-.026-.338-.37-4.516-1.134-5.264a3.629,3.629,0,0,0-.185-2.669,1.856,1.856,0,0,0-1.441-.786l-.029,0-.014.025c-.019.032-1.879,3.265-4.679,3.549-1.6.165-3.211-.663-4.776-2.455-.055-.132-.5-2.315-.783-3.759l-.012-.058-15.253,8.017-8.915,2.467a2.6,2.6,0,0,0-.432,4.84l4.322,2.078a13.518,13.518,0,0,0,5.823,1.327h23.442a6.546,6.546,0,0,0,4.115-1.425Z" transform="translate(-131.257 -336.486)" fill="#090814"/><path d="M5.438,0h9.278l4.593,13.641H5.438Z" transform="translate(57.537 29.578)" fill="#9f616a"/><path d="M1003.443,431.608,993.32,434.26l.673,16.411.083,29.88a5.988,5.988,0,1,0,7.925,1l3.111-29.989Z" transform="translate(-917.642 -355.003)" fill="#9f616a"/><path d="M1005.729,434.871l-14.8-4.982-.035-.223c-.022-.14-2.192-14.154-2.166-23.768a7.366,7.366,0,0,1,2.455-5.7,7.725,7.725,0,0,1,8.362-1.345,8.263,8.263,0,0,1,5.108,7.348Z" transform="translate(-917.095 -348.398)" fill="#e4e4e4"/><path d="M967.462,440.75l-22.63-5.858-10.461,35.231,2.68,120.838h12.867l8.621-95.927,46.1,98.158,15.344-4.792L982.707,485.739s2.231-18.591-4.834-27.886l1.487-9.667Z" transform="translate(-906.355 -355.652)" fill="#090814"/><path d="M982.288,440.035l-1.713-.027-34.777-13.9,16.638-37.056,7.9,1.436-1.438-5.752,17.454-4.266,3.037,12.147,4.481,4.073A7.879,7.879,0,0,1,996.042,405l-10.322,30.968a3.48,3.48,0,0,1-3.431,4.063Z" transform="translate(-908.612 -344.898)" fill="#e4e4e4"/><path d="M946.977,418.872l-9.149-5.078-10.854,12.327-20.588,21.655a5.988,5.988,0,1,0,5.04,6.2L934.4,434.446Z" transform="translate(-899.455 -351.483)" fill="#9f616a"/><path d="M950.947,422.805,943.7,408.979l.129-.185c.081-.116,8.2-11.745,14.859-18.676a7.366,7.366,0,0,1,5.711-2.42,7.729,7.729,0,0,1,6.974,4.807,8.262,8.262,0,0,1-1.386,8.841Z" transform="translate(-908.197 -346.326)" fill="#e4e4e4"/><circle cx="13.868" cy="13.868" r="13.868" transform="translate(50.957 5.575)" fill="#9f616a"/><path d="M959.446,347.123c2.217-3.969,3.066-5.628,5.924-8.041,2.528-2.135,5.638-2.762,8.146-.739a15.107,15.107,0,1,1-8.961,12.089C962.376,350.126,961.627,347.43,959.446,347.123Z" transform="translate(-909.849 -334.328)" fill="#090814"/><path d="M1017.728,385.264a16.016,16.016,0,0,1-.264-7,89.411,89.411,0,0,1,3.381-13.163,52.475,52.475,0,0,0,2.664-13.3,20.441,20.441,0,0,0-3.534-12.873c-2.7-3.642-7.311-6.028-11.794-5.344-4.284.654-8.024,4.518-8.046,8.805-.767,1.387.224,3.282,1.634,4.105,1.479.863,3.263.978,4.9,1.469a12.3,12.3,0,0,1,7.368,6.521,15.9,15.9,0,0,1,1.068,9.9c-.646,3.226-2.133,6.212-3.247,9.308s-1.86,6.495-.964,9.661a10.174,10.174,0,0,0,11.4,6.947A7.511,7.511,0,0,1,1017.728,385.264Z" transform="translate(-919.431 -333.463)" fill="#090814"/></g><path d="M900.7,659.914H102.3a.8.8,0,1,1,0-1.6H900.7a.8.8,0,1,1,0,1.6Z" transform="translate(448.5 4.403)" fill="#cacaca"/><path d="M811.544,608.022a4.219,4.219,0,0,1-3.315,2.245c-.357.035-.255.582.1.547A4.728,4.728,0,0,0,812,608.339a.287.287,0,0,0-.07-.387.279.279,0,0,0-.387.07Z" transform="translate(308.899 -33.824)" fill="#fff"/><path d="M3.21,0H171.5a3.21,3.21,0,1,1,0,6.419H3.21A3.21,3.21,0,0,1,3.21,0Z" transform="translate(820.596 578.117)" fill="#6c63ff"/><path d="M3.21,0H171.5a3.21,3.21,0,1,1,0,6.419H3.21A3.21,3.21,0,0,1,3.21,0Z" transform="translate(820.596 594.151)" fill="#6c63ff"/><path d="M3.21,0H171.5a3.21,3.21,0,1,1,0,6.419H3.21A3.21,3.21,0,0,1,3.21,0Z" transform="translate(820.596 610.186)" fill="#6c63ff"/></g></svg>