<svg xmlns="http://www.w3.org/2000/svg" width="800" height="726.714" viewBox="0 0 800 726.714" xmlns:xlink="http://www.w3.org/1999/xlink" role="img" artist="Katerina Limpitsouni" source="https://undraw.co/"><g transform="translate(-706 -176)"><path d="M293.1,108.592c8.906-9.064,20.8-11.815,26.57-6.146s3.221,17.61-5.689,26.676a31.8,31.8,0,0,1-12.65,8.1l-38.222,37.927L245.69,156.829l39.529-35.444A31.8,31.8,0,0,1,293.1,108.592Z" transform="translate(797.426 213.025)" fill="#ffb6b6"/><path d="M204.845,84.01l40.074,88.9,63.993-34.639,22.9,12.155s-52.313,87.457-88.131,77.5S144.26,127.7,155.72,99.84s49.125-15.83,49.125-15.83Z" transform="translate(763.44 206.3)" fill="#6c63ff"/><g transform="translate(1144.448 308.972)"><path d="M329.144,127.94c-9.3-8.656-12.378-20.473-6.868-26.392s17.516-3.7,26.821,4.96a31.8,31.8,0,0,1,8.438,12.425l38.954,37.174-17.834,17.908-36.509-38.548a31.8,31.8,0,0,1-13-7.527Z" transform="translate(-319.541 -96.418)" fill="#ed9da0"/><path d="M517.96,134.162l-75.19,80.051s-16.885,16.707-44.665-7.386-58.665-63.62-58.665-63.62l17.327-18.858,30.691,27.381s18.222,7.332,19.488,12.076-2.275,6.706,3.418,5.186,5.8-4.911,6.161.232-3.12,11.154,3.457,5.332,8.539-2.28,8.539-2.28l48.056-63.657s31.053-24.556,39.98-2.544,1.4,28.087,1.4,28.087Z" transform="translate(-312.135 -96.91)" fill="#f2f2f2"/></g><g transform="translate(943.953 770.099)"><path d="M178.348,545.692l29.221,0,13.9-112.71-43.127,0Z" transform="translate(-171.588 -432.979)" fill="#ed9da0"/><path d="M280.294,523.582h0c.91,1.532,1.39,6.478,1.39,8.26h0a9.918,9.918,0,0,1-9.918,9.918H181.273a6.766,6.766,0,0,1-6.766-6.766v-3.768s-4.477-11.323,4.74-25.28c0,0,11.455,10.928,28.572-6.188l5.048-9.144L249.4,517.335l20.252,2.493c4.431.545,8.359-.085,10.638,3.754h0Z" transform="translate(-173.42 -411.532)" fill="#090814"/></g><path d="M476.582,120.59l-2.536-30.647h-33.72l-7.475,32.47Z" transform="translate(867.072 209.469)" fill="#ed9da0"/><path d="M208.06,102.265l.591-39.412-24.3-15.15L157.919,80.029Z" transform="translate(764.764 193.751)" fill="#ed9da0"/><circle cx="36.859" cy="36.859" r="36.859" transform="translate(1282.089 235.446)" fill="#ed9da0"/><circle cx="43.224" cy="43.224" r="43.224" transform="translate(929.677 182.421)" fill="#ed9da0"/><path d="M265.882,295.134l-40.265,274H175.1l6.717-156.405,3.535-82.239L175.1,291.343a174.84,174.84,0,0,1-8.613-19.249c-4.439-11.9-7.945-26.172-2.74-32.939,1.915-2.495,6.894-4.341,13.661-5.716a141.378,141.378,0,0,1,14.142-2.013c29.875-2.956,72.369-1.11,72.369-1.11L265,265.966l.6,19.907Z" transform="translate(765.966 261.493)" fill="#090814"/><g transform="translate(773.448 739.866)"><path d="M57.094,510.236l25.742,13.827,65.589-92.708-37.992-20.409Z" transform="translate(-46.203 -410.946)" fill="#ed9da0"/><path d="M148.553,534.6h0c.076,1.781-1.842,6.364-2.685,7.934h0a9.918,9.918,0,0,1-13.43,4.043L52.721,503.746a6.766,6.766,0,0,1-2.758-9.162l1.783-3.319s1.416-12.094,16.14-20.026c0,0,4.919,15.048,28.1,8.071l8.774-5.666L124.3,514.475l16.66,11.781c3.645,2.577,7.4,3.882,7.595,8.342h0Z" transform="translate(-49.156 -388.51)" fill="#090814"/></g><path d="M299.924,285.688l-21.37,42.848-62.411,84.007L113.4,550.848l-44.5-23.9L190.875,321.573l9.506-39.342s0-4.252.432-10.322c.845-12.011,3.378-31.151,10.921-38.654a11.246,11.246,0,0,1,3.339-2.367c2.269-1.021,6.04-.776,10.8.354,19.9,4.753,57.029,25.171,73.449,34.539l.6,19.907Z" transform="translate(731.639 261.678)" fill="#090814"/><g transform="translate(1253.635 789.337)"><path d="M472.777,543.912l-25.124,0L435.7,447l37.081,0Z" transform="translate(-385.502 -447)" fill="#ed9da0"/><path d="M400.311,524.9h0c-.782,1.318-1.2,5.57-1.2,7.1h0a8.527,8.527,0,0,0,8.527,8.527H485.45a5.817,5.817,0,0,0,5.817-5.817v-3.239s3.849-9.736-4.076-21.736c0,0-9.849,9.4-24.566-5.321l-4.34-7.862L426.871,519.53l-17.413,2.143c-3.81.469-7.187-.073-9.147,3.227Z" transform="translate(-399.116 -428.56)" fill="#090814"/></g><g transform="translate(1360.07 767.057)"><path d="M554.175,520.346l-23.226,9.581L482.935,444.9l34.279-14.142Z" transform="translate(-474.361 -430.762)" fill="#ed9da0"/><path d="M476.712,532.7h0c-.221,1.516,1.02,5.6,1.6,7.021h0a8.527,8.527,0,0,0,11.135,4.63l71.924-29.679a5.817,5.817,0,0,0,3.159-7.6l-1.236-2.994s-.156-10.468-12.058-18.538c0,0-5.52,12.443-24.738,4.452l-7.011-5.612L499.215,517.6l-15.279,8.623c-3.343,1.887-6.672,2.674-7.224,6.473h0Z" transform="translate(-476.686 -410.809)" fill="#090814"/></g><path d="M495.743,292.059,485.49,331.2l2.73,63.521,4.527,105.5.128,2.976.511,11.863,2.357,54.78H445.225l-22.49-153.037L404.96,295.85l1.866-61.6.1-3.221s90.351-3.928,100.171,8.839-11.353,52.187-11.353,52.187Z" transform="translate(856.693 261.759)" fill="#090814"/><path d="M566.03,530.191l-8.564,4.429-31.672,16.391-4.635,2.4-27.773-38.615-70.65-98.256L404.96,295.574l1.866-61.6c7.994-2.544,14.387-3.585,17.628-2.072,14.594,6.825,13.9,51.569,13.9,51.569l8.888,39.479,40.982,71.495Z" transform="translate(856.693 262.035)" fill="#090814"/><path d="M800,529.1h0a1.153,1.153,0,0,1-1.153,1.153H0v-2.305H798.847A1.153,1.153,0,0,1,800,529.1Z" transform="translate(706 372.46)" fill="#e6e6e6"/><path d="M170.491,65.185l49.1,23.57s52.05,154.186,52.05,162.042,14.731,12.767,5.892,21.606,16.451,16.324,2.824,23.384-98.634,45.678-108.087,42.2c-26.07-9.6,1.1-44.9,1.1-44.9s-19.583-15.771-16.637-23.628-17.677-158.114-17.677-158.114l31.426-46.157Z" transform="translate(757.749 200.257)" fill="#6c63ff"/><path d="M205.548,60l5.559,11.119s5.56-20.014,14.455-24.462,10.007-11.119,10.007-11.119,11.119,14.455,18.9,11.119,11.119-5.559,2.224-18.9-6.671-6.671-6.671-6.671-7.783-11.119-6.671-7.783-6.671-8.9-6.671-5.559-5.559-6.671-5.559-3.336-23.35-7.783-20.014-3.336-20.014-8.9-31.133,8.9-26.537,14.5-21.052,25.6,3.261,41.117,3.261,41.117h15.335S193.317,46.654,205.548,60Z" transform="translate(764.712 176)" fill="#090814"/><path d="M440.643,115.886l.9-.254,44.276-12.513,35.355,48.122L497.6,251.412l8.839,40.265s-71.691-18.659-100.172-2.946c0,0-1.964-8.955,0-13.316s4.91-22.51,1.964-30.622,5.892-46.413,5.892-46.413-2.946-25.534,9.821-38.3,16.7-44.193,16.7-44.193Z" transform="translate(856.856 214.373)" fill="#f2f2f2"/><path d="M295.927,224.813a6.3,6.3,0,0,1-2.01-1.574l-24.276-28.61a6.342,6.342,0,0,1-.888-6.822l45.519-95.5a6.332,6.332,0,0,1,9.3-2.5l109.721,75.263a6.323,6.323,0,0,1,2.5,6.971C412.91,251.687,455.029,302.8,295.927,224.813Z" transform="translate(805.779 209.006)" fill="#090814"/><path d="M400.223,253.351,408.241,244l20.261-74.4a4.426,4.426,0,0,0-1.679-5.068L324,94.132a4.417,4.417,0,0,0-6.452,1.689L274.2,183.844a4.336,4.336,0,0,0,.118,4.115,2.731,2.731,0,0,0,.324.5l21.8,28.775Z" transform="translate(807.863 210.741)" fill="#f2f2f2"/><path d="M286.772,174.891a.981.981,0,0,0,.878-.54L322.9,104.327a.982.982,0,1,0-1.754-.883L285.9,173.468a.982.982,0,0,0,.876,1.424Z" transform="translate(812.348 214.292)" fill="#6c63ff"/><path d="M300.371,183.48a.981.981,0,0,0,.878-.54l35.246-70.024a.982.982,0,1,0-1.754-.883l-35.246,70.024a.982.982,0,0,0,.876,1.424Z" transform="translate(817.408 217.488)" fill="#6c63ff"/><path d="M311.822,190.637a.981.981,0,0,0,.878-.54l35.246-70.024a.982.982,0,1,0-1.754-.883l-35.246,70.024a.982.982,0,0,0,.876,1.424Z" transform="translate(821.67 220.152)" fill="#6c63ff"/><path d="M288.6,164.593c12.186-3.6,23.922-.231,26.212,7.525s-5.732,16.96-17.924,20.56a31.8,31.8,0,0,1-14.99.937l-51.827,14.6-6.334-24.467,51.765-11.8a31.8,31.8,0,0,1,13.1-7.36Z" transform="translate(789.258 236.711)" fill="#ffb6b6"/><path d="M221.374,105.447l-8.123,97.179,72.762.782,14.121,21.744s-88.192,51.065-114.673,24.972S147.2,114.233,170.741,95.439,221.374,105.447,221.374,105.447Z" transform="translate(764.82 209.145)" fill="#6c63ff"/><g transform="translate(1202.682 348.783)"><path d="M383.85,236.829c-12.671-.954-22.45-8.266-21.841-16.33s11.373-13.825,24.049-12.869a31.8,31.8,0,0,1,14.349,4.438l53.638,4.722-2.752,25.123-52.585-7.322a31.8,31.8,0,0,1-14.857,2.237Z" transform="translate(-361.982 -95.559)" fill="#ed9da0"/><path d="M528.533,149.175,519.769,258.65s-2.761,23.592-39.5,22.113-85.546-13.077-85.546-13.077l1.763-25.549,41.069,2.231s18.812-5.648,22.763-2.732,2.409,6.659,5.908,1.918,1.468-7.46,4.958-3.665,4.526,10.662,6.029,2.007,5.247-7.112,5.247-7.112l-2.2-79.73s8.929-38.569,29.644-26.946,18.629,21.067,18.629,21.067Z" transform="translate(-349.8 -125.924)" fill="#f2f2f2"/></g><path d="M491,455.231s-1.7,12.914-17.472,13.335l-31.989.856s27.042-65.809,15.922-58.4-40.77-23.667-40.77-23.667l-8.749,16.409s-20.9-7.569,2.263-26.1c0,0,27.639-21.368,56.981-8.537S491,455.231,491,455.231Z" transform="translate(876.436 -139.38)" fill="#090814"/></g></svg>