<svg xmlns="http://www.w3.org/2000/svg" width="521.612" height="720.834" viewBox="0 0 521.612 720.834" xmlns:xlink="http://www.w3.org/1999/xlink" role="img" artist="Katerina Limpitsouni" source="https://undraw.co/"><g transform="translate(-763.313 -253)"><path d="M885.366,883.334H442.871a39.6,39.6,0,0,1-39.559-39.559V202.059A39.6,39.6,0,0,1,442.871,162.5H885.366a39.6,39.6,0,0,1,39.559,39.559V843.775a39.6,39.6,0,0,1-39.559,39.559Z" transform="translate(360 90.5)" fill="#090814"/><path d="M878.7,851.03H434.651a12.208,12.208,0,0,1-12.194-12.194V192.869a12.208,12.208,0,0,1,12.194-12.194H878.7A12.208,12.208,0,0,1,890.9,192.869V838.836A12.208,12.208,0,0,1,878.7,851.03Z" transform="translate(367.441 97.564)" fill="#fff"/><circle cx="3.365" cy="3.365" r="3.365" transform="translate(1019.071 261.75)" fill="#fff"/><g transform="translate(846.2 373.769)"><path d="M799.984,241.841a28.375,28.375,0,0,0,17.369-11.221c.413-.574,1.282.1.87.67a29.514,29.514,0,0,1-18.1,11.64C799.43,243.069,799.293,241.98,799.984,241.841Z" transform="translate(-501.171 -229.783)" fill="#fff"/><path d="M661.28,419.607,637.954,294.714a9.251,9.251,0,0,0-8.785-7.486q-.283-.006-.566,0l-15.89.57-1.71.063-7.93.285-1.71.059-5.1.184L493.4,292.082c-.155.008-.314.008-.469,0l-23.049-.482-8.53-.176-.273,0-6.3-.134-54.858-1.14-14.544-.306-7.172-.147-1.718-.038-8.177-.168-1.714-.038-8.366-.172-1.714-.038-9.192-.193-1.442-.029-8.2-.172-1.3-.025h-.189a9.226,9.226,0,0,0-9.062,7.7l-21.1,129.6a9.177,9.177,0,0,0,9.058,10.655H436.258a8.4,8.4,0,0,1,4.954,1.635l2.3,1.7a9.26,9.26,0,0,0,5.461,1.8h71.4a9.121,9.121,0,0,0,6.492-2.691,8.329,8.329,0,0,1,5.449-2.427l120.428-6.346a9.177,9.177,0,0,0,8.542-10.852Z" transform="translate(-305.931 -252.259)" fill="#ccc"/><path d="M653.259,393.33l-13-128.815c0-.054-.013-.113-.021-.168a8.181,8.181,0,0,0-2.842-5.285l-27.97-23.3a7.42,7.42,0,0,0-4.313-1.723c-12.8-.822-77.852-3.865-101.864,16.979a6.61,6.61,0,0,1-5.373,1.542,6.731,6.731,0,0,1-4.661-3.127,27.544,27.544,0,0,0-7.859-8.014,41.8,41.8,0,0,0-4.4-2.67c-1.345-.708-2.808-1.4-4.4-2.058-1.371-.57-2.833-1.119-4.4-1.643-8.127-2.716-18.991-4.745-33.511-5.424-6.023-.285-12.57-.323-19.457-.117-6.287.184-12.968.566-19.855,1.136l-.1,0-46.6,28.447a8.119,8.119,0,0,0-3.776,6.019l-.1.855-14.8,132.2a8.292,8.292,0,0,0,1.907,6.291,7.607,7.607,0,0,0,5.78,2.7H456.463a6.756,6.756,0,0,1,4.2,1.488l5.013,4.015a7.579,7.579,0,0,0,4.6,1.668l50.482.826h.122a7.529,7.529,0,0,0,3.642-.947l9.737-5.407a6.721,6.721,0,0,1,2.892-.838l108.81-5.746a7.563,7.563,0,0,0,5.487-2.808,8.2,8.2,0,0,0,1.819-6.082Z" transform="translate(-316.998 -229.378)" fill="#e6e6e6"/><path d="M652.213,374.956l-1.523-20.05-6.425-84.539-.955-12.506A13.252,13.252,0,0,0,630.4,245.584c-23.544-.6-66.176.459-87.1,14.477a11.6,11.6,0,0,1-15.178-1.874,33.735,33.735,0,0,0-10.24-7.646,57.751,57.751,0,0,0-8.8-3.542q-13.283-4.243-33.523-5.156l-32.024-.187h-.054a8.73,8.73,0,0,0-8.7,8.178l-1.39,21.984-6.075,96.411a13.283,13.283,0,0,0,13.074,14.12c53.754.8,77.237,12.143,87.477,21.513a13.278,13.278,0,0,0,16.26,1.318c18.587-12.174,49.487-15.559,74.082-16.085,7.532-.157,14.471-.054,20.286.151a13.282,13.282,0,0,0,13.721-14.289Z" transform="translate(-353.933 -234.234)" fill="#fff"/><path d="M357.354,421.869l-.061,0a.856.856,0,0,1-.793-.914l9.249-130.594a.846.846,0,0,1,.914-.793.856.856,0,0,1,.793.914l-9.249,130.594A.855.855,0,0,1,357.354,421.869Z" transform="translate(-325.932 -253.183)" fill="#fff"/><path d="M375.767,413.37l-.061,0a.856.856,0,0,1-.793-.914l9.249-130.594a.846.846,0,0,1,.914-.793.856.856,0,0,1,.793.914L376.62,412.574A.856.856,0,0,1,375.767,413.37Z" transform="translate(-333.216 -249.822)" fill="#fff"/><path d="M392.764,409.121l-.061,0a.856.856,0,0,1-.794-.914l9.249-130.594a.846.846,0,0,1,.914-.793.856.856,0,0,1,.794.914l-9.249,130.594A.856.856,0,0,1,392.764,409.121Z" transform="translate(-339.939 -248.141)" fill="#fff"/><path d="M409.761,400.623l-.061,0a.856.856,0,0,1-.794-.914l9.249-130.594a.846.846,0,0,1,.914-.793.856.856,0,0,1,.794.914l-9.249,130.594A.856.856,0,0,1,409.761,400.623Z" transform="translate(-346.662 -244.78)" fill="#fff"/><path d="M838.545,423.285l.061,0a.856.856,0,0,0,.793-.914l-9.249-130.594a.846.846,0,0,0-.914-.793.856.856,0,0,0-.794.914l9.249,130.594a.856.856,0,0,0,.853.8Z" transform="translate(-512.607 -253.744)" fill="#fff"/><path d="M820.132,410.538l.061,0a.855.855,0,0,0,.793-.914l-9.249-130.594a.846.846,0,0,0-.914-.793.856.856,0,0,0-.793.914l9.249,130.594A.856.856,0,0,0,820.132,410.538Z" transform="translate(-505.324 -248.701)" fill="#fff"/><path d="M803.135,396.373l.061,0a.855.855,0,0,0,.793-.914l-9.249-130.594a.845.845,0,0,0-.914-.794.856.856,0,0,0-.794.914l9.249,130.594a.855.855,0,0,0,.853.8Z" transform="translate(-498.6 -243.099)" fill="#fff"/><path d="M461.115,286.355a81.52,81.52,0,0,1,59.111,4.147,77.838,77.838,0,0,1,14.689,9.047c1.286,1.009,3.116-.8,1.816-1.816a84.133,84.133,0,0,0-59.058-17.319,80.816,80.816,0,0,0-17.241,3.464c-1.569.5-.9,2.981.683,2.477Z" transform="translate(-366.69 -249.433)" fill="#3f3d56"/><path d="M636.561,306.349a81.513,81.513,0,0,1,58.937-6.134,77.678,77.678,0,0,1,16.025,6.372c1.458.778,2.757-1.439,1.3-2.218a84.221,84.221,0,0,0-61.216-6.675,80.791,80.791,0,0,0-16.339,6.437C633.8,304.9,635.1,307.118,636.561,306.349Z" transform="translate(-435.943 -255.236)" fill="#3f3d56"/><path d="M636.561,334.677a81.512,81.512,0,0,1,58.937-6.134,77.682,77.682,0,0,1,16.025,6.372c1.458.778,2.757-1.439,1.3-2.218a84.221,84.221,0,0,0-61.216-6.674,80.793,80.793,0,0,0-16.339,6.437c-1.464.769-.167,2.987,1.3,2.218Z" transform="translate(-435.943 -266.441)" fill="#3f3d56"/><path d="M713.454,362.089a1.1,1.1,0,0,0-.633-1.065,84.23,84.23,0,0,0-48.491-9.083c-.1.008-.2.025-.314.034h0a2.555,2.555,0,0,0-.306.046,81.132,81.132,0,0,0-28.435,8.764,1.3,1.3,0,0,0-.633,1.115v31.943a1.3,1.3,0,0,0,1.626,1.232c.394-.113.788-.222,1.191-.327a127.312,127.312,0,0,1,27.412-4.288l.6-.025a143.612,143.612,0,0,1,22.613.813q.236.013.469.05c.386.042.78.088,1.165.138.155.017.3.034.444.059,1.5.189,2.988.4,4.481.633q3.231.516,6.463,1.148c.134.025.272.059.411.084,3.458.687,6.9,1.484,10.323,2.364a1.3,1.3,0,0,0,1.626-1.241V362.139A.1.1,0,0,0,713.454,362.089Z" transform="translate(-435.949 -277.648)" fill="#6c63ff"/><path d="M656.3,369.3l-.346.251c.117-.088.239-.17.364-.248Z" transform="translate(-444.382 -284.725)" fill="#fff"/><path d="M461.115,314.683a81.521,81.521,0,0,1,59.111,4.147,77.832,77.832,0,0,1,14.689,9.047c1.286,1.009,3.116-.8,1.816-1.816a84.133,84.133,0,0,0-59.058-17.319,80.814,80.814,0,0,0-17.241,3.464c-1.569.5-.9,2.981.683,2.477Z" transform="translate(-366.69 -260.638)" fill="#3f3d56"/><path d="M461.115,343.011a81.521,81.521,0,0,1,59.111,4.147,77.833,77.833,0,0,1,14.689,9.047c1.286,1.009,3.116-.8,1.816-1.816a84.133,84.133,0,0,0-59.058-17.319,80.819,80.819,0,0,0-17.241,3.464c-1.569.5-.9,2.981.683,2.477Z" transform="translate(-366.69 -271.843)" fill="#3f3d56"/><path d="M461.115,371.34a81.521,81.521,0,0,1,59.111,4.147,77.839,77.839,0,0,1,14.689,9.047c1.286,1.009,3.116-.8,1.816-1.816A84.133,84.133,0,0,0,477.673,365.4a80.817,80.817,0,0,0-17.241,3.464c-1.569.5-.9,2.981.683,2.477Z" transform="translate(-366.69 -283.048)" fill="#3f3d56"/><path d="M461.115,399.668a81.52,81.52,0,0,1,59.111,4.147,77.836,77.836,0,0,1,14.689,9.047c1.286,1.009,3.116-.8,1.816-1.816a84.133,84.133,0,0,0-59.058-17.319,80.811,80.811,0,0,0-17.241,3.464c-1.569.5-.9,2.981.683,2.477Z" transform="translate(-366.69 -294.253)" fill="#3f3d56"/><path d="M461.115,428a81.52,81.52,0,0,1,59.111,4.147,77.83,77.83,0,0,1,14.689,9.047c1.286,1.009,3.116-.8,1.816-1.816a84.133,84.133,0,0,0-59.058-17.319,80.815,80.815,0,0,0-17.241,3.464c-1.569.5-.9,2.981.683,2.477Z" transform="translate(-366.69 -305.458)" fill="#3f3d56"/><path d="M571.415,242.461v47.992c0,.817-1.425,1.5-3.349,1.685-.335.034-.688.05-1.052.05a8.771,8.771,0,0,1-3.11-.507,4.009,4.009,0,0,1-.536-.256c-.478-.281-.754-.612-.754-.972V238.76c1.568.524,3.03,1.073,4.4,1.643C568.606,241.065,570.069,241.753,571.415,242.461Z" transform="translate(-407.46 -233.089)" fill="#6c63ff"/><rect width="1.257" height="155.242" transform="translate(181.144 25.827)" fill="#e6e6e6"/><path d="M773.462,453.934a13.31,13.31,0,0,1-10.064,4.08c-5.815-.206-12.754-.308-20.286-.151l-.042-.036,32.641-42.312,1.408,28.21A13.312,13.312,0,0,1,773.462,453.934Z" transform="translate(-478.839 -303.003)" fill="#f2f2f2"/></g><g transform="translate(912.857 786.409)"><g transform="translate(77.767)"><path d="M33.329,0A33.329,33.329,0,1,1,0,33.329,33.329,33.329,0,0,1,33.329,0Z" fill="#6c63ff"/><path d="M6,4.852V34.476a1.852,1.852,0,0,0,2.822,1.578l24.07-14.812a1.852,1.852,0,0,0,0-3.155L8.822,3.274A1.852,1.852,0,0,0,6,4.852Z" transform="translate(16.913 13.664)" fill="#fff"/></g><g transform="translate(177.752 11.11)"><path d="M22.219,0A22.219,22.219,0,1,1,0,22.219,22.219,22.219,0,0,1,22.219,0Z" fill="#f2f2f2"/><g transform="translate(15.177 11.11)"><path d="M717.435,538.208V519.837A1.839,1.839,0,0,1,719.272,518h.227a1.839,1.839,0,0,1,1.837,1.837v18.371a1.839,1.839,0,0,1-1.837,1.837h-.227A1.839,1.839,0,0,1,717.435,538.208Z" transform="translate(-707.251 -518)" fill="#3f3d56"/><path d="M709.889,540.162a1.1,1.1,0,0,1-.77-1.051V519.125a1.1,1.1,0,0,1,2.01-.624l6.664,9.688a1.842,1.842,0,0,1-.011,2.1l-6.659,9.46a1.1,1.1,0,0,1-.9.468,1.125,1.125,0,0,1-.335-.052Z" transform="translate(-709.12 -517.995)" fill="#3f3d56"/></g></g><g transform="translate(0 11.11)"><path d="M22.219,0A22.219,22.219,0,1,0,44.438,22.219,22.219,22.219,0,0,0,22.219,0Z" fill="#f2f2f2"/><g transform="translate(15.177 11.11)"><path d="M721.336,538.208V519.837A1.839,1.839,0,0,0,719.5,518h-.227a1.839,1.839,0,0,0-1.837,1.837v18.371a1.839,1.839,0,0,0,1.837,1.837h.227A1.839,1.839,0,0,0,721.336,538.208Z" transform="translate(-717.435 -518)" fill="#3f3d56"/><path d="M717.347,540.162a1.1,1.1,0,0,0,.769-1.051V519.125a1.1,1.1,0,0,0-2.01-.624l-6.664,9.688a1.842,1.842,0,0,0,.011,2.1l6.659,9.46a1.1,1.1,0,0,0,.9.468,1.126,1.126,0,0,0,.335-.052Z" transform="translate(-704.031 -517.995)" fill="#3f3d56"/></g></g></g><rect width="111.095" height="16.664" rx="6" transform="translate(846.2 630.876)" fill="#e6e6e6"/><rect width="199.971" height="16.664" rx="6" transform="translate(846.2 658.649)" fill="#e6e6e6"/><g transform="translate(846.2 719.752)"><rect width="355.505" height="5.555" rx="2.777" transform="translate(0 8.332)" fill="#e6e6e6"/><rect width="231.911" height="5.555" rx="2.777" transform="translate(0 8.332)" fill="#6c63ff"/><circle cx="11.11" cy="11.11" r="11.11" transform="translate(220.802 0)" fill="#6c63ff"/></g></g></svg>