<svg xmlns="http://www.w3.org/2000/svg" width="960" height="710.879" viewBox="0 0 960 710.879" xmlns:xlink="http://www.w3.org/1999/xlink" role="img" artist="Katerina Limpitsouni" source="https://undraw.co/"><g transform="translate(-375.705 -67.877)"><g transform="translate(1192.597 327.925)"><g transform="translate(0 0)"><path d="M140.153,70.076c0,38.7-31.374,100.471-70.076,100.471S0,108.779,0,70.076a70.076,70.076,0,1,1,140.153,0Z" transform="matrix(1, -0.017, 0.017, 1, 0, 2.446)" fill="#e6e6e6"/><path d="M33.293,0c-8.806,3.032-10.915,15.041-7.886,23.849S34.852,39.962,38.08,48.7a74.478,74.478,0,0,1,3.158,13.543c1.844,10.96,3.693,22.112,2.272,33.135-1.348,10.456-5.584,20.314-10.31,29.738A278.211,278.211,0,0,1,0,176.356" transform="matrix(1, -0.017, 0.017, 1, 42.393, 171.395)" fill="none" stroke="#2f2e41" stroke-width="2"/></g><ellipse cx="14.775" cy="17.73" rx="14.775" ry="17.73" transform="translate(71.555 34.594)" fill="#fff" opacity="0.4"/></g><path d="M143.949,491.809c8.806,3.032,10.915,15.041,7.886,23.849s-9.444,16.113-12.673,24.85A74.466,74.466,0,0,0,136,554.05c-1.844,10.96-3.693,22.112-2.272,33.135,1.348,10.456,5.584,20.314,10.31,29.738a278.211,278.211,0,0,0,33.2,51.241" transform="translate(341.701 9.978)" fill="none" stroke="#2f2e41" stroke-width="2"/><g transform="matrix(0.978, -0.208, 0.208, 0.978, 375.705, 351.737)"><path d="M0,70.076c0,38.7,31.374,100.471,70.076,100.471s70.076-61.769,70.076-100.471A70.076,70.076,0,1,0,0,70.076Z" transform="translate(0 0)" fill="#6c63ff"/><ellipse cx="14.775" cy="17.73" rx="14.775" ry="17.73" transform="translate(26.173 12.996)" fill="#fff" opacity="0.4"/></g><path d="M923.589,717.777c0,39.868-187.49,72.187-418.77,72.187S108,685.457,108,645.589s165.538,0,396.819,0S923.589,677.909,923.589,717.777Z" transform="translate(345.629 -11.207)" fill="#e6e6e6"/><path d="M614.082,695.713v6.524H263.113v-5.219l.483-1.305,8.65-23.485h334.66Z" transform="translate(377.201 10.713)" fill="#090814"/><path d="M886.609,722.48c-.639,2.733-3.053,5.617-8.507,8.344-19.571,9.785-59.365-2.609-59.365-2.609S788.077,723,788.077,709.3a24.443,24.443,0,0,1,2.688-1.6c8.228-4.353,35.51-15.095,83.883.455a20.174,20.174,0,0,1,9.195,6.026C885.8,716.473,887.34,719.384,886.609,722.48Z" transform="translate(239.738 -22.441)" fill="#090814"/><path d="M614.082,700.044v6.524H263.113v-5.219l.483-1.305Z" transform="translate(377.201 6.382)" opacity="0.1"/><g transform="translate(570.142 211.511)"><g transform="translate(0 0)"><path d="M15.18,488.347c0,.641.352,1.157.789,1.157H409.531c.441,0,.789-.514.789-1.157s-.348-1.157-.789-1.157H15.969C15.532,487.191,15.18,487.706,15.18,488.347Z" transform="translate(80.354 -34.884)" fill="#e6e6e6"/><rect width="14.052" height="2.479" transform="translate(224.445 449.649)" fill="#b6b3c5"/><rect width="14.052" height="2.479" transform="translate(348.842 450.063)" fill="#b6b3c5"/><path d="M320.207,370.945a20.247,20.247,0,0,1-39.953,0H229.146V481.7H371.317V370.945Z" transform="translate(-6.389 -31.644)" fill="#d6d6e3"/><rect width="142.168" height="3.855" transform="translate(223.171 441.285)" fill="#090814"/><path d="M579.758,364.106H7.926A7.934,7.934,0,0,1,0,356.181V29.836A7.934,7.934,0,0,1,7.926,21.91H579.758a7.934,7.934,0,0,1,7.926,7.926V356.181a7.934,7.934,0,0,1-7.926,7.926Z" transform="translate(0 -21.91)" fill="#090814"/><rect width="559.581" height="315.746" transform="translate(13.315 12.545)" fill="#fff"/></g></g><path d="M926.042,335.508a14.86,14.86,0,0,0,13.533-.055" transform="translate(218.256 34.324)" fill="none" stroke="#2f2e41" stroke-width="2"/><g transform="translate(1101.58 67.877)"><path d="M930.934,338.809c-8.806,3.032-10.915,15.041-7.886,23.849s9.444,16.113,12.672,24.85a74.464,74.464,0,0,1,3.158,13.543c1.844,10.96,3.693,22.112,2.272,33.135-1.348,10.456-5.584,20.314-10.31,29.738a278.206,278.206,0,0,1-33.2,51.241" transform="translate(-857.427 -162.464)" fill="none" stroke="#2f2e41" stroke-width="2"/><path d="M140.153,70.076c0,38.7-31.374,100.471-70.076,100.471S0,108.779,0,70.076a70.076,70.076,0,1,1,140.153,0Z" transform="matrix(0.985, 0.174, -0.174, 0.985, 29.615, 0)" fill="#6c63ff"/><ellipse cx="14.775" cy="17.73" rx="14.775" ry="17.73" transform="translate(85.265 26.101)" fill="#fff" opacity="0.4"/></g><g transform="translate(791.516 291.93)"><g transform="translate(0 0)"><path d="M843.424,375.734H727.592a10.84,10.84,0,0,1-10.828-10.828V285.917a10.84,10.84,0,0,1,10.828-10.828H843.424a10.84,10.84,0,0,1,10.828,10.828v78.989a10.841,10.841,0,0,1-10.828,10.828Z" transform="translate(-707.777 -196.278)" fill="#6c63ff"/><path d="M861.853,132.959s44.556-54.617,56.66-27.133,10.773,37.507,10.773,37.507-38.053,13.309-64.64,4.788Z" transform="translate(-788.263 -98.094)" fill="#090814"/><path d="M790.334,132.959s-44.556-54.617-56.66-27.133S722.9,143.333,722.9,143.333s38.053,13.309,64.64,4.788Z" transform="translate(-711.157 -98.094)" fill="#090814"/><path d="M840.766,260.823H707.41a10.84,10.84,0,0,1-10.828-10.828V225.372a10.84,10.84,0,0,1,10.828-10.828H840.766a10.84,10.84,0,0,1,10.828,10.828v24.623a10.84,10.84,0,0,1-10.828,10.828Z" transform="translate(-696.582 -162.692)" fill="#6c63ff"/><rect width="27.857" height="128.952" transform="translate(62.455 50.054)" fill="#090814"/></g></g></g></svg>