<svg xmlns="http://www.w3.org/2000/svg" width="960" height="597.292" viewBox="0 0 960 597.292" xmlns:xlink="http://www.w3.org/1999/xlink" role="img" artist="Katerina Limpitsouni" source="https://undraw.co/"><g transform="translate(-480 -220.798)"><g transform="translate(480 261.911)"><path d="M1056.977,597.719H277.44V87.8a28.554,28.554,0,0,1,28.518-28.51h722.5a28.553,28.553,0,0,1,28.519,28.51Z" transform="translate(-185.731 -59.29)" fill="#090814"/><rect width="733.682" height="461.51" transform="translate(113.158 34.761)" fill="#fff"/><path d="M1118.565,445.838H278.307L224.523,435.6a11.186,11.186,0,0,1-9.083-10.976V413.28h960v11.507a11.218,11.218,0,0,1-8.879,10.932l-48,10.1Z" transform="translate(-215.44 110.341)" fill="#ccc"/><path d="M632.222,428.083H498.932A12.5,12.5,0,0,1,486.454,415.6v-2.31H644.728v2.31a12.5,12.5,0,0,1-12.478,12.478Z" transform="translate(-85.57 110.345)" fill="#2f2e41"/></g><rect width="320" height="400" rx="8" transform="translate(800 340)" fill="#e6e6e6"/><path d="M12.063,94.816,16.776,68.4a37.263,37.263,0,1,1,34.616,3.365l1.641,23.05Z" transform="translate(951.691 438.139)" fill="#ed9da0"/><path d="M531.935,653.155,558.08,483.363a63,63,0,0,1,79.883-50.586h0a62.807,62.807,0,0,1,44.266,71.99L654.623,653.155Z" transform="translate(361.932 86.867)" fill="#6c63ff"/><path d="M623.229,649.544a16.734,16.734,0,0,0,2.906-25.493l27.284-52.835-30.726,3.279-21.2,49.672a16.829,16.829,0,0,0,21.734,25.38Z" transform="translate(375.711 116.574)" fill="#ed9da0"/><path d="M626.44,639.881a7.5,7.5,0,0,1-4.038-1.915l-10.439-9.646a7.512,7.512,0,0,1-1.816-8.41l20.863-49.453-2.96-97.713a24.123,24.123,0,0,1,47.8,6.521h0l5.061,61.424a77.168,77.168,0,0,1-14.873,52.246L633.505,636.92a7.5,7.5,0,0,1-5.316,3,7.411,7.411,0,0,1-1.749-.041Z" transform="translate(378.344 91.425)" fill="#6c63ff"/><path d="M415.01,370.713a16.734,16.734,0,0,0,22.342,12.617l38.017,45.725,8.959-29.573-37.475-38.888a16.829,16.829,0,0,0-31.842,10.119Z" transform="translate(342.283 73.115)" fill="#ed9da0"/><path d="M439.741,384.544a7.5,7.5,0,0,1,3.338-2.971l12.955-5.852a7.512,7.512,0,0,1,8.453,1.607l37.4,38.493,91.135,35.372a24.123,24.123,0,1,1-24.643,41.477h0l-58.535-19.289a77.169,77.169,0,0,1-42.313-34.066L439.717,392.2a7.5,7.5,0,0,1-.691-6.066,7.418,7.418,0,0,1,.719-1.593Z" transform="translate(347.332 78.237)" fill="#6c63ff"/><path d="M642.362,502.685,640.7,555.934l-30.655,53.272,25.6-59.362Z" transform="translate(378.445 102.131)" opacity="0.1" style="isolation:isolate"/><path d="M588.2,372.323c3.88,4.592,10.446,5.887,16.5,6.419,12.3,1.079,30.19-.669,42.212-3.447.858,8.317-1.481,17.283,3.417,24.125a112,112,0,0,0,3.979-25.389c.148-3.677.09-7.493-1.406-10.874s-4.761-6.251-8.52-6.281a21.353,21.353,0,0,1,9.525-4.072L642,346.822l3.057-3.138-21.548-1.318,6.241-3.965a135.332,135.332,0,0,0-28.351-.892c-4.391.323-8.982.942-12.539,3.486s-5.613,7.6-3.4,11.336a16.459,16.459,0,0,0-12.544,9.953c-1.586,4.021-1.441,8.487-.952,12.772a90.525,90.525,0,0,0,4.747,20.081" transform="translate(374.768 84.732)" fill="#2f2e41"/><g transform="translate(-0.378)"><path d="M831.69,310.808,430.727,403.378a7.63,7.63,0,0,1-9.139-5.711l-22.962-99.462a7.63,7.63,0,0,1,5.711-9.139L805.3,196.5a7.63,7.63,0,0,1,9.139,5.711L837.4,301.669a7.629,7.629,0,0,1-5.711,9.139Z" transform="translate(329.15 24.497)" fill="#e6e6e6"/><path d="M831.69,310.808,430.727,403.378a7.63,7.63,0,0,1-9.139-5.711l-22.962-99.462a7.63,7.63,0,0,1,5.711-9.139L805.3,196.5a7.63,7.63,0,0,1,9.139,5.711L837.4,301.669a7.629,7.629,0,0,1-5.711,9.139ZM405.022,292.037a4.578,4.578,0,0,0-3.427,5.484l22.963,99.462a4.577,4.577,0,0,0,5.484,3.427L831,307.84a4.577,4.577,0,0,0,3.427-5.484l-22.963-99.463a4.577,4.577,0,0,0-5.484-3.427Z" transform="translate(329.15 24.497)" fill="#090814"/><path d="M511.157,282.315a5.174,5.174,0,0,0,2.31,10.086l.018,0,237.649-54.866a5.174,5.174,0,0,0-2.328-10.082Z" transform="translate(362.146 33.91)" fill="#6c63ff"/><path d="M516.514,298.242a5.174,5.174,0,1,0,2.31,10.086l.018,0L621.1,284.716a5.174,5.174,0,0,0-2.31-10.086l-.017,0Z" transform="translate(363.772 48.231)" fill="#6c63ff"/><g transform="translate(777.292 321.18)"><ellipse cx="31.042" cy="31.042" rx="31.042" ry="31.042" transform="translate(0 0)" fill="#6c63ff"/><path d="M464,319.921a4.809,4.809,0,0,1-3.035-.287l-.06-.026-12.491-5.67a4.844,4.844,0,1,1,4.011-8.819l8.094,3.685,11.355-24.949a4.84,4.84,0,0,1,6.409-2.4h0l-.068.163.072-.164a4.845,4.845,0,0,1,2.4,6.411l-13.354,29.35a4.843,4.843,0,0,1-3.327,2.705Z" transform="translate(-433.832 -270.971)" fill="#fff"/></g></g></g></svg>