<svg xmlns="http://www.w3.org/2000/svg" width="800" height="701.488" viewBox="0 0 800 701.488" xmlns:xlink="http://www.w3.org/1999/xlink" role="img" artist="Katerina Limpitsouni" source="https://undraw.co/"><g transform="translate(-602 -256)"><path d="M600.256,375.6a140.73,140.73,0,1,1,140.73-140.73A140.73,140.73,0,0,1,600.256,375.6Zm0-279.244A138.514,138.514,0,1,0,738.77,234.866,138.514,138.514,0,0,0,600.256,96.352Z" transform="translate(398.891 161.864)" fill="#090814"/><path d="M628.567,275.919H577.852a9.392,9.392,0,1,1,0-18.783h50.714a9.392,9.392,0,0,1,0,18.783Z" transform="translate(395.937 174.527)" fill="#d6d6e3"/><path d="M620.066,416.442H569.352a9.391,9.391,0,0,1,0-18.783h50.714a9.391,9.391,0,1,1,0,18.783Z" transform="translate(405.126 163.925)" fill="#6c63ff"/><path d="M748.109,366.665h-291.9c-5.415,0-9.8-3.348-9.81-7.473V292.9c.006-4.125,4.395-7.468,9.81-7.473h291.9c5.415,0,9.8,3.348,9.81,7.473v66.293c-.006,4.125-4.395,7.468-9.81,7.473Z" transform="translate(397.471 182.545)" fill="#d6d6e3"/><path d="M719.1,362.556H462.178c-5.415,0-9.8-3.348-9.81-7.473V298.875c.006-4.125,4.395-7.468,9.81-7.473H740.846c5.416,0,9.8,3.348,9.81,7.473v39.643C750.637,351.788,736.52,362.541,719.1,362.556Z" transform="translate(398.117 181.613)" fill="#fff"/><path d="M624.794,315.577H507.471a2.53,2.53,0,0,1,0-5.06H624.794a2.53,2.53,0,1,1,0,5.06Z" transform="translate(403.801 185.257)" fill="#6c63ff"/><path d="M684.185,324.916H507.471a2.53,2.53,0,0,1,0-5.06H684.185a2.53,2.53,0,0,1,0,5.06Z" transform="translate(403.801 186.267)" fill="#e6e6e6"/><path d="M684.185,335.635H507.471a2.53,2.53,0,1,1,0-5.06H684.185a2.53,2.53,0,0,1,0,5.06Z" transform="translate(403.801 187.426)" fill="#e6e6e6"/><path d="M652.341,241.334a42.891,42.891,0,1,1-12.57-30.372A42.938,42.938,0,0,1,652.341,241.334Z" transform="translate(389.743 131.597)" fill="#6c63ff"/><ellipse cx="15.024" cy="15.024" rx="15.024" ry="15.024" transform="translate(985.072 349.104)" fill="#fff"/><path d="M615.624,223.807h-32.2a7.521,7.521,0,0,0-7.512,7.512,113.692,113.692,0,0,0,3.005,19.081,42.9,42.9,0,0,0,41.51-1.224,112.582,112.582,0,0,0,2.7-17.858,7.52,7.52,0,0,0-7.512-7.512Z" transform="translate(400.577 160.714)" fill="#fff"/><path d="M228.126,721.826a1.315,1.315,0,0,0,1.319,1.319h792.62a1.319,1.319,0,1,0,0-2.637H229.444a1.315,1.315,0,0,0-1.319,1.319Z" transform="translate(373.874 196.339)" fill="#f2f2f2"/><g transform="translate(1128.353 364.129)"><path d="M863.09,307.05s-16.558-2.855-41.111-25.123c-19.426-17.613-45.629-14.15-55.732-11.929a1.725,1.725,0,0,0-.459,3.2c4.084,2.234,10.414,5.5,13.381,5.871,0,0-6.12,6.331.384,9.719a4.68,4.68,0,0,0,4.891-.471c3.128-2.283,11.817,2.9,24.415,5.6,0,0,49.1,50.817,60.524,42.2Z" transform="translate(-764.884 -170.978)" fill="#ed9da0"/><path d="M912.11,248.6s4.568,19.413,0,33.117l20.556,2.855,18.271-9.136v-11.99s-8.565-18.271-6.28-39.4Z" transform="translate(-729.362 -181.619)" fill="#ed9da0"/><path d="M959,589.471S973.9,618.59,971.562,638s19.414,2.284,17.129-9.136c-.484,13.824,6.392-48.409,9.607-62.981a6.5,6.5,0,0,0-4.319-7.584c-6.865-2.259-18.358-5.027-24.13-.794C961.322,563.777,959,589.471,959,589.471Z" transform="translate(-724.806 -89.666)" fill="#090814"/><path d="M919.277,608.923s-19.414,25.122-24.553,25.694-8.565,8.565,0,10.278a96,96,0,0,0,50.892-4.965,7.771,7.771,0,0,0,4.879-8.267L947.22,607.21Z" transform="translate(-734.816 -89.179)" fill="#090814"/><path d="M891.392,403.636l-18.618-7.653a272.485,272.485,0,0,1-.223,65.451v78.2s-.36,6.889,13.94,16.906a534.57,534.57,0,0,1,43.3,33.514l51.81,55.019s16.444-22.878,13.588-37.723c0,0-30.146-23.227-34.715-40.927-2.619-10.129-15.9-18.619-26.774-23.956a33.291,33.291,0,0,1-17.813-37.786,29.124,29.124,0,0,1,2.917-7.336c9.136-15.988,22.268-51.959,22.268-51.959L915.948,397.5Z" transform="translate(-738.907 -140.393)" fill="#090814"/><path d="M913.352,662.121s33.688,5.71,34.83,9.136,0-4.568,0-4.568,19.414-58.811,14.9-110.757,5.71-86.218,5.71-86.218,11.99-38.826,5.139-61.094-78.8-12.561-78.8-12.561,25.123,58.811,24.553,86.789c0,0,2.854,84.5,7.993,94.211C927.627,577.01,919.634,659.8,913.352,662.121Z" transform="translate(-733.457 -140.628)" fill="#090814"/><path d="M922.868,255.79s3.426,21.1,37.685,11.99l-22.79,173.564s-66.233,2.283-65.663-5.71l13.654-105.047Z" transform="translate(-739.016 -173.961)" fill="#6c63ff"/><path d="M920.915,255.33a29.881,29.881,0,0,1-15.421,6.775,33.475,33.475,0,0,0-14.173,4.494c-5.132,3.069-10.852,7.528-12.589,12.959-3.495,10.655-35.294,33.754-45.278,30.025l6.523,30.216s35.26-5.369,40.252-17.09l-8.476,114.064h7.488s3.994-30.9,6.989-37.291,8.986-41.554,9.485-50.078,7.987-57.537,14.477-66.013l10.732-24.773Z" transform="translate(-736.165 -174.072)" fill="#6c63ff"/><ellipse cx="30.833" cy="30.833" rx="30.833" ry="30.833" transform="translate(158.196 13.895)" fill="#ed9da0"/><path d="M890.527,203.506c-.182-4.8,1.573-10.66,2.887-9.5.918-4.9,6.484-4.174,8.1-2.887-.172-3.016,9.381-7.738,9.566-5.514a1.409,1.409,0,0,0,.423.974,1.615,1.615,0,0,0,.963.252,73.766,73.766,0,0,0,8.9-.194,93.352,93.352,0,0,1,10.964-.584c11.456.481,22.971,8.306,25.537,19.476a44.759,44.759,0,0,1,.837,8.226l.559,14.1a51.55,51.55,0,0,1-.5,12.327,26.121,26.121,0,0,1-13.408,17.737c-4.133-5.991-4.5-13.691-5.934-20.828a10.539,10.539,0,0,0-1.787-4.58,4.022,4.022,0,0,0-4.411-1.489c-1.547.619-2.211,2.978-.928,4.033-1.146,1.352-3.288.344-4.58-.859a24.608,24.608,0,0,1-7.137-12.751c-.515-2.452-1.031-5.474-3.438-6.313a6.392,6.392,0,0,0-2.544-.172c-5.018.344-12.866,2.418-17.723.824C892.406,214.322,890.527,207.734,890.527,203.506Z" transform="translate(-732.487 -185.033)" fill="#090814"/><path d="M948.428,251l36.828,31.689s21.7,22.269,12.561,58.241c0,0-4,52.53-8.565,54.814,0,0-15.988,31.975-17.129,62.236l-32.889-12.387-20.944-5.329,3-124.433S953,260.657,948.428,251Z" transform="translate(-728.85 -175.117)" fill="#6c63ff"/><path d="M960.178,359.049s9.136-6.281,23.981,10.849l-36.543,66.233L935.34,417.6S961.32,366.471,960.178,359.049Z" transform="translate(-723.759 -149.32)" fill="#ed9da0"/></g><path d="M359.013,546.242s1.372,17.152,11.662,19.9c3.86,1.029,6.755-.933,8.865-3.788a16.85,16.85,0,0,0,.538-18.9l-2.542-4.067Z" transform="translate(362.584 121.395)" fill="#ed9da0"/><g transform="translate(652.103 400.2)"><path d="M312.932,300.28l.506,34.664,33.278.112s-8.445-27.136-4.663-32.81S312.932,300.28,312.932,300.28Z" transform="translate(-292.013 -245.005)" fill="#ed9da0"/><path d="M385.069,594.882l-2.035,71.25L361.317,749.6s4.75,14.249,1.357,17.645-19,9.5-19,9.5l12.892-177.789Z" transform="translate(-294.19 -265.949)" fill="#090814"/><path d="M337.282,779.883s-7.742,17.036,3.1,18.585,60.916,5.676,57.819-3.1-40.781-17.035-40.781-17.035Z" transform="translate(-293.547 -278.939)" fill="#090814"/><path d="M306.435,526.948s8.144,44.108,13.573,51.575-2.719,61.749-2.719,61.749-12.215,78.036-6.786,90.25,4.072,8.144,3.392,14.93-2.035,12.216,0,18.329,2.035,5.429,2.715,8.821,0,21.715,0,21.715,29.179,10.179,33.93-4.75c0,0-6.786-9.5-4.75-16.964a90.373,90.373,0,0,0,3.392-23.069V735.282L380.4,618.561l7.464-42.074s-2.035-42.75-9.5-46.822S306.435,526.948,306.435,526.948Z" transform="translate(-291.557 -261.123)" fill="#090814"/><path d="M319.309,810.893s-10.179,22.393,4.072,24.429,80.076,7.464,76-4.072-53.609-22.393-53.609-22.393Z" transform="translate(-292.218 -281.1)" fill="#090814"/><ellipse cx="29.818" cy="29.818" rx="29.818" ry="29.818" transform="translate(7.233 10.79)" fill="#ed9da0"/><path d="M361.2,356.683s-23.75-30.536-42.074-17.645-25.107,43.431-25.107,43.431l4.072,85.505s10.179,12.215,4.072,20.358-9.5,6.107-4.75,12.216,10.179,10.858,8.144,12.893,2.035,3.392,2.035,3.392l71.932,2.035s-2.035-2.715,4.072-10.858-1.357-19,0-23.069,2.715.678,3.392-8.822S361.2,356.683,361.2,356.683Z" transform="translate(-290.674 -247.61)" fill="#e6e6e6"/><path d="M291.384,321.2s-.678,13.573,0,15.606,1.357,4.072,0,6.107-.678,8.822.678,9.5-2.714,6.786-1.357,10.858a29.431,29.431,0,0,0,3.392,6.786c.678,1.357,1.771,3.792,1.771,3.792s19.944-42.469,36.231-32.29a118.092,118.092,0,0,0,29.179,13.573S352.466,307.632,291.384,321.2Z" transform="translate(-290.423 -246.399)" fill="#d6d6e3"/><path d="M321.519,355.342s-21.715,2.035-20.358,30.536-2.035,73.29-2.035,73.29,37.323,57,43.431,61.074,6.786,3.392,6.107,6.786-1.357,6.107,1.357,8.822a23.436,23.436,0,0,0,5.429,4.072s21.715-7.464,19.678-14.249-11.535-17.645-11.535-17.645-16.287-26.465-16.964-30.536-.678-3.392-2.715-5.429-7.464-10.179-7.464-14.249v-12.9l5.688-68.9a19.974,19.974,0,0,0-5.3-15.469A17.283,17.283,0,0,0,321.519,355.342Z" transform="translate(-291.034 -248.988)" fill="#e6e6e6"/><path d="M98.688,359.249l-.36,46.686,22.121,33.191-18.1-37.209Z" transform="translate(-50.736 -194.106)" opacity="0.1"/><path d="M346.932,330.4c8.083-.265,8.817-2.4,16.9-2.665,2.574-.084,5.611-.437,6.855-2.692a5.94,5.94,0,0,0-.3-5.288,48.312,48.312,0,0,1-2.49-4.9,8.555,8.555,0,0,1,8.477-11.279c2.46.106,4.77,1.263,7.223,1.474,3.364.29,10.8-10.818,9.254-13.818-1.508-2.921-4.542-5.124-5.019-8.376-.312-2.127-1.466-3.071-1.346-5.218.178-3.183-5.857,2.824-4.38,0,3.624-6.928-30.528-15.518-36.151-6.839-2.1,3.243-5.846,3.022-9.184,4.97-2.188,1.277-7.712,5.681-8.968,8.426a21.374,21.374,0,0,0-1.6,8.844c-.051,14.082,2.095,27.036,13.454,35.36" transform="translate(-326.191 -267.136)" fill="#090814"/></g></g></svg>