<svg xmlns="http://www.w3.org/2000/svg" xmlns:xlink="http://www.w3.org/1999/xlink" width="768.194" height="800" viewBox="0 0 768.194 800" role="img" artist="Katerina Limpitsouni" source="https://undraw.co/"><defs><clipPath id="a-68"><circle cx="56.367" cy="56.367" r="56.367" transform="translate(0 0)" fill="#fff" stroke="#707070" stroke-width="1"/></clipPath></defs><g transform="translate(-549.879 -248.286)"><path d="M348.835,326.393c76.839,0,69.96,23.6,89.578,52.282,80.606,46.144-4.437,82.828-42.382,92.592-42.08,10.828-34.078,11.926-97.889,11.926-27.623,0-116.7-19.948-116.7-19.948s-103.2-16.734-103.2-93.172c0-24.29,24.864-26.584,38.848-36.735C159.58,302.489,257.762,326.393,348.835,326.393Z" transform="translate(471.643 564.744)" fill="#f2f2f2"/><g transform="translate(683.142 513.195)"><path d="M324.883,310.837c16.635-2.155,29.007-12.485,27.633-23.071s-15.97-17.418-32.61-15.261a41.977,41.977,0,0,0-18.6,6.866l-70.366,10.02,5.406,32.921,68.795-13.373a41.981,41.981,0,0,0,19.741,1.9Z" transform="translate(-109.62 -133.854)" fill="#ed9da0"/><path d="M164.1,228.3l19.3,143.681s5.309,30.9,53.635,26.352,111.833-23.292,111.833-23.292l-4.133-33.551-53.976,5.847s-25.2-6.113-30.2-1.99-2.7,8.948-7.651,2.946-2.463-9.729-6.794-4.48-5.211,14.374-7.8,3.073-7.42-9-7.42-9L228.147,232.63s-14.5-50.206-40.982-33.42S164.1,228.3,164.1,228.3h0Z" transform="translate(-163.958 -195.776)" fill="#e6e6e6"/></g><path d="M169.814,222.764l3.348-40.455h44.51l9.867,42.861Z" transform="translate(523.935 306.494)" fill="#ed9da0"/><path d="M277.09,408.788l-8.826,66.753-4.526,34.269-7.674,57.969-7.771,58.745q-13.8-2.219-27.256-4.6-23.119-4.085-45.265-8.621l2.872-74.545,1.119-28.949,1.33-34.269.779-20.291-12.135-51.458S144.7,351.973,156.32,335.2a9.48,9.48,0,0,1,2.158-2.146,24.3,24.3,0,0,1,11.259-5.231c14.455-3.283,38.548-4.6,58.065-4.906,25.05-.4,46.952.667,46.952.667l.13,4.239.243,9.2Z" transform="translate(510.493 421.762)" fill="#090814"/><path d="M247.108,212l-58.445-16.517s-27.227,19.326-31.116,68.263,15.56,127.486,15.56,127.486L157.548,440.5s125.488-3.462,122.9-9.219-8.063-37.806-4.174-48.514-3.317-63.713-3.317-63.713,14.234-31.524-2.619-48.377Z" transform="translate(506.377 317.183)" fill="#e6e6e6"/><path d="M204.488,442.48c4.191,16.242,15.968,27.245,26.3,24.576s15.315-18,11.12-34.244A41.977,41.977,0,0,0,232.8,415.2l-18.626-68.593-32,9.427,21.759,66.62a41.981,41.981,0,0,0,.552,19.824Z" transform="translate(533.963 439.779)" fill="#ed9da0"/><path d="M233.207,257.6s-18.126-48.984-37.993-45.8-37.978,33.98-37.978,33.98L171.6,420.039l39.447,99.439,41.843-16.5L231.153,403.6l2.054-146Z" transform="translate(513.731 330.303)" fill="#e6e6e6"/><g transform="translate(644.491 397.2)"><path d="M115.451,209.794C110,233.534,76.269,218.5,76.269,218.5l-15.4-78.447,37.221-16.515S120.906,186.054,115.451,209.794Z" transform="translate(25.208 -95.658)" fill="#090814"/><ellipse cx="46.3" cy="46.3" rx="46.3" ry="46.3" transform="translate(37.532 12.202)" fill="#ed9da0"/><path d="M327.71,263.061s21.758,7.252,22.864,35.889a50.806,50.806,0,0,1-1.51,13.6c-1.226,5.192,9.382,52.234-4.029,24.4a197.243,197.243,0,0,0-15.662-55.608l-.169-.369S318.75,300.4,297.841,300.4l7.467-7.467S272.45,306.375,260.5,306.375c0,0-8.962,5.974,0,14.936s26.884,29.871,16.421,46.3-1.493,20.91-1.493,20.91l-16.421-8.962-7.467-4.481v5.974l-38.833-4.481s-10.455-1.493,11.948-26.885c0,0,5.917-9.859,3.328-18.364a42.894,42.894,0,0,1-1.63-20.061C231.372,283.264,251.064,227.6,327.71,263.061Z" transform="translate(-210.272 -251.607)" fill="#090814"/></g><g transform="translate(932.045 705.569) rotate(-159)"><path d="M4.377,89A4.121,4.121,0,0,1,.358,84.776l.351-14.15L0,70.561.256,60.95l.692.086,1.259-50.69A7.148,7.148,0,0,1,8.6,3.422L40.834.03A5.41,5.41,0,0,1,46.8,5.776L41.911,77.954a6.694,6.694,0,0,1-5.644,6.157L5.145,88.945h0a4.12,4.12,0,0,1-.77.054Z" transform="translate(0 0)" fill="#3f3d56"/><path d="M25.984,77.646,9.626,80.186a1.355,1.355,0,0,0-1.139,1.192h0A1.535,1.535,0,0,1,7.2,82.728l-3.445.536A3.251,3.251,0,0,1,0,79.972L1.773,6.483A3.712,3.712,0,0,1,5.156,2.875L37.363.011A2.867,2.867,0,0,1,40.479,3.04L36.132,74.55a4.626,4.626,0,0,1-3.907,4.286L28.6,79.4A2.308,2.308,0,0,0,25.984,77.646Z" transform="translate(3.337 3.84)" fill="#6c63ff"/></g><g transform="translate(963.942 248.286)"><path d="M662.9,204.875H353.217a22.247,22.247,0,0,0-22.228,22.216V506.144a22.257,22.257,0,0,0,22.228,22.228H662.9a22.247,22.247,0,0,0,22.216-22.228V227.091A22.236,22.236,0,0,0,662.9,204.875Z" transform="translate(-330.989 -204.875)" fill="#f2f2f2"/><path d="M662.9,204.875H353.217a22.247,22.247,0,0,0-22.228,22.216V506.144a22.257,22.257,0,0,0,22.228,22.228H662.9a22.247,22.247,0,0,0,22.216-22.228V227.091A22.236,22.236,0,0,0,662.9,204.875ZM682.67,506.144a19.778,19.778,0,0,1-19.778,19.777H492.984A159.544,159.544,0,0,1,333.44,366.378V227.091a19.8,19.8,0,0,1,19.777-19.765H662.9a19.786,19.786,0,0,1,19.765,19.765Z" transform="translate(-330.989 -204.875)" fill="#090814"/><g transform="translate(67.395 43.763)"><g transform="translate(0 0)"><circle cx="56.98" cy="56.98" r="56.98" transform="translate(2.451 0)" fill="#fff"/><path d="M56.839.994A56.262,56.262,0,0,0,45.583,2.129a55.533,55.533,0,0,0-19.967,8.4A56.01,56.01,0,0,0,5.382,35.1,55.557,55.557,0,0,0,2.129,45.583a56.4,56.4,0,0,0,0,22.511,55.534,55.534,0,0,0,8.4,19.967A56.011,56.011,0,0,0,35.1,108.3a55.556,55.556,0,0,0,10.481,3.254,56.4,56.4,0,0,0,22.511,0,55.533,55.533,0,0,0,19.967-8.4A56.01,56.01,0,0,0,108.3,78.576a55.556,55.556,0,0,0,3.254-10.481,56.4,56.4,0,0,0,0-22.511,55.533,55.533,0,0,0-8.4-19.967A56.01,56.01,0,0,0,78.576,5.382,55.556,55.556,0,0,0,68.094,2.129,56.262,56.262,0,0,0,56.839.994m0-.994A56.839,56.839,0,1,1,0,56.839,56.839,56.839,0,0,1,56.839,0Z" transform="translate(2.006 0.282)" fill="#090814"/><g transform="translate(0 1.225)" clip-path="url(#a-68)"><g transform="translate(20.748 25.67)"><path d="M60.867,144.935l12.225,2.038,4.075-19.356-9.848-4.075Z" transform="translate(-39.237 -117.201)" fill="#090814"/><path d="M231.089,301.6s1.019,12.9-6.792,13.923,6.792,24.11,10.527,23.771,10.527-25.129,10.527-25.129-8.829-6.113-5.774-11.547Z" transform="translate(-197.234 -282.358)" fill="#ed9da0"/><ellipse cx="10.527" cy="10.527" rx="10.527" ry="10.527" transform="translate(27.913 2.774)" fill="#ed9da0"/><path d="M211.594,421.629s1.358,9.848,5.433,9.848-2.717-11.206-2.717-11.206Z" transform="translate(-190.813 -355.352)" fill="#ed9da0"/><path d="M362.733,449.382s10.187,8.489,8.829,11.208-10.188-3.056-10.867-9.848Z" transform="translate(-288.949 -378.86)" fill="#ed9da0"/><path d="M224.626,345.538s-9.149-7.25-6.782-17.378c0,0-9.178.4-12.914,4.135s1.019,16.3,1.019,16.3,8.15,13.583,6.792,19.7-4.754,13.778,0,15.815,17.905,14.736,32.507,2.85c0,0,8.241-14.59-6.7-25.457v-8.489s2.717-2.377,1.358-8.489c0,0,5.773-10.527,2.377-12.564a101.049,101.049,0,0,0-11.2-5.023S231.757,342.143,224.626,345.538Z" transform="translate(-186.186 -297.939)" fill="#6c63ff"/><path d="M178.381,340.831s-4.414-.679-8.829,5.774-15.96,16.639-10.527,21.733,20.035,8.489,20.035,8.489l3.4-6.114-14.6-7.131,12.223-9.168Z" transform="translate(-157.6 -306.476)" fill="#6c63ff"/><path d="M294.056,340.864s4.754,0,6.792,5.774,13.923,25.469,13.923,25.469l2.128,6.959-4.654,2.922-8.68-8.862L291,352.41Z" transform="translate(-239.656 -306.509)" fill="#6c63ff"/><path d="M220.8,254.211s-4.947,1.649-5.2,8.16a11.55,11.55,0,0,0,.343,3.092c.279,1.18.458,3.721-1.7,7.04a69.687,69.687,0,0,0-3.955,6.8l-.015.031,5.433.679,1.155-9.007a44.847,44.847,0,0,1,3.561-12.643l.038-.084s2.377,4.417,7.131,4.417l-1.7-1.7s7.471,3.056,10.188,3.056c0,0,2.038,1.358,0,3.4s-6.113,6.792-3.734,10.527.339,4.754.339,4.754l3.734-2.038,1.7-1.019v1.358l8.829-1.019s2.377-.339-2.717-6.113c0,0-1.345-2.242-.757-4.175a9.753,9.753,0,0,0,.371-4.561C242.7,258.8,238.226,246.148,220.8,254.211Z" transform="translate(-190 -251.607)" fill="#090814"/></g></g></g></g><path d="M6.74,0H82.712a6.74,6.74,0,0,1,0,13.479H6.74A6.74,6.74,0,0,1,6.74,0Z" transform="translate(202.185 87.876)" fill="#6c63ff"/><path d="M6.74,0H32.472a6.74,6.74,0,0,1,0,13.479H6.74A6.74,6.74,0,0,1,6.74,0Z" transform="translate(202.185 107.482)" fill="#d6d6e3"/><path d="M6.74,0H219.953a6.74,6.74,0,1,1,0,13.479H6.74A6.74,6.74,0,0,1,6.74,0Z" transform="translate(64.944 179.779)" fill="#6c63ff"/><path d="M6.74,0H219.953a6.74,6.74,0,1,1,0,13.479H6.74A6.74,6.74,0,0,1,6.74,0Z" transform="translate(64.944 203.061)" fill="#6c63ff"/><path d="M6.74,0H81.217a6.74,6.74,0,1,1,0,13.479H6.74A6.74,6.74,0,0,1,6.74,0Z" transform="translate(64.944 226.343)" fill="#d6d6e3"/></g></g></svg>