<svg xmlns="http://www.w3.org/2000/svg" viewBox="0 0 750 500"><g id="freepik--background-complete--inject-17"><path d="M549.25629,140.4634c-1.5054-1.1374-3.702-1.2661-5.3301-.3125-2.1611-4.3671-8.18319-6.2944-12.4783-3.9935-1.1204-4.7057-5.75689-8.3229-10.59389-8.2647-4.83711,.0582-9.38521,3.7857-10.39211,8.5172-.16,.7519-.26589,1.5757-.8038,2.1249-.8736,.8925-2.3323,.5929-3.5773,.4958-3.9173-.3056-7.859,2.4446-8.9243,6.2266l53.946-.1964c.4724-1.8265-.3409-3.4599-1.8462-4.5974Z" style="fill:#f5f5f5;"></path><g><g><g><g><path d="M673.73379,329.8021h-180.7461c-3.2324,0-5.8623-2.6298-5.8623-5.8623V60.6664c0-3.2324,2.6299-5.8618,5.8623-5.8618h180.7461c3.2323,0,5.86221,2.6294,5.86221,5.8618V323.9398c0,3.2325-2.62991,5.8623-5.86221,5.8623ZM492.98769,55.0546c-3.09469,0-5.6123,2.5176-5.6123,5.6118V323.9398c0,3.0948,2.51761,5.6123,5.6123,5.6123h180.7461c3.0946,0,5.61221-2.5175,5.61221-5.6123V60.6664c0-3.0942-2.51761-5.6118-5.61221-5.6118h-180.7461Z" style="fill:#e0e0e0;"></path><path d="M465.30609,329.8021h-180.7466c-3.2324,0-5.8618-2.6298-5.8618-5.8623V60.6664c0-3.2324,2.6294-5.8618,5.8618-5.8618h180.7466c3.2324,0,5.8623,2.6294,5.8623,5.8618V323.9398c0,3.2325-2.6299,5.8623-5.8623,5.8623ZM284.5595,55.0546c-3.0942,0-5.6118,2.5176-5.6118,5.6118V323.9398c0,3.0948,2.5176,5.6123,5.6118,5.6123h180.7466c3.0947,0,5.6123-2.5175,5.6123-5.6123V60.6664c0-3.0942-2.5176-5.6118-5.6123-5.6118h-180.7466Z" style="fill:#e0e0e0;"></path></g><path d="M257.0123,329.8021H76.2658c-3.2324,0-5.8618-2.6298-5.8618-5.8623V60.6664c0-3.2324,2.6294-5.8618,5.8618-5.8618h180.7465c3.2324,0,5.8623,2.6294,5.8623,5.8618V323.9398c0,3.2325-2.6299,5.8623-5.8623,5.8623ZM76.2658,55.0546c-3.0942,0-5.6118,2.5176-5.6118,5.6118V323.9398c0,3.0948,2.5176,5.6123,5.6118,5.6123h180.7465c3.0948,0,5.6123-2.5175,5.6123-5.6123V60.6664c0-3.0942-2.5175-5.6118-5.6123-5.6118H76.2658Z" style="fill:#e0e0e0;"></path></g><rect y="390.8715" width="750" height=".1204" style="fill:#e0e0e0;"></rect></g><g><rect x="653.62639" y="420.2476" width="55.7291" height=".4206" style="fill:#ebebeb;"></rect><rect x="495.04359" y="424.8133" width="14.6268" height=".4206" style="fill:#ebebeb;"></rect><rect x="40.6445" y="407.4503" width="72.6745" height=".4207" style="fill:#ebebeb;"></rect><rect x="128.2991" y="407.4503" width="10.6555" height=".4207" style="fill:#ebebeb;"></rect><rect x="173.5856" y="414.5544" width="157.61289" height=".4206" style="fill:#ebebeb;"></rect></g></g><g id="freepik--freepik--tree-1--inject-2--inject-17"><path d="M265.6227,164.7439c-2.0772-1.2536-4.4824-1.8561-6.9054-1.7301-1.4873-1.8059-.2884-4.5225,1.1535-6.3589,1.4417-1.8364,3.2022-3.9305,2.6559-6.2071-.8501-3.4147-5.6458-3.5513-9.1058-2.8835-1.275-2.0642-1.2447-4.6289-1.867-7.0116-.6222-2.3827-2.6558-4.8868-4.9171-4.553-2.2613,.334-3.6574,2.8381-5.8883,3.3692-2.5953,.6072-4.8415-1.6846-6.8752-3.3995-.2498-.2142-.5134-.4119-.789-.5919h0c.4249-7.1178,7.1936-5.9796,12.9606-6.9508,4.5075-.7436-7.4365-12.1413,1.6694-15.814,1.7642-.4845,3.3109-1.5549,4.386-3.0351,.9437-2.3043,.1073-4.9536-1.9881-6.2983-2.0728-1.2506-4.4724-1.8532-6.8901-1.7301-1.4873-1.8061-.2883-4.5226,1.1534-6.359,1.4418-1.8363,3.187-3.9307,2.656-6.207-.8651-3.4148-5.6458-3.5514-9.1059-2.8838-1.2749-2.0639-1.2445-4.6287-1.8668-7.0113-.6223-2.3827-2.6407-4.8869-4.9171-4.5531-2.2765,.3341-3.6575,2.8382-5.8886,3.3692-2.595,.607-4.8413-1.6845-6.8749-3.3995-2.0336-1.7149-5.5849-2.7925-6.9811-.5312-.8348,1.3356-.3339,3.2174-1.2141,4.553-1.5025,2.2765-5.0993,.8801-7.3152-.759-2.2157-1.6389-5.7973-3.1263-7.315-.8498-.3954,.7459-.6865,1.5426-.865,2.3678-.2159,.5874-.5177,1.1397-.8954,1.6389-.4401-1.5785-.5768-3.2933-.9865-4.8869-.6224-2.3675-2.6407-4.8867-4.9172-4.553-2.2765,.3341-3.6574,2.8533-5.8884,3.3694-2.5953,.622-4.8413-1.6847-6.8749-3.3996s-5.5852-2.7926-6.9813-.516c-.8345,1.3355-.3338,3.2174-1.2141,4.553-.182,.3006-.4314,.5553-.7284,.7436-.774-.1519-1.5329-.1519-2.2917-.1519-1.4874-1.7907-.2883-4.4922,1.1535-6.3436,1.4416-1.8516,3.2021-3.9459,2.6558-6.2074-.8498-3.4298-5.6456-3.5512-9.1058-2.8835-1.275-2.0791-1.2445-4.6439-1.8667-7.0114-.6223-2.3675-2.6409-4.902-4.9173-4.553-2.2763,.3491-3.6575,2.8532-5.8884,3.3843-2.5952,.6071-4.8412-1.6693-6.8749-3.3995-2.0337-1.7299-5.58509-2.7924-6.98131-.5311-.83453,1.3204-.33378,3.2175-1.21406,4.5528-1.50235,2.2615-5.06894,.8651-7.29978-.7739-2.23103-1.6391-5.81253-3.1263-7.33044-.8499-.39801,.7502-.68897,1.5522-.865,2.3827-1.04721,3.0355-4.34051,4.553-6.89001,6.4955-2.5497,1.9426-4.5683,5.8126-2.4132,8.1803,1.0624,1.1838,2.9443,1.6238,3.4754,3.1415,.6527,1.7908-1.2444,3.536-2.762,4.826-1.9885,2.2077-2.5744,5.3424-1.5176,8.1196-.7561,.6884-1.6515,1.2061-2.6257,1.5176-2.5951,.6069-4.8412-1.6847-6.8748-3.3996-2.0336-1.715-5.5849-2.7925-6.9813-.5312-.8346,1.3203-.3338,3.2175-1.2141,4.553-1.5024,2.2765-5.0689,.8801-7.2998-.7588-2.231-1.6392-5.8125-3.1264-7.3303-.8499-.3955,.7458-.6864,1.5425-.8651,2.3674-1.0471,3.0355-4.3405,4.553-6.89,6.4955-2.5496,1.9428-4.5681,5.8128-2.4132,8.1955,1.0168,1.1836,2.7773,1.6692,3.3845,3.0352-1.7907-.7133-3.855-.5311-4.6895,.8043-.8348,1.3355-.334,3.2174-1.2141,4.553-1.5026,2.2765-5.0691,.8803-7.3001-.759-2.2307-1.639-5.8124-3.1264-7.3301-.8498-.3981,.7501-.6893,1.5522-.8651,2.3828-1.047,3.0353-4.3404,4.5226-6.8901,6.4804-2.5497,1.9577-4.568,5.8277-2.413,8.1952,1.0623,1.1687,2.9443,1.624,3.4753,3.1417,.6678,1.7907-1.2293,3.5359-2.747,4.826-2.5191,2.1247-2.9745,8.5141,.3491,10.2745,1.3964,.7284,3.4756,1.1077,3.7791,2.4889,.3034,1.3811-1.0927,2.4433-2.0186,3.5057-.2144,.2752-.4066,.5671-.5751,.8727-1.7542,3.1868-.5931,7.1922,2.5937,8.9465,.8043,.3643,1.7755,.683,2.0792,1.5175,.1144,.6235,.046,1.2666-.1973,1.8517-.3183,1.1604-.4263,2.3682-.3188,3.5665-.0005,.412,.1571,.8085,.44,1.1079,.3044,.2176,.6738,.3249,1.0473,.3035,4.7957,.2124,7.1026-1.4872,10.0317,2.6862,.2558,.4203,.5971,.7822,1.0015,1.0624,.4104,.2045,.8619,.3136,1.3204,.3187,3.2934,.2732,5.418-1.7757,8.4534-2.1703,4.2038-.5311,5.0689,1.624,8.7568,3.3541,5.7822,2.7317,8.5898,1.0472,9.6825-2.8987,.2875-1.1177,.4603-2.2619,.516-3.4147-.0252-1.7398,.7121-3.4036,2.0185-4.553h.091c3.0808,.2581,5.16-1.5025,7.8615-2.0488l1.7149-.182c3.2022-.0305,4.2645,1.8969,7.5883,3.4145,1.5292,.8058,3.22,1.2571,4.9473,1.3203,.4858,1.7911-1.2747,3.3995-2.7923,4.6442-2.5041,2.1398-2.9593,8.5292,.3643,10.2745,1.381,.7283,3.4754,1.1382,3.7789,2.504,.3035,1.3659-1.0927,2.4433-2.0184,3.4906-.2124,.2726-.4029,.5615-.5698,.8639-1.7623,3.1919-.6036,7.2081,2.5882,8.9705,.7891,.3793,1.7756,.683,2.0639,1.5175,.1281,.6265,.0645,1.277-.182,1.8669-.3332,1.1523-.4414,2.3579-.3187,3.5512-.0054,.4147,.1463,.8159,.4249,1.1231,.3123,.2113,.686,.3126,1.0623,.2883,4.79579,.2125,7.10257-1.4873,10.03181,2.6863,.24749,.4264,.59032,.79,1.0015,1.0624,.41173,.2029,.86171,.3166,1.32038,.3337,3.29338,.2732,5.41809-1.7908,8.45327-2.1701,4.18874-.5311,5.06894,1.6238,8.74154,3.3539,5.7975,2.7167,8.6051,1.0472,9.6978-2.8988,.2884-1.1225,.4614-2.2718,.5161-3.4298,.4249-7.1025,7.1936-5.9794,12.9758-6.9357,.4082-.0322,.7675-.2815,.941-.6524h.3642c3.2934,.2731,5.4181-1.7758,8.4533-2.1702,4.2038-.5313,5.0689,1.6238,8.7569,3.354,5.7821,2.7317,8.5898,1.0471,9.6825-2.8988,.2885-1.1228,.4613-2.2719,.516-3.4297,.3795-5.5244,4.5529-6.0707,9.1059-6.4956,.1448,2.1858,1.407,4.1423,3.3388,5.1752,.8044,.364,1.7758,.6828,2.0792,1.5176,.1146,.6232,.0462,1.2663-.1973,1.8514-.3174,1.1553-.4254,2.358-.3186,3.5514-.0056,.4145,.1462,.816,.4249,1.1231,.3141,.2087,.6853,.3146,1.0624,.3034,4.7957,.2126,7.1025-1.4873,10.0316,2.6862,.2559,.4203,.5972,.7822,1.0016,1.0624,.4105,.2047,.8618,.3138,1.3203,.3188,3.2934,.2731,5.4181-1.7756,8.4534-2.1702,4.2037-.5313,5.0689,1.6238,8.7567,3.354,5.7823,2.7317,8.5899,1.047,9.6825-2.8988,.2875-1.1178,.4605-2.2619,.5161-3.4147,.4249-7.1178,7.2089-5.9796,12.9759-6.9508,4.5074-.7436-7.4516-12.141,1.6542-15.8139,1.7641-.4846,3.3111-1.555,4.3861-3.0353,.8395-2.2044,.0773-4.6975-1.8514-6.0556Z" style="fill:#e0e0e0;"></path><path d="M97.9943,207.1611c-1.7269-1.0506-3.731-1.5544-5.7495-1.4454-1.2366-1.5095-.2248-3.758,.9637-5.2997,1.1884-1.5417,2.6659-3.212,2.2-5.1714-.6744-2.8586-4.6734-2.9549-7.5481-2.393-1.076-1.7342-1.0439-3.8864-1.6059-5.8457-.5622-1.9593-2.0879-4.0149-4.0954-3.7741-2.0074,.2409-3.0513,2.3769-4.9143,2.8107-2.1521,.5137-4.031-1.3975-5.7173-2.8268-1.6862-1.4292-4.6574-2.3286-5.8299-.4495-.6904,1.1242-.2729,2.714-.9955,3.8222-1.2687,1.9273-4.2399,.7227-6.103-.6424-1.8628-1.3649-4.8179-2.6017-6.1026-.7067-.3236,.6253-.5666,1.2891-.7227,1.9756-.8672,2.5373-3.5974,3.79-5.7334,5.4119-2.136,1.6221-3.8224,4.818-2.0075,6.8256,.8833,.9797,2.4411,1.3811,2.8909,2.6177,.5459,1.6061-1.044,2.9551-2.2967,4.0151-2.0878,1.7826-2.4732,7.1146,.2891,8.56,1.1724,.6101,2.8747,.8028,3.212,2.0876s-.8994,2.0396-1.6061,2.923c-1.8588,2.3972-1.4225,5.8473,.9747,7.7062,.2246,.1742,.4626,.3309,.7116,.4684,.6584,.3211,1.4776,.578,1.7184,1.2847,.1192,.5388,.0631,1.1015-.1606,1.6059-.2683,.9606-.3554,1.9626-.2569,2.9551-.0069,.3445,.1196,.6783,.3534,.9315,.2568,.183,.5681,.2734,.8833,.2568,3.9827,.1769,5.91-1.2364,8.3511,2.2324,.2133,.3498,.4981,.6507,.8352,.8833,.3446,.1715,.7232,.2646,1.1079,.273,2.7465,.225,4.529-1.4775,7.0503-1.7986,3.469-.4496,4.2078,1.349,7.2755,2.7943,4.8179,2.2645,7.1787,.8673,8.0297-2.425,.2387-.9307,.3839-1.8829,.4338-2.8425,.3533-5.9261,6.0063-4.9946,10.8083-5.7977,3.758-.6264-6.183-10.1018,1.3811-13.1692,1.4807-.3988,2.7757-1.3019,3.6616-2.5534,.8152-1.9412,.1006-4.1868-1.6862-5.2999Z" style="fill:#e0e0e0;"></path><path d="M171.8561,176.0063l6.1887-19.6267,12.0489-15.4971-2.0585-1.7175-11.3669,12.3898-2.0208-19.6268h-3.2907s2.7036,23.3182-1.1865,31.856c0,0-14.1268,35.9412-22.7276,43.7214-.4871,.451-.9119,.9647-1.263,1.528-2.5793-6.6158-5.9326-12.9028-9.9903-18.7302,3.3975-8.6893,10.6849-27.7855,13.1603-38.0032,1.9407-7.9367,3.3959-15.9841,4.3574-24.0978l-2.8177-.3102s-7.9934,37.7451-21.20438,54.9218c-3.91391-3.5962-8.35135-6.5773-13.16026-8.841-1.07361-5.3044-1.52826-14.537,1.98279-28.9477l-2.79235-.7134s-5.3287,12.1941-4.8615,26.8321c-1.9875-.9988-3.9032-2.1338-5.7338-3.3975-12.7309-8.9545-21.6854-25.1334-21.6854-25.1334l-2.6064,2.5361s10.8661,23.8604,26.0095,31.8297c15.14322,7.9697,24.95657,27.3942,25.73977,32.4842,.21456,1.4523,1.96414,12.9851-.46104,33.1901-16.11337-6.8738-48.04403-25.8045-50.16583-27.5475l-3.717,4.9987,51.65976,36.9648c.80827,49.2565-2.83389,124.0574-2.69491,135.1466h30.08385c-.7409-15.2955-7.1595-96.3662-4.3455-156.4825,.2399-1.4776,.4926-3.1701,.7324-5.1403,2.3492-18.4397,16.3429-43.6335,22.9992-50.7974,7.1328-7.677,15.0602-13.7627,15.0602-13.7627l-1.8299-3.9253-18.0425,13.8989Z" style="fill:#e6e6e6;"></path></g><g id="freepik--freepik--tree-1--inject-2-2--inject-17"><path d="M539.43929,191.0365c-1.99229-1.2024-4.2992-1.7803-6.6231-1.6595-1.4264-1.732-.2766-4.3375,1.1063-6.0988,1.3828-1.7613,3.0714-3.7699,2.5474-5.9534-.8154-3.2751-5.415-3.406-8.7336-2.7656-1.2228-1.9797-1.1938-4.4396-1.7906-6.7249-.59669-2.2853-2.5472-4.687-4.716-4.3668-2.1689,.3203-3.5079,2.722-5.6476,3.2315-2.4892,.5823-4.6436-1.6158-6.59409-3.2606-.23961-.2054-.49241-.395-.75671-.5677h0c.4075-6.8267,6.8994-5.7351,12.4306-6.6666,4.3233-.7132-7.1324-11.6449,1.6012-15.1674,1.6921-.4647,3.1756-1.4913,4.2067-2.911,.9051-2.2101,.1029-4.7511-1.90679-6.0408-1.98811-1.1995-4.28961-1.7775-6.60851-1.6594-1.4264-1.7322-.2764-4.3377,1.1063-6.099,1.3829-1.7612,3.0567-3.77,2.5474-5.9533-.8297-3.2751-5.4149-3.4062-8.7336-2.7658-1.2228-1.9795-1.19359-4.4394-1.7905-6.7246-.5968-2.2854-2.5327-4.6871-4.716-4.367-2.1834,.3204-3.508,2.7222-5.6478,3.2315-2.489,.5822-4.6434-1.6157-6.5939-3.2605-1.95039-1.6448-5.3565-2.6784-6.6957-.5095-.8006,1.2809-.3202,3.0859-1.1644,4.3668-1.4411,2.1834-4.8908,.8441-7.0161-.7279-2.1251-1.572-5.5603-2.9985-7.016-.8151-.3791,.7154-.6584,1.4795-.8296,2.2709-.2071,.5635-.4965,1.0932-.8588,1.572-.4221-1.514-.5532-3.1587-.9461-4.6871-.5969-2.2707-2.53269-4.687-4.7162-4.3668-2.1834,.3204-3.5078,2.7366-5.6477,3.2315-2.4891,.5967-4.6433-1.6158-6.59379-3.2605-1.95041-1.6449-5.35681-2.6784-6.69581-.4949-.8004,1.2808-.3201,3.0858-1.1645,4.3668-.1746,.2883-.41369,.5326-.6985,.7132-.7424-.1457-1.4703-.1457-2.1981-.1457-1.4266-1.7175-.2765-4.3085,1.1063-6.0843s3.0712-3.7845,2.5473-5.9535c-.8151-3.2896-5.4149-3.406-8.7336-2.7656-1.2228-1.9941-1.1935-4.4541-1.7903-6.7247-.5969-2.2708-2.5329-4.7016-4.7162-4.3669-2.1833,.3348-3.508,2.7366-5.6477,3.2459-2.4891,.5824-4.6433-1.601-6.5938-3.2605-1.9506-1.6592-5.3568-2.6782-6.6959-.5093-.8004,1.2663-.3201,3.0859-1.1644,4.3666-1.4409,2.1691-4.8617,.8298-7.0013-.7423-2.1399-1.572-5.5749-2.9985-7.0308-.8151-.38169,.7195-.6608,1.4887-.8296,2.2853-1.0044,2.9113-4.163,4.3668-6.6083,6.2299-2.4454,1.8632-4.3815,5.5749-2.3145,7.8458,1.0189,1.1354,2.8238,1.5574,3.3333,3.0131,.626,1.7176-1.19359,3.3914-2.6491,4.6287-1.9073,2.1174-2.4691,5.124-1.4556,7.7876-.7252,.6603-1.584,1.1568-2.5183,1.4555-2.489,.5822-4.6432-1.6157-6.5938-3.2605-1.9504-1.645-5.3565-2.6784-6.69579-.5095-.80041,1.2663-.32021,3.0859-1.16441,4.3668-1.441,2.1834-4.8617,.8441-7.0014-.7278-2.1398-1.5721-5.5749-2.9986-7.0306-.8152-.3793,.7154-.6584,1.4795-.8297,2.2707-1.0043,2.9113-4.163,4.3668-6.6083,6.23-2.4454,1.8632-4.3813,5.575-2.3145,7.8603,.9752,1.1352,2.6637,1.601,3.2461,2.9111-1.7175-.6841-3.6974-.5093-4.4978,.7715-.8007,1.2808-.3203,3.0858-1.1645,4.3668-1.4411,2.1834-4.8618,.8443-7.0016-.7279-2.1394-1.5721-5.5748-2.9986-7.0304-.8151-.3818,.7194-.6611,1.4887-.8297,2.2853-1.00419,2.9113-4.163,4.3377-6.6084,6.2155-2.4455,1.8777-4.3813,5.5894-2.3144,7.8601,1.0189,1.1209,2.824,1.5576,3.3333,3.0132,.6405,1.7176-1.1791,3.3914-2.6347,4.6287-2.4161,2.0379-2.8529,8.1661,.3348,9.8545,1.3393,.6986,3.3335,1.0624,3.6246,2.3871,.291,1.3246-1.048,2.3434-1.9361,3.3624-.2056,.2639-.39,.5439-.5515,.837-1.6826,3.0565-.5689,6.8982,2.4876,8.5807,.7714,.3494,1.7029,.6551,1.9942,1.4555,.1097,.598,.0441,1.2148-.1892,1.776-.3053,1.1129-.4089,2.2713-.3058,3.4207-.0005,.3951,.1506,.7754,.422,1.0626,.2919,.2087,.6463,.3115,1.0045,.2911,4.5996,.2036,6.8122-1.4265,9.6215,2.5763,.24541,.4031,.5727,.7503,.9606,1.019,.3936,.1961,.8266,.3007,1.2664,.3056,3.1588,.2621,5.1965-1.703,8.1078-2.0815,4.0319-.5094,4.86161,1.5575,8.3987,3.217,5.5458,2.62,8.2386,1.0043,9.2866-2.7803,.2758-1.072,.4415-2.1693,.495-3.2751-.0242-1.6686,.683-3.2643,1.9359-4.3668h.0873c2.9548,.2476,4.94911-1.441,7.54011-1.965l1.64479-.1746c3.07121-.0293,4.0901,1.8194,7.278,3.275,1.4667,.7728,3.0884,1.2056,4.7451,1.2663,.4659,1.7178-1.2226,3.2605-2.6782,4.4543-2.4018,2.0522-2.8383,8.1804,.3494,9.8543,1.3245,.6986,3.3333,1.0917,3.6244,2.4017,.2911,1.3101-1.0481,2.3434-1.9359,3.3479-.2037,.2614-.3864,.5385-.5465,.8286-1.6903,3.0613-.5789,6.9133,2.4824,8.6036,.7569,.3639,1.703,.6551,1.9796,1.4555,.1228,.6009,.0618,1.2248-.1747,1.7906-.3195,1.1052-.4233,2.2615-.3056,3.406-.0052,.3978,.1403,.7826,.4075,1.0772,.2995,.2026,.658,.2999,1.0189,.2765,4.5997,.2038,6.8122-1.4264,9.6216,2.5765,.2374,.4089,.56621,.7577,.9606,1.0189,.3949,.1947,.8265,.3037,1.2664,.3201,3.1587,.262,5.1965-1.7176,8.1076-2.0814,4.0175-.5093,4.8617,1.5575,8.3842,3.2168,5.56041,2.6056,8.2532,1.0044,9.3013-2.7802,.2766-1.0767,.4425-2.179,.4949-3.2896,.4076-6.8121,6.8996-5.7349,12.4453-6.6522,.3916-.0308,.7362-.27,.9026-.6257h.34931c3.15879,.2619,5.19659-1.7032,8.10769-2.0815,4.0319-.5096,4.8616,1.5574,8.3988,3.2169,5.5457,2.62,8.2386,1.0043,9.2866-2.7803,.2767-1.0768,.4425-2.179,.495-3.2895,.36391-5.2984,4.3667-5.8224,8.7335-6.23,.1389,2.0964,1.3495,3.973,3.2023,4.9636,.7716,.3492,1.7032,.6549,1.9943,1.4556,.10981,.5977,.0442,1.2145-.1893,1.7757-.3045,1.108-.408,2.2615-.3056,3.4062-.00529,.3975,.1402,.7826,.4075,1.0771,.3013,.2002,.6573,.3018,1.019,.2911,4.5996,.2039,6.8121-1.4265,9.6215,2.5763,.2454,.4031,.57271,.7502,.9606,1.019,.3937,.1963,.8266,.3009,1.2663,.3057,3.1587,.262,5.1966-1.7029,8.10781-2.0814,4.03189-.5096,4.86169,1.5574,8.39869,3.2168,5.5458,2.6201,8.2387,1.0043,9.2866-2.7802,.2758-1.0721,.44171-2.1694,.495-3.2751,.4075-6.8268,6.9142-5.7351,12.4453-6.6667,4.3232-.7131-7.1469-11.6446,1.5866-15.1673,1.692-.4647,3.1757-1.4914,4.20681-2.9112,.80519-2.1142,.07409-4.5054-1.77571-5.8079Z" style="fill:#ebebeb;"></path><path d="M378.66449,231.7194c-1.6563-1.0076-3.5784-1.4909-5.5144-1.3863-1.186-1.4479-.2156-3.6043,.9243-5.083s2.5569-3.0807,2.1101-4.96c-.6469-2.7417-4.4824-2.8341-7.23949-2.2951-1.032-1.6634-1.00121-3.7276-1.54031-5.6068-.5392-1.8791-2.0025-3.8507-3.928-3.6197-1.9252,.231-2.9265,2.2796-4.7133,2.6957-2.0641,.4927-3.8662-1.3403-5.4836-2.7112-1.6172-1.3708-4.467-2.2334-5.5915-.4311-.6622,1.0782-.2617,2.603-.9548,3.6659-1.2168,1.8485-4.0666,.6932-5.8534-.6161-1.7867-1.3091-4.621-2.4954-5.8532-.6778-.3104,.5997-.5434,1.2364-.6931,1.8948-.83179,2.4336-3.4503,3.635-5.499,5.1907s-3.6661,4.6209-1.9254,6.5465c.8471,.9396,2.3413,1.3246,2.7727,2.5106,.5236,1.5405-1.0013,2.8343-2.2028,3.851-2.0025,1.7097-2.3721,6.8237,.2772,8.2099,1.12451,.5853,2.7572,.7701,3.0808,2.0023,.3234,1.2323-.8627,1.9563-1.5405,2.8035-1.78279,2.2992-1.3643,5.6083,.9349,7.3912,.2154,.1671,.4436,.3173,.6825,.4492,.6315,.3079,1.4172,.5543,1.6481,1.2322,.1144,.5167,.0605,1.0564-.154,1.5402-.2574,.9214-.3409,1.8824-.2464,2.8343-.0067,.3304,.1147,.6505,.3389,.8934,.2463,.1755,.5449,.2623,.84721,.2463,3.81989,.1696,5.66839-1.1858,8.00969,2.1411,.2046,.3355,.4777,.6241,.801,.8472,.3305,.1645,.6937,.2538,1.0627,.2619,2.6341,.2157,4.3437-1.4171,6.762-1.7251,3.3271-.4312,4.0357,1.2938,6.978,2.68,4.621,2.1719,6.8852,.8319,7.7014-2.3258,.229-.8927,.36821-1.8059,.4161-2.7263,.3388-5.6838,5.7607-4.7904,10.3663-5.5607,3.6044-.6007-5.93019-9.6887,1.3247-12.6307,1.42011-.3825,2.6622-1.2487,3.5119-2.449,.7818-1.8618,.0965-4.0156-1.6173-5.0832Z" style="fill:#e0e0e0;"></path><path d="M449.09909,200.4877l5.9357-18.8954,11.55621-14.9196-1.97431-1.6536-10.9022,11.9281-1.9382-18.8954h-3.1561s2.593,22.4493-1.138,30.6689c0,0-13.54919,34.602-21.7983,42.0923-.4672,.4342-.8746,.9288-1.2115,1.4711-2.4738-6.3693-5.69-12.422-9.5817-18.0323,3.2586-8.3655,10.248-26.7502,12.6222-36.5871,1.8613-7.641,3.25711-15.3885,4.1792-23.1999l-2.7025-.2986s-7.66659,36.3386-20.3374,52.8753c-3.7539-3.4622-8.0099-6.3322-12.62219-8.5116-1.02971-5.1068-1.46571-13.9953,1.90179-27.869l-2.6782-.6868s-5.1109,11.7396-4.6628,25.8322c-1.9062-.9615-3.7436-2.0542-5.4993-3.2709-12.21049-8.6208-20.7988-24.1968-20.7988-24.1968l-2.4998,2.4415s10.4218,22.9713,24.946,30.6437c14.52411,7.6727,23.9362,26.3735,24.6874,31.2738,.2058,1.3982,1.8838,12.5012-.4422,31.9534-15.4545-6.6177-46.0797-24.843-48.1147-26.5211l-3.5651,4.8125,49.5476,35.5874c.7753,47.4211-2.718,101.6658-2.5847,112.3417h28.85381c-.71061-14.7255-6.86681-75.0064-4.16781-132.8825,.2301-1.4226,.4725-3.0521,.7025-4.9488,2.2531-17.7527,15.6746-42.0076,22.0588-48.9046,6.8412-7.391,14.44451-13.2499,14.44451-13.2499l-1.75511-3.779-17.3048,13.381Z" style="fill:#e6e6e6;"></path></g><path d="M647.67649,83.0123c-2.1498-1.6241-5.28649-1.808-7.61149-.4462-3.086-6.2362-11.68561-8.9885-17.819-5.7028-1.59991-6.7197-8.22091-11.885-15.12811-11.802-6.9074,.0832-13.402,5.4061-14.83989,12.1627-.22851,1.0737-.37981,2.25-1.14791,3.0343-1.2475,1.2745-3.3306,.8466-5.1084,.708-5.5939-.4364-11.2226,3.4909-12.744,8.8916l77.035-.2804c.6747-2.6084-.48669-4.9408-2.6362-6.5652Z" style="fill:#ebebeb;"></path><path d="M715.13149,159.7194c-2.1498-1.6241-5.28649-1.808-7.61149-.4462-3.086-6.2362-11.68561-8.9885-17.819-5.7028-1.59991-6.7197-8.22091-11.885-15.12811-11.802-6.9074,.0832-13.402,5.4061-14.83989,12.1627-.22851,1.0737-.37981,2.25-1.14791,3.0343-1.2475,1.2745-3.3306,.8466-5.1084,.708-5.5939-.4364-11.2226,3.4909-12.744,8.8916l77.035-.2804c.6747-2.6084-.48669-4.9408-2.6362-6.5652Z" style="fill:#ebebeb;"></path><path d="M347.33429,88.4476c-1.5054-1.1374-3.702-1.2661-5.3301-.3125-2.1611-4.3671-8.18319-6.2944-12.4783-3.9935-1.1204-4.7057-5.75689-8.3229-10.59389-8.2647-4.8371,.0582-9.3852,3.7857-10.3921,8.5172-.16,.7519-.2659,1.5757-.8038,2.1249-.8736,.8925-2.3323,.5929-3.5773,.4958-3.9173-.3056-7.859,2.4446-8.9243,6.2266l53.946-.1964c.4724-1.8265-.3409-3.4599-1.8462-4.5974Z" style="fill:#f5f5f5;"></path></g><g id="freepik--Shadow--inject-17"><path d="M572.059,455.2766c0,3.3867-93.51651,6.1322-208.875,6.1322s-208.875-2.7455-208.875-6.1322,93.5165-6.1323,208.875-6.1323,208.875,2.7455,208.875,6.1323Z" style="fill:#f5f5f5;"></path></g><g id="freepik--Bus--inject-17"><g><g><path d="M604.17329,181.6187c-.2418-.0806,10.7071-.0427,16.5332-.017,1.9621,.0087,3.5393,1.6017,3.5393,3.5638v24.2991" style="fill:none; stroke:#263238; stroke-miterlimit:10;"></path><rect x="615.69829" y="187.2124" width="16.1258" height="44.5043" rx="4.5315" ry="4.5315" transform="translate(1247.52237 418.9291) rotate(180)" style="fill:#407BFF;"></rect></g><g><rect x="80.9303" y="299.3622" width="505.55949" height="55.1387" style="fill:#407BFF;"></rect><rect x="80.9303" y="299.3622" width="505.55949" height="55.1387" style="opacity:.3;"></rect></g><g><path d="M535.36749,355.7004c0,13.5251-3.3209,32.1416,3.341,39.1831h21.7033c13.8315,0,25.04421-17.5429,25.04421-39.1831s-11.21271-39.1832-25.04421-39.1832c-5.9494,0-21.0006-.7105-21.7033,0-6.4447,6.516-3.341,26.851-3.341,39.1832Z" style="fill:#263238;"></path><path d="M535.36749,355.7004c0,13.5251-3.3209,32.1416,3.341,39.1831h21.7033c13.8315,0,25.04421-17.5429,25.04421-39.1831s-11.21271-39.1832-25.04421-39.1832c-5.9494,0-21.0006-.7105-21.7033,0-6.4447,6.516-3.341,26.851-3.341,39.1832Z" style="opacity:.3;"></path><ellipse cx="538.70846" cy="355.70037" rx="25.04422" ry="39.18313" style="fill:#263238;"></ellipse><ellipse cx="536.96679" cy="354.50092" rx="12.77021" ry="19.97968" style="fill:#fff; opacity:.3;"></ellipse></g><g><path d="M633.59429,355.7004c0,13.5251-3.3209,32.1416,3.341,39.1831h21.7033c13.8315,0,25.0442-17.5429,25.0442-39.1831s-11.2127-39.1832-25.0442-39.1832c-5.9494,0-21.00059-.7105-21.7033,0-6.4447,6.516-3.341,26.851-3.341,39.1832Z" style="fill:#263238;"></path><path d="M633.59429,355.7004c0,13.5251-3.3209,32.1416,3.341,39.1831h21.7033c13.8315,0,25.0442-17.5429,25.0442-39.1831s-11.2127-39.1832-25.0442-39.1832c-5.9494,0-21.00059-.7105-21.7033,0-6.4447,6.516-3.341,26.851-3.341,39.1832Z" style="opacity:.3;"></path><ellipse cx="636.93527" cy="355.70037" rx="25.04422" ry="39.18313" style="fill:#263238;"></ellipse><ellipse cx="635.19359" cy="354.50092" rx="12.7702" ry="19.97968" style="fill:#fff; opacity:.3;"></ellipse></g><g><path d="M312.5872,355.7004c0,13.5251-3.3209,32.1416,3.3409,39.1831h21.7033c13.83161,0,25.0443-17.5429,25.0443-39.1831s-11.21269-39.1832-25.0443-39.1832c-5.9493,0-21.0005-.7105-21.7033,0-6.4447,6.516-3.3409,26.851-3.3409,39.1832Z" style="fill:#263238;"></path><path d="M312.5872,355.7004c0,13.5251-3.3209,32.1416,3.3409,39.1831h21.7033c13.83161,0,25.0443-17.5429,25.0443-39.1831s-11.21269-39.1832-25.0443-39.1832c-5.9493,0-21.0005-.7105-21.7033,0-6.4447,6.516-3.3409,26.851-3.3409,39.1832Z" style="opacity:.3;"></path><ellipse cx="315.92812" cy="355.70037" rx="25.04427" ry="39.18313" style="fill:#263238;"></ellipse><ellipse cx="314.1864" cy="354.50092" rx="12.7702" ry="19.97968" style="fill:#fff; opacity:.3;"></ellipse></g><g><path d="M156.2157,355.4701c0,13.5252-3.3209,32.1416,3.341,39.1831h21.7033c13.8315,0,25.0442-17.5428,25.0442-39.1831s-11.2127-39.1831-25.0442-39.1831c-5.9494,0-21.0006-.7106-21.7033,0-6.4447,6.5159-3.341,26.8509-3.341,39.1831Z" style="fill:#263238;"></path><path d="M156.2157,355.4701c0,13.5252-3.3209,32.1416,3.341,39.1831h21.7033c13.8315,0,25.0442-17.5428,25.0442-39.1831s-11.2127-39.1831-25.0442-39.1831c-5.9494,0-21.0006-.7106-21.7033,0-6.4447,6.5159-3.341,26.8509-3.341,39.1831Z" style="opacity:.3;"></path><ellipse cx="159.55667" cy="355.4701" rx="25.04423" ry="39.1831" style="fill:#263238;"></ellipse><ellipse cx="157.815" cy="354.27068" rx="12.7702" ry="19.97963" style="fill:#fff; opacity:.3;"></ellipse></g><path d="M699.47549,287.3824c-.85-4.7708-4.5999-8.4966-9.3759-9.316l-82.5702-22.5958v-81.8799c0-9.4282-7.643-17.0712-17.0712-17.0712H78.4856c-8.9572,0-16.2185,7.2612-16.2185,16.2185v186.2056l66.24637,.6211c-.37325-2.4377-.57906-4.9422-.57906-7.5037,0-23.6502,16.59949-42.8224,37.07579-42.8224s37.0759,19.1722,37.0759,42.8224c0,2.7203-.2294,5.3774-.6492,7.9569l204.93699,1.064h101.4875c-.54039-2.9092-.83139-5.9252-.83139-9.0209,0-23.6502,16.59939-42.8224,37.07589-42.8224,17.20311,0,31.6653,13.5346,35.8509,31.886h119.5187v-53.7422Z" style="fill:#407BFF;"></path><path d="M494.93989,262.4311l120.2602,28.72v68.3061c0,3.1009,2.5138,5.6147,5.6147,5.6147h73.1317c3.1009,0,5.6147-2.5138,5.6147-5.6147v-71.3393c0-.3952-.03019-.7927-.1194-1.1777-1.0407-4.4892-4.67679-7.9472-9.2564-8.7329l-79.8127-21.6498c-2.4476-.6628-2.7575-.9461-2.7575-.9461v-81.8799c0-9.3892-7.6821-17.0712-17.07119-17.0712h-99.83621c-1.71479,0-.421,80.6184-.0775,100.4116,.0444,2.5617,1.8176,4.764,4.3096,5.3592Z" style="fill:#fff; opacity:.3;"></path><rect x="71.3232" y="183.8568" width="331.9388" height="85.1158" style="fill:#263238;"></rect><rect x="78.8915" y="191.3257" width="317.94559" height="69.331" style="fill:#fff; opacity:.3;"></rect><rect x="497.45849" y="183.8568" width="107.4788" height="71.7514" style="fill:#263238;"></rect><rect x="413.14829" y="183.8568" width="71.2064" height="178.0189" style="fill:#263238;"></rect><rect x="579.36129" y="340.5175" width="121.5396" height="24.4136"></rect><path d="M501.31129,194.6875s-1.4829,57.2398,1.4829,57.5364c2.96581,.2966,94.0157,0,94.0157,0,0,0,.2966-52.4946-1.1863-53.9775s-94.3123-3.5589-94.3123-3.5589Z" style="fill:#fff; opacity:.3;"></path><path d="M687.47409,316.2014c0,5.8784,1.9667,10.6438,4.3928,10.6438s4.3929-4.7654,4.3929-10.6438-1.96679-10.6437-4.3929-10.6437-4.3928,4.7654-4.3928,10.6437Z" style="fill:#fff;"></path><path d="M594.17739,172.4949c0,3.555,1.1895,6.437,2.6567,6.437s2.6567-2.882,2.6567-6.437-1.1895-6.4371-2.6567-6.4371-2.6567,2.882-2.6567,6.4371Z" style="fill:#fff;"></path><path d="M499.62939,171.6689c0,3.5551,1.1895,6.437,2.6567,6.437,1.4673,0,2.6567-2.8819,2.6567-6.437s-1.1894-6.4371-2.6567-6.4371c-1.4672,0-2.6567,2.882-2.6567,6.4371Z" style="fill:#fff;"></path><path d="M625.777,315.9331c0,5.8784,2.08719,10.6437,4.662,10.6437s4.66189-4.7653,4.66189-10.6437-2.0872-10.6437-4.66189-10.6437-4.662,4.7653-4.662,10.6437Z" style="fill:#fff;"></path><rect x="649.692" y="313.4619" width="30.88969" height="12.2111" style="fill:#fff;"></rect><rect x="517.18669" y="165.6407" width="64.7468" height="13.7084" style="fill:#fff;"></rect><rect x="615.11439" y="291.0909" width="84.3611" height="73.8402" style="opacity:.3;"></rect><polygon points="62.2671 284.186 489.75319 283.041 489.75319 279.1687 62.2671 279.1687 62.2671 284.186" style="fill:#263238;"></polygon><polygon points="63.4693 296.1082 489.75939 294.9632 489.75319 291.0909 62.2671 291.0909 63.4693 296.1082" style="fill:#263238;"></polygon><rect x="419.25339" y="188.5809" width="59.0557" height="152.5973" style="fill:#fff; opacity:.3;"></rect><path d="M478.30909,217.1139c0-.5877-59.0557,38.4943-59.0557,38.4943v29.5216l59.0557-38.499v-29.5169Z" style="fill:#fff; opacity:.3;"></path><polygon points="140.6132 191.3257 78.8915 230.9043 78.8915 260.4259 187.0196 191.3257 140.6132 191.3257" style="fill:#fff; opacity:.3;"></polygon><polygon points="295.8248 191.3257 183.2212 260.4259 234.1031 260.4259 342.23129 191.3257 295.8248 191.3257" style="fill:#fff; opacity:.3;"></polygon><rect x="446.80909" y="186.0453" width="4.2296" height="169.4972" style="fill:#263238;"></rect><path d="M489.75319,156.5195v205.5359" style="fill:none; stroke:#000; stroke-miterlimit:10; stroke-width:.75px;"></path><path d="M586.48979,324.8009c-9.5816-27.3389-29.3181-31.1061-40.7734-30.7756-11.4553-.3305-31.192,3.4367-40.7736,30.7756,0,0,.6357-1.6001,2.0674-4.0564,17.1934-29.4974,60.2191-29.4974,77.4124,.0002,1.4316,2.4561,2.0672,4.0562,2.0672,4.0562Z" style="opacity:.3;"></path><path d="M209.5263,327.3914c-9.9911-26.8176-37.3949-28.6306-43.7497-28.2401-8.3758,.0858-33.81274-.56-43.74959,28.2401,0,0,10.73749-25.5274,43.74959-26.1642,33.0122,.6368,43.7497,26.1642,43.7497,26.1642Z" style="opacity:.3;"></path><path d="M586.44129,183.8568c-.539,0-88.9828,41.0403-88.9828,41.0403v22.8157l107.4788-53.8953v-9.9607h-19.39429" style="fill:#fff; opacity:.3;"></path><rect x="75.2095" y="200.6474" width="324.13079" height="3.2903" style="fill:#263238;"></rect><rect x="149.4769" y="190.0587" width="3.0266" height="73.7391" style="fill:#263238;"></rect><rect x="232.0093" y="189.5451" width="3.0266" height="73.7391" style="fill:#263238;"></rect><rect x="314.5417" y="189.5451" width="3.0266" height="73.7391" style="fill:#263238;"></rect><rect x="201.4369" y="344.0941" width="211.71139" height="19.7895"></rect><rect x="58.9558" y="341.9663" width="71.4569" height="24.0452"></rect><rect x="411.225" y="361.0819" width="74.04519" height="17.7062"></rect><rect x="484.35469" y="344.0941" width="25.5252" height="20.837"></rect><path d="M519.16359,260.7253l94.7662,18.4434,66.6519,2.5086s-67.9626,3.799-68.69069,2.5087c-.72811-1.2904-92.72741-23.4607-92.72741-23.4607Z" style="opacity:.3;"></path><g><path d="M489.84579,179.3978s11.9807-.0427,17.8068-.017c1.9621,.0087,3.5393,1.6017,3.5393,3.5638v24.2991" style="fill:none; stroke:#263238; stroke-miterlimit:10;"></path><rect x="502.64439" y="184.9915" width="16.1258" height="44.5043" rx="4.5315" ry="4.5315" transform="translate(1021.41458 414.4873) rotate(180)" style="fill:#407BFF;"></rect></g><rect x="232.0093" y="303.4733" width="154.5808" height="31.048" rx="2.4599" ry="2.4599" style="opacity:.3;"></rect><path d="M62.2671,178.1059c0-1.7324,2.6779-15.2,25.685-15.7611,23.007-.5612,515.34379,0,515.34379,0,0,0-4.2665-6.0452-14.3222-5.8253-3.9058,.0854-42.5392,.0605-99.2205,0-131.7199-.1407-352.29959-.0819-412.12399,.0945-8.4939,.025-15.3621,6.9177-15.3621,15.4117v6.0802Z" style="fill:#fff; opacity:.3;"></path></g></g><g id="freepik--Speech_Bubble--inject-17"><g><path d="M315.6228,243.2404h-23.2166c-3.6736,0-6.6517,2.978-6.6517,6.6516v15.8722c0,3.6737,2.9781,6.6518,6.6517,6.6518h1.637v6.0047l4.8793-6.0047h16.7003c3.6737,0,6.6518-2.9781,6.6518-6.6518v-15.8722c0-3.6736-2.9781-6.6516-6.6518-6.6516Z" style="fill:#407BFF;"></path><path d="M315.6228,243.2404h-23.2166c-3.6736,0-6.6517,2.978-6.6517,6.6516v15.8722c0,3.6737,2.9781,6.6518,6.6517,6.6518h1.637v6.0047l4.8793-6.0047h16.7003c3.6737,0,6.6518-2.9781,6.6518-6.6518v-15.8722c0-3.6736-2.9781-6.6516-6.6518-6.6516Z" style="fill:#fff; opacity:.6;"></path><g><circle cx="312.1791" cy="257.8282" r="1.872" style="fill:#fff;"></circle><path d="M302.0576,257.8282c0,1.0338,.8381,1.872,1.872,1.872,1.0338,0,1.8719-.8382,1.8719-1.872,0-1.0339-.8381-1.872-1.8719-1.872-1.0339,0-1.872,.8381-1.872,1.872Z" style="fill:#fff;"></path><circle cx="295.68" cy="257.8282" r="1.872" style="fill:#fff;"></circle></g></g></g><g id="freepik--Character_2--inject-17"><g id="freepik--_Group_--inject-17"><path d="M396.96179,315.6381s10.9623,14.2821,3.1067,17.9955c-7.8556,3.7133-14.3414-15.9934-14.3414-15.9934l11.2347-2.0021Z" style="fill:#b97964;"></path><g><path d="M389.23049,300.5522c6.2388,5.9953,9.4951,16.307,9.4951,16.307l-13.30159,6.7855v-21.549l3.80649-1.5435Z" style="fill:#407BFF;"></path></g><rect x="334.016" y="297.1848" width="44.92859" height="40.9109" rx="8.0369" ry="8.0369" transform="translate(712.96059 635.2805) rotate(180)" style="fill:#263238;"></rect><path d="M360.58369,379.0055c-5.9242,42.4422-25.1661,69.4014-25.1661,69.4014l-8.4622-2.5928s19.7103-30.2215,17.7518-71.673l15.8765,4.8644Z" style="fill:#b97964;"></path><path d="M392.74879,376.6406c3.2694,42.7287-9.7764,73.1732-9.7764,73.1732l-8.8205-.7272s12.80711-33.7316,2.04811-73.8105l16.54879,1.3645Z" style="fill:#b97964;"></path><path d="M383.93849,446.0234l-8.9799-.5601c-.3123-.0336-.5927,.1922-.6264,.5046l-.001,.0092-.881,7.0845c-.0485,.7744,.5351,1.4436,1.3089,1.5011,3.1365,.1446,4.6412,.0571,8.595,.2723,2.4256,.1449,7.2058,.6606,10.553,.3365,3.3471-.3239,2.9371-3.6236,1.4917-3.7814-3.42779-.3902-7.9674-2.9091-10.1123-4.8201-.3762-.3268-.8504-.519-1.348-.5466Z" style="fill:#263238;"></path><path d="M386.69249,447.5623c-.71949-.0623-1.4299-.2035-2.1186-.4212-.0718-.0156-.1253-.0757-.1326-.149-.0066-.0728,.0252-.1439,.0841-.1873,.2665-.1628,2.631-1.5651,3.58961-1.1256,.21939,.105,.36959,.3154,.39779,.557,.1087,.3701-.0055,.7696-.2935,1.0263-.4535,.2874-.99829,.3944-1.5268,.2998Zm1.264-1.5091c-.5108-.2372-1.883,.3498-2.8492,.8825,1.4133,.3707,2.4665,.3916,2.8679,.0471,.1695-.1727,.2357-.4217,.1747-.6556-.0117-.1193-.0852-.2232-.1934-.274h0Z" style="fill:#407BFF;"></path><path d="M384.61449,447.1477c-.0246,.0122-.053,.0145-.07949,.0067-.05221-.0343-.08621-.0901-.093-.1523,.00389-.0704-.03421-2.4104,.81489-3.1434,.22711-.1859,.5247-.2624,.8135-.2092,.32761,.0312,.5924,.2811,.6422,.6065,.1247,.8806-1.1713,2.4826-1.9969,2.9032-.03369,.0114-.0708,.0071-.1012-.0115Zm1.2981-3.1142c-.1503-.011-.2985,.0414-.4084,.1447-.5139,.4342-.6527,1.7477-.6791,2.5011,.7252-.5423,1.5636-1.755,1.5138-2.3415-.0092-.1095-.0707-.2443-.3352-.2921l-.0911-.0122Z" style="fill:#407BFF;"></path><path d="M335.92259,446.0234l-8.9799-.5601c-.3123-.0336-.59269,.1922-.6264,.5046l-.001,.0092-.881,7.0845c-.0484,.7744,.5352,1.4436,1.3089,1.5011,3.1365,.1446,4.6412,.0571,8.595,.2723,2.4256,.1449,7.20581,.6606,10.5531,.3365,3.3471-.3239,2.937-3.6236,1.4916-3.7814-3.4278-.3902-7.9673-2.9091-10.1123-4.8201-.3761-.3268-.8504-.519-1.348-.5466Z" style="fill:#263238;"></path><path d="M338.67669,447.5623c-.7196-.0623-1.4299-.2035-2.1186-.4212-.0719-.0156-.1254-.0757-.1327-.149-.0066-.0728,.0252-.1439,.0841-.1873,.2666-.1628,2.631-1.5651,3.5897-1.1256,.2193,.105,.3696,.3154,.3977,.557,.1088,.3701-.0055,.7696-.2935,1.0263-.4535,.2874-.9983,.3944-1.5267,.2998Zm1.2639-1.5091c-.5108-.2372-1.8829,.3498-2.8491,.8825,1.4133,.3707,2.46651,.3916,2.8679,.0471,.1694-.1727,.2357-.4217,.17461-.6556-.01161-.1193-.08521-.2232-.19341-.274h0Z" style="fill:#407BFF;"></path><path d="M336.59869,447.1477c-.02469,.0122-.0531,.0145-.0796,.0067-.05209-.0343-.08609-.0901-.093-.1523,.004-.0704-.0342-2.4104,.81491-3.1434,.22719-.1859,.52469-.2624,.81349-.2092,.3276,.0312,.5924,.2811,.6422,.6065,.1247,.8806-1.1713,2.4826-1.9969,2.9032-.0336,.0114-.07079,.0071-.1011-.0115Zm1.298-3.1142c-.1503-.011-.2985,.0414-.4084,.1447-.5139,.4342-.6527,1.7477-.679,2.5011,.7251-.5423,1.5635-1.755,1.51371-2.3415-.00921-.1095-.07071-.2443-.33521-.2921l-.0911-.0122Z" style="fill:#407BFF;"></path><path d="M391.25729,347.2188s7.8049,22.4817,6.72471,40.0909l-23.17411,.5399s-1.579-8.2459-5.3074-13.2085c0,0-3.678,8.1111-6.7587,12.2136l-22.19579-1.8301s2.711-13.2008,3.40859-40.071l47.3027,2.2652Z" style="fill:#263238;"></path><g><path d="M391.53539,348.8767s-6.4703-35.2303-2.3049-48.3245c0,0-4.3004-4.7163-18.7241-5.9055-14.4236-1.1892-21.3619,1.8691-21.3619,1.8691,0,0-5.6088,25.4664-5.168,50.0224l47.5589,2.3385Z" style="fill:#407BFF;"></path></g><path d="M354.23739,294.3721s10.8775,5.6527,6.79561,21.4645c-4.082,15.8118-18.00971,17.9826-18.00971,17.9826l-.5901-2.7135s16.1061-3.2205,16.0582-17.01c-.048-13.7896-7.6445-18.1555-7.6445-18.1555,0,0,1.2196-.8539,3.3905-1.5681Z" style="fill:#263238;"></path><path d="M378.59419,295.8506c3.4577,3.37,3.674,25.2774,10.5535,36.711l.9094-2.27s-4.20609-7.201-4.4774-14.455c-.2714-7.254-.7503-14.5541-2.6139-18.8414,0,0-2.1933-1.0247-2.983-1.1446-1.0382-.1576-1.3886,0-1.3886,0Z" style="fill:#263238;"></path><g><path d="M382.65169,305.6077s-2.2099-12.7121-15.6612-13.1525c-13.4513-.4405-8.7228,13.1358-8.7228,13.1358l5.3831-4.0885,11.3323,5.9697,4.0663-4.1835,3.6023,2.319Z" style="fill:#407BFF;"></path></g><g><path d="M361.69259,296.9677l1.1249,.6037,10.35751,5.5149,4.25289-4.1019c-.576-.6722-.9876-1.3307-1.2757-1.9892-.82319-1.8521-.6448-3.5943-.1099-5.0485,.85071-2.2911,2.5519-3.8276,2.5519-3.8276l-4.7603-1.7834-10.4677-3.9236c3.9512,9.0956-1.6736,14.5556-1.6736,14.5556Z" style="fill:#b97964;"></path><path d="M361.69259,296.9677l1.1249,.6037c5.8168-.6037,10.2892-3.224,13.2248-5.6247,.85071-2.2911,2.5519-3.8276,2.5519-3.8276l-4.7603-1.7834-10.4677-3.9236c3.9512,9.0956-1.6736,14.5556-1.6736,14.5556Z" style="isolation:isolate; opacity:.2;"></path></g><g><path d="M359.96589,256.5705s-11.5382,9.1867,.955,19.5342c14.1152,11.6908-.955-19.5342-.955-19.5342Z" style="fill:#263238;"></path><path d="M387.31839,272.5296c-.7735,8.7784-5.8858,18.4296-13.197,19.6282-13.4105,2.1983-18.59839-.4523-19.9111-10.3968-1.2268-8.9537,2.1689-23.0239,13.26571-25.4528,11.09679-2.4291,20.91519,4.0447,19.84239,16.2214Z" style="fill:#b97964;"></path><path d="M358.53809,262.4011s5.6661,2.3983,12.94791,.9948c0,0,5.33229,.9503,4.07339,6.9587s5.6817,9.3959,5.8213,17.372c0,0,8.3352-.871,9.9056-18.3197,1.1443-12.714-9.82829-17.8242-21.1765-17.783-9.5017,.0346-16.3224,6.7706-11.5717,10.7772Z" style="fill:#263238;"></path><path d="M367.20479,274.7345c-.0594,1.115-.7055,1.9991-1.4399,1.9476-.7345-.0515-1.2653-.9858-1.2058-2.1007,.0593-1.1151,.7078-1.9835,1.44-1.9477,.7323,.036,1.2653,.986,1.2057,2.1008Z" style="fill:#263238;"></path><path d="M358.30209,273.7978c-.0568,1.0663-.6747,1.9117-1.3769,1.8624-.7024-.0492-1.21-.9427-1.1531-2.009,.0567-1.0662,.67691-1.8966,1.377-1.8624,.7002,.0344,1.21,.943,1.153,2.009Z" style="fill:#263238;"></path><path d="M364.30639,268.9483c-.078-.0716-.1347-.1633-.1639-.2652-.0307-.2762,.1633-.5272,.4386-.567,1.6044-.257,3.2328,.2897,4.3572,1.4631,.181,.2109,.1568,.5287-.0542,.7098l-.00009,.0002c-.215,.1684-.523,.145-.71-.0544h0c-.91471-.9162-2.221-1.3253-3.495-1.0942-.14511-.0111-.27951-.0806-.37261-.1923Z" style="fill:#263238;"></path><path d="M366.07769,280.6589c.1059,.0034,.2086,.036,.2972,.0943,.2033,.1894,.2198,.5062,.0369,.7159-1.0493,1.2405-2.6407,1.8873-4.2582,1.7302-.2747-.042-.4635-.2988-.42159-.5737l.00009-.0002c.0532-.2678,.3021-.4508,.5738-.4215h0c1.291,.0987,2.5484-.4424,3.3639-1.448,.1173-.0862,.2646-.1211,.4079-.097Z" style="fill:#263238;"></path><path d="M355.61929,268.9193c-.1029-.0256-.1965-.0791-.2707-.1547-.1589-.228-.1082-.5412,.1147-.7076,1.2871-.9918,2.979-1.2888,4.5271-.7945,.2597,.0989,.3901,.3898,.2912,.6496v.0001c-.1085,.2507-.3903,.3772-.6497,.2913h0c-1.2413-.3685-2.5844-.1043-3.5934,.7069-.1329,.0596-.2841,.0627-.4192,.0089Z" style="fill:#263238;"></path><path d="M359.97619,275.191l.9029,4.799c-1.153,.2368-2.4499,.096-3.5447-.3848,1.1791-1.3602,2.0681-2.8453,2.6418-4.4142Z" style="fill:#a24e3f;"></path><path d="M377.32639,277.6992s2.5071-5.3245,5.2355-3.529c2.7284,1.7957,1.8727,10.7885-2.2695,10.6466-4.1421-.1418-4.9375-4.2797-2.966-7.1176Z" style="fill:#b97964;"></path></g><path d="M398.78419,321.2627c-2.1023-2.741-10.3333-12.188-10.3333-12.188,0,0,.0736-2.9717-.692-3.8905-.7656-.9187-7.4117-2.5605-8.07-1.8928s-.7845,9.7337,.6568,10.7133c1.44131,.9797,7.4132,1.5549,7.4132,1.5549,0,0,4.90011,18.4126,11.0253,18.2595,6.125-.1531,3.28181-8.2774,0-12.5564Z" style="fill:#b97964;"></path><path d="M340.60539,314.0957s-3.99139,18.6424,1.8278,20.6755c5.8192,2.033,5.9549-19.8115,5.9549-19.8115l-7.7827-.864Z" style="fill:#b97964;"></path><g><path d="M349.14449,296.5158c-6.4551,2.5692-9.9827,15.0331-11.4752,21.9622l12.8896,3.1464s2.7136-6.986,2.7136-14.1522-4.128-10.9564-4.128-10.9564Z" style="fill:#407BFF;"></path><path d="M349.14449,296.5158c-6.4551,2.5692-9.9827,15.0331-11.4752,21.9622l12.8896,3.1464s2.7136-6.986,2.7136-14.1522-4.128-10.9564-4.128-10.9564Z" style="fill:#fff; isolation:isolate; opacity:.6;"></path></g><path d="M344.21019,322.5749c2.1022-2.741,10.3332-12.188,10.3332-12.188,0,0-.0736-2.9717,.692-3.8905,.7657-.9187,7.4117-2.5605,8.07-1.8928s.78461,9.7337-.6567,10.7133c-1.4413,.9797-7.4133,1.5549-7.4133,1.5549,0,0-4.9001,18.4126-11.0252,18.2595-6.1251-.1531-3.2819-8.2774,0-12.5564Z" style="fill:#b97964;"></path></g></g><g id="freepik--Character_1--inject-17"><g id="freepik--_Group_-2--inject-17"><g><path d="M277.666,308.5624l9.4478,6.3795,7.3203-11.0057s4.692,3.5258,5.0969,3.4134c.4049-.1124-5.3132,16.9228-9.54,17.988-4.2269,1.0653-16.7039-7.2493-16.7039-7.2493l4.3789-9.5259Z" style="fill:#ebb376;"></path><path d="M293.2411,305.8827s-1.3403-2.2022-.8123-4.2675c.5278-2.0652,.3998-3.8549,.8984-5.3631s1.32,.4722,1.544,1.6142c.2237,1.142,.489,2.4342,1.3195,2.1272,.8306-.3066,5.7149-6.1493,6.9148-6.4435,1.2-.2945,.7055,.8977,.7055,.8977,0,0,1.2245-1.3871,1.9061-1.0517,.177,.0871,.4475,.5768-.0115,1.2964-1.0325,1.6188-3.3742,4.9045-3.3742,4.9045,.1304-.1913,3.3107-4.0404,3.8621-4.5549,.721-.6721,1.4037-.6215,1.7798-.1908,.5353,.6129-3.2451,5.5198-3.2597,5.8381,0,0,2.0818-2.8976,3.1239-2.7696,1.0421,.1281-.1689,2.0237-1.5542,3.4924-1.2699,1.3462-3.4086,4.3198-4.8324,5.563-1.7543,1.5321-3.2765,2.1668-5.2649,1.2631-1.9884-.9039-2.9449-2.3555-2.9449-2.3555Z" style="fill:#ebb376;"></path></g><path d="M252.9403,378.9887c-5.787,41.459-24.5831,67.7938-24.5831,67.7938l-8.2661-2.5328s19.2536-29.5214,17.3405-70.0127l15.5087,4.7517Z" style="fill:#ebb376;"></path><path d="M270.9593,376.6787c3.1936,41.7388-9.55,71.4781-9.55,71.4781l-8.6161-.7104s12.5103-32.9502,2.0006-72.1006l16.1655,1.3329Z" style="fill:#ebb376;"></path><path d="M262.353,444.4542l-8.7719-.5472c-.305-.0328-.5789,.1878-.6119,.4929l-.0009,.009-.8606,6.9204c-.0473,.7565,.5228,1.4102,1.2786,1.4663,3.0639,.1413,4.5337,.0558,8.3959,.2661,2.3694,.1415,7.0388,.6452,10.3086,.3287,3.2695-.3164,2.869-3.5398,1.457-3.6939-3.3483-.3811-7.7827-2.8417-9.878-4.7084-.3674-.3192-.8307-.507-1.3168-.5339Z" style="fill:#263238;"></path><path d="M265.0433,445.9574c-.7029-.0609-1.3968-.1988-2.0695-.4114-.0702-.0153-.1225-.074-.1296-.1456-.0064-.0711,.0246-.1405,.0821-.1829,.2604-.1591,2.5701-1.5289,3.5065-1.0995,.2143,.1025,.3611,.308,.3885,.544,.1063,.3616-.0053,.7518-.2866,1.0026-.443,.2807-.9752,.3852-1.4914,.2928Zm1.2346-1.4741c-.4989-.2317-1.8393,.3417-2.7831,.8621,1.3806,.362,2.4094,.3824,2.8015,.0459,.1655-.1687,.2302-.4119,.1706-.6404-.0114-.1165-.0832-.2181-.189-.2676h0Z" style="fill:#407BFF;"></path><path d="M263.0134,445.5524c-.0241,.0119-.0518,.0142-.0777,.0066-.0509-.0335-.0841-.0881-.0908-.1488,.0038-.0687-.0334-2.3545,.796-3.0706,.2219-.1815,.5126-.2563,.7947-.2043,.32,.0304,.5786,.2746,.6273,.5924,.1218,.8602-1.1442,2.4251-1.9507,2.836-.0328,.0111-.0691,.0069-.0988-.0113Zm1.268-3.042c-.1468-.0108-.2916,.0404-.3989,.1413-.502,.4242-.6376,1.7072-.6634,2.4432,.7084-.5298,1.5274-1.7144,1.4787-2.2873-.009-.1069-.069-.2387-.3274-.2853l-.089-.0119Z" style="fill:#407BFF;"></path><path d="M228.8505,444.4542l-8.7719-.5472c-.305-.0328-.5789,.1878-.6119,.4929l-.0009,.009-.8606,6.9204c-.0473,.7565,.5227,1.4102,1.2785,1.4663,3.0639,.1413,4.5337,.0558,8.3959,.2661,2.3695,.1415,7.0389,.6452,10.3086,.3287,3.2696-.3164,2.869-3.5398,1.4571-3.6939-3.3484-.3811-7.7828-2.8417-9.878-4.7084-.3675-.3192-.8307-.507-1.3168-.5339Z" style="fill:#263238;"></path><path d="M231.5408,445.9574c-.7029-.0609-1.3968-.1988-2.0696-.4114-.0702-.0153-.1224-.074-.1296-.1456-.0064-.0711,.0247-.1405,.0822-.1829,.2604-.1591,2.57-1.5289,3.5065-1.0995,.2143,.1025,.361,.308,.3885,.544,.1063,.3616-.0054,.7518-.2866,1.0026-.4431,.2807-.9752,.3852-1.4914,.2928Zm1.2346-1.4741c-.4989-.2317-1.8393,.3417-2.7831,.8621,1.3805,.362,2.4093,.3824,2.8015,.0459,.1655-.1687,.2302-.4119,.1705-.6404-.0113-.1165-.0832-.2181-.1889-.2676h0Z" style="fill:#407BFF;"></path><path d="M229.5109,445.5524c-.0241,.0119-.0519,.0142-.0777,.0066-.0509-.0335-.0842-.0881-.0909-.1488,.0039-.0687-.0333-2.3545,.796-3.0706,.222-.1815,.5126-.2563,.7947-.2043,.32,.0304,.5787,.2746,.6273,.5924,.1218,.8602-1.1442,2.4251-1.9506,2.836-.0329,.0111-.0692,.0069-.0988-.0113Zm1.268-3.042c-.1469-.0108-.2916,.0404-.3989,.1413-.502,.4242-.6377,1.7072-.6634,2.4432,.7084-.5298,1.5273-1.7144,1.4787-2.2873-.009-.1069-.069-.2387-.3274-.2853l-.089-.0119Z" style="fill:#407BFF;"></path><g><rect x="218.9474" y="299.0635" width="43.8878" height="39.9631" rx="8.0369" ry="8.0369" transform="translate(481.7826 638.0901) rotate(180)" style="fill:#263238;"></rect><g><path d="M272.8829,302.3529s5.2091,5.2817,11.1289,10.6936l-5.3244,10.127s-13.139-1.2113-11.8879-9.4888c1.251-8.2776,6.0834-11.3318,6.0834-11.3318Z" style="fill:#407BFF;"></path><path d="M272.8829,302.3529s5.2091,5.2817,11.1289,10.6936l-5.3244,10.127s-13.139-1.2113-11.8879-9.4888c1.251-8.2776,6.0834-11.3318,6.0834-11.3318Z" style="fill:#fff; isolation:isolate; opacity:.6;"></path></g><g><path d="M272.9928,343.0667s-4.1789-27.9229-.1099-40.7138c0,0-4.2008-4.607-18.2904-5.7687-14.0894-1.1616-20.867,1.8258-20.867,1.8258,0,0-4.0707,21.8622-3.6401,45.8495l42.9074-1.1928Z" style="fill:#407BFF;"></path><path d="M272.9928,343.0667s-4.1789-27.9229-.1099-40.7138c0,0-4.2008-4.607-18.2904-5.7687-14.0894-1.1616-20.867,1.8258-20.867,1.8258,0,0-4.0707,21.8622-3.6401,45.8495l42.9074-1.1928Z" style="fill:#fff; isolation:isolate; opacity:.7;"></path></g><path d="M238.7004,296.316s10.6255,5.5218,6.6382,20.9672c-3.9875,15.4455-17.5925,17.5661-17.5925,17.5661l-.5765-2.6507s15.7331-3.1459,15.6863-16.616c-.0469-13.4701-7.4674-17.7349-7.4674-17.7349,0,0,1.1913-.834,3.3119-1.5317Z" style="fill:#263238;"></path><path d="M262.4929,297.7602c3.3776,3.292,3.589,24.6918,10.309,35.8606l.8884-2.2175s-4.1086-7.0341-4.3737-14.1201c-.2651-7.0859-.7329-14.217-2.5533-18.4049,0,0-2.1425-1.0009-2.9139-1.1181-1.0142-.1539-1.3565,0-1.3565,0Z" style="fill:#263238;"></path><g><path d="M265.6668,310.6651s1.0469-12.9402-14.2321-13.5875c-14.9364-.6328-6.9506,12.9609-6.9506,12.9609l4.0446-4.3938,10.2528,4.2097,3.6379-2.5595,3.2474,3.3702Z" style="isolation:isolate; opacity:.2;"></path><path d="M266.4564,307.2913s-2.1586-12.4176-15.2983-12.8478c-13.1397-.4303-8.5208,12.8315-8.5208,12.8315l5.2585-3.9938,11.0697,5.8314,3.9721-4.0866,3.5188,2.2653Z" style="fill:#407BFF;"></path><path d="M266.4564,307.2913s-2.1586-12.4176-15.2983-12.8478c-13.1397-.4303-8.5208,12.8315-8.5208,12.8315l5.2585-3.9938,11.0697,5.8314,3.9721-4.0866,3.5188,2.2653Z" style="fill:#fff; isolation:isolate; opacity:.6;"></path></g></g><g><path d="M275.4001,267.2993s3.7865,12.2091,2.3637,27.1339c0,0,1.4101-2.0401-34.9079-4.5142,0,0-2.5922-26.5074,11.382-27.9211,13.9742-1.4138,21.1622,5.3014,21.1622,5.3014Z" style="fill:#263238;"></path><g><path d="M245.9829,298.8515l11.2164,5.9768,4.1544-4.0069c-.5627-.6566-.9647-1.2999-1.2461-1.9431-2.0772-4.6368,2.3853-8.6705,2.3853-8.6705l-4.65-1.7421-10.2252-3.8327c3.8597,8.8849-1.6348,14.2185-1.6348,14.2185Z" style="fill:#ebb376;"></path><path d="M249.0383,288.4657s4.0605,9.6219,11.0693,10.4126c-2.0772-4.6368,2.3853-8.6705,2.3853-8.6705l-4.65-1.7421h-8.8046Z" style="isolation:isolate; opacity:.2;"></path></g><g><path d="M272.5055,260.9526s9.102,11.1679-4.9742,18.4456c-15.9035,8.2224,4.9742-18.4456,4.9742-18.4456Z" style="fill:#263238;"></path><path d="M243.0802,270.4957c-1.0876,8.5394,1.7846,18.8141,8.5134,21.4786,12.3422,4.8874,17.8451,3.4366,21.1663-5.7818,3.0332-8.2907,2.7184-22.4261-7.3676-27.0523-10.086-4.6261-20.8035-.4895-22.3121,11.3555Z" style="fill:#ebb376;"></path><path d="M272.6556,266.8146s-5.9068,1.1105-12.5648-1.7435c0,0-5.287-.2021-5.3351,5.7945s-7.3768,7.786-9.1691,15.3698c0,0-7.7742-2.565-5.6441-19.5452,1.5521-12.3728,13.0877-14.9681,23.9101-12.5685,9.0616,2.0091,14.1705,9.8568,8.803,12.6929Z" style="fill:#263238;"></path><path d="M261.8187,276.7835c-.1752,1.0766,.2576,2.0546,.9693,2.1584,.7118,.1034,1.4126-.6779,1.5878-1.7544,.1753-1.0766-.2631-2.0403-.9693-2.1583-.7064-.118-1.4127,.6779-1.5878,1.7543Z" style="fill:#263238;"></path><path d="M270.5106,277.741c-.1675,1.0296,.2464,1.965,.927,2.064,.6806,.099,1.3508-.6482,1.5183-1.6775,.1677-1.0296-.2515-1.9512-.9269-2.0641-.6756-.1128-1.351,.6484-1.5184,1.6776Z" style="fill:#263238;"></path><path d="M265.7885,271.8637c.0894-.0521,.1626-.1278,.2116-.219,.0867-.2573-.0462-.5372-.3007-.6324-1.4779-.5789-3.1459-.3958-4.4629,.4902-.2166,.1637-.2596,.472-.0958,.6887v.0002c.1701,.2055,.469,.2472,.6888,.0959h0c1.0637-.6844,2.3955-.8031,3.5633-.3175,.1408,.0196,.2837-.0189,.3957-.1061Z" style="fill:#263238;"></path><path d="M262.372,283.6167c-.0996-.028-.2049-.028-.3045,0-.2453,.1165-.3542,.4066-.2458,.6557,.6108,1.465,1.9016,2.5373,3.454,2.8685,.2682,.042,.5198-.1413,.5618-.4097l.0001-.0001c.0295-.2652-.1482-.509-.4097-.5619h0c-1.2314-.2893-2.2423-1.1645-2.7046-2.3417-.0838-.1149-.2107-.1909-.3513-.2108Z" style="fill:#263238;"></path><path d="M274.0859,273.6428c.1035-.0031,.2038-.0347,.2905-.0914,.199-.1846,.2158-.4941,.0377-.6992-1.0222-1.2143-2.5753-1.8496-4.1555-1.6998-.2686,.0405-.4535,.2908-.4132,.5593v.0003c.0515,.2617,.2942,.441,.5595,.413h0c1.2614-.0935,2.4884,.438,3.2827,1.4221,.1145,.0845,.2581,.1189,.3983,.0957Z" style="fill:#263238;"></path><path d="M268.6231,278.7227l-1.8598,4.3925c1.0512,.4657,2.3183,.6012,3.4631,.37-.8425-1.5437-1.382-3.1459-1.6033-4.7625Z" style="fill:#d58745;"></path><path d="M251.5418,277.5081s-1.2855-5.6035-4.263-4.4572c-2.9776,1.1463-4.0312,9.9075-.0483,10.6336,3.9829,.726,5.6027-3.0579,4.3113-6.1764Z" style="fill:#ebb376;"></path><path d="M240.3683,292.0889c-.4149-1.9806-.9077-4.6749-.7954-5.8537,0,0-1.117,2.4249-1.5198,5.3391-1.7916-.4633-3.6522-1.104-5.3611-2.0087,0,0,1.4125-31.3713,14.7552-34.2409,13.3429-2.8696,20.6444,.2754,20.6444,.2754,0,0,10.0167,3.7496,9.6631,14.1747,0,0-6.1814-1.0618-13.3402-.7083l-1.5793-3.017-.3423,3.7253-10.9698,.9044s-2.4848,6.3051-1.0006,23.8563c0,0-6.6627-1.7944-10.1542-2.4466Z" style="fill:#263238;"></path></g></g><polygon points="272.4656 339.0266 272.9928 343.0667 230.0535 343.6111 230.0567 340.2195 272.4656 339.0266"></polygon><path d="M272.9928,343.0667c4.7194,6.1445,10.0352,30.0591,8.98,47.2604,0,0-6.6092,4.2966-28.5438,4.2966-18.0405,0-29.9011-3.711-29.9011-3.711,2.4489-13.9164,4.3768-45.7194,6.5256-47.3016l42.9393-.5444Z" style="fill:#263238;"></path><path d="M263.8066,340.1101l.1444,2.0464c.035,.4966-.345,.9225-.8427,.9376-1.7747,.0539-5.5396,.1681-5.5877,.1687-.0428,.0006-.1724-1.7701-.2506-2.8965-.0345-.4973,.3517-.9221,.8499-.9361l4.7877-.1347c.4695-.0132,.8661,.3461,.899,.8146Z" style="fill:#fff;"></path><polygon points="247.4472 339.7303 247.4472 344.2595 245.7911 344.2425 245.7911 339.7474 247.4472 339.7303" style="fill:#263238;"></polygon><polygon points="268.0916 339.1497 268.4551 343.6111 270.0455 343.6111 269.6479 339.0266 268.0916 339.1497" style="fill:#263238;"></polygon><g><polygon points="226.4146 323.1266 223.5279 361.2733 230.0535 362.1888 236.7017 323.1266 226.4146 323.1266" style="fill:#ebb376;"></polygon><path d="M230.3541,359.3099s1.4189,2.1523,.9659,4.2353-.2604,3.8668-.7042,5.3921c-.4438,1.5253-1.3362-.4242-1.6012-1.5574-.2649-1.1331-.5767-2.4149-1.3955-2.0782-.819,.3365-5.4892,6.3517-6.6777,6.6891-1.1885,.3376-.7373-.8716-.7373-.8716,0,0-1.1737,1.4303-1.867,1.1198-.18-.0807-.468-.5603-.0353-1.296,.9733-1.655,3.1949-5.0232,3.1949-5.0232-.1235,.1959-3.1626,4.1574-3.6951,4.6915-.6963,.6977-1.3803,.6718-1.7717,.2549-.5571-.5932,3.0435-5.6334,3.0467-5.952,0,0-1.9758,2.9709-3.0218,2.8807-1.0461-.0905,.0956-2.0285,1.427-3.5463,1.2205-1.3912,3.2504-4.4401,4.6284-5.734,1.6978-1.5944,3.1961-2.2836,5.2158-1.4524,2.0197,.8315,3.0281,2.2477,3.0281,2.2477Z" style="fill:#ebb376;"></path></g><g><path d="M233.7255,298.41c-1.8475,.7678-7.041,3.1507-9.2458,14.0327-2.2048,10.8821-.9518,16.2104-.9518,16.2104h18.3223l.5015-16.7752-8.6262-13.4679Z" style="fill:#407BFF;"></path><path d="M233.7255,298.41c-1.8475,.7678-7.041,3.1507-9.2458,14.0327-2.2048,10.8821-.9518,16.2104-.9518,16.2104h18.3223l.5015-16.7752-8.6262-13.4679Z" style="fill:#fff; isolation:isolate; opacity:.6;"></path></g></g></g></svg>
