<svg xmlns="http://www.w3.org/2000/svg" width="781.045" height="800" viewBox="0 0 781.045 800" xmlns:xlink="http://www.w3.org/1999/xlink" role="img" artist="Katerina Limpitsouni" source="https://undraw.co/"><g transform="translate(-598 -140)"><g transform="translate(-234.723 -210.169)"><path d="M558.405,205.476l-182.9-.516A18.521,18.521,0,0,0,356.959,223.4L356.3,465.6a18.479,18.479,0,0,0,18.42,18.519l101.46.295,81.468.221a18.485,18.485,0,0,0,18.519-18.445l.049-14.319.639-227.848A18.506,18.506,0,0,0,558.4,205.476Z" transform="translate(1036.918 259.539)" fill="#e6e6e6"/><path d="M537.08,211.322l-157.188-.442a17.343,17.343,0,0,0-17.364,17.266l-.442,155.714A77.226,77.226,0,0,0,439.009,461.2l29.866.074,67.517.2A17.326,17.326,0,0,0,553.757,444.2l.049-15.67.54-199.849a17.327,17.327,0,0,0-17.266-17.364Z" transform="translate(1045.348 268.159)" fill="#fff"/></g><g transform="translate(-263 -232)"><path d="M558.405,205.476l-182.9-.516A18.521,18.521,0,0,0,356.959,223.4L356.3,465.6a18.479,18.479,0,0,0,18.42,18.519l101.46.295,81.468.221a18.485,18.485,0,0,0,18.519-18.445l.049-14.319.639-227.848A18.506,18.506,0,0,0,558.4,205.476Z" transform="translate(1036.918 259.539)" fill="#e6e6e6"/><path d="M537.08,211.322l-157.188-.442a17.343,17.343,0,0,0-17.364,17.266l-.442,155.714A77.226,77.226,0,0,0,439.009,461.2l29.866.074,67.517.2A17.326,17.326,0,0,0,553.757,444.2l.049-15.67.54-199.849a17.327,17.327,0,0,0-17.266-17.364Z" transform="translate(1045.348 268.159)" fill="#fff"/></g><g transform="translate(-103 -164)"><g transform="translate(1205.213 368.499)"><path d="M558.405,205.476l-182.9-.516A18.521,18.521,0,0,0,356.959,223.4L356.3,465.6a18.479,18.479,0,0,0,18.42,18.519l101.46.295,81.468.221a18.485,18.485,0,0,0,18.519-18.445l.049-14.319.639-227.848A18.506,18.506,0,0,0,558.4,205.476Z" transform="translate(-356.295 -204.96)" fill="#e6e6e6"/><path d="M537.08,211.322l-157.188-.442a17.343,17.343,0,0,0-17.364,17.266l-.442,155.714A77.226,77.226,0,0,0,439.009,461.2l29.866.074,67.517.2A17.326,17.326,0,0,0,553.757,444.2l.049-15.67.54-199.849a17.327,17.327,0,0,0-17.266-17.364Z" transform="translate(-347.865 -196.34)" fill="#fff"/><path d="M503.164,254.38H380.606a7.356,7.356,0,0,0,0,14.712H503.164a7.356,7.356,0,1,0,0-14.712Z" transform="translate(-331.608 -133.002)" fill="#6c63ff"/><path d="M407.549,237.96H380.606a7.356,7.356,0,0,0,0,14.712h26.943a7.356,7.356,0,1,0,0-14.712Z" transform="translate(-331.608 -156.91)" fill="#6c63ff"/><path d="M503.164,280.71H380.606a7.356,7.356,0,1,0,0,14.712H503.164a7.356,7.356,0,1,0,0-14.712Z" transform="translate(-331.608 -94.664)" fill="#6c63ff"/><path d="M503.157,267.55H380.6a7.344,7.344,0,1,0,0,14.687H503.157a7.344,7.344,0,0,0,0-14.687Z" transform="translate(-331.6 -113.825)" fill="#6c63ff"/><path d="M442.245,300.142a43.512,43.512,0,1,1,43.513-43.512,43.512,43.512,0,0,1-43.513,43.512Zm0-84a40.489,40.489,0,1,0,40.489,40.489A40.489,40.489,0,0,0,442.245,216.141Z" transform="translate(-294.504 -193.082)" fill="#6c63ff"/><path d="M445.945,263.923a111.861,111.861,0,0,0-18.367-43.143,2.3,2.3,0,0,0-3.917,0,119.479,119.479,0,0,0-14.9,45.033c-.353,2.891,4.186,2.865,4.536,0a111.784,111.784,0,0,1,2.974-15.228,2.593,2.593,0,0,0,.507-.155,33.057,33.057,0,0,1,19.525-3.18c.058.009.114,0,.172,0a108.755,108.755,0,0,1,5.1,17.876C442.125,267.992,446.5,266.78,445.945,263.923Zm-28.042-18.9a114.815,114.815,0,0,1,7.92-18.71,108.717,108.717,0,0,1,8.758,16.239,38.256,38.256,0,0,0-16.678,2.471Z" transform="translate(-279.93 -183.522)" fill="#6c63ff"/></g><path d="M694.685,256.307,639.545,444.8a41.329,41.329,0,0,0,36.063,52.776l60.17,5.267Z" transform="translate(63.118 304.474)" fill="#6c63ff"/><path d="M694.685,256.307,639.545,444.8a41.329,41.329,0,0,0,36.063,52.776l60.17,5.267Z" transform="translate(63.118 304.474)" opacity="0.1"/><path d="M935.738,214.6V195.11s131.43-8.484,145.643-3.889c0,0,5.826,9.869-23.72,11.448C1057.656,202.669,965.7,216.512,935.738,214.6Z" transform="translate(256.035 261.429)" fill="#090814"/><path d="M1018.749,270.615,944.992,392.6l-34.728-44,67.87-106.263c-2.412-12.362.509-26.712,9.136-39.1,15.1-21.682,41.884-29.13,59.827-16.637s20.257,40.2,5.154,61.883c-8.629,12.391-21.074,20.108-33.505,22.137Z" transform="translate(239.539 255.393)" fill="#ed9da0"/><path d="M716.74,414.662l-8.858,30.126.3,30.545s-58.257,70.069-36.8,221.615l272.963-3.423-32.517-243.87Z" transform="translate(81.71 407.052)" fill="#090814"/><path d="M715.674,191.751a77.409,77.409,0,1,1,100.592,73.871l-11.541,9.3,20.717,72.518L801.3,364.519l-76.275-63.574s16.481-20.991,25.318-44.669A77.325,77.325,0,0,1,715.674,191.751Z" transform="translate(113.511 212.522)" fill="#ed9da0"/><path d="M1119.312,237.725c-27.33-.417-77.851,87.289-77.851,87.289l-41.5-14.677L914.6,280.12,849.189,253.2l.287,1.977c-.258-.62-.537-1.247-.845-1.879-6.877-14.17-26.854-30.843-83.566-27.537l-26.7,21.078-3.636,2.888a82.363,82.363,0,0,0-33.641,5.239c-12.147,4.883-24.293,13.993-30.039,31.021-2.976,8.783-2.976,26.944-1.191,50.016,6.46,83.537,36.57,261.125,36.57,261.125l190.082-25.162,14.024.327s1.667-19.142,3.156-44.211c.923-14.706,1.757-31.409,2.234-47.485.327-11.789.417-23.221.208-33.284-.029-.625-.029-1.252-.059-1.877-.566-18.368-2.412-31.684-6.371-33.135,0,0,12.293-.327,30.039-.983,42.87-1.607,117.595-5.21,128.253-11.015,15.063-8.188,94.046-118.079,94.046-118.079s-15.362-44.062-42.721-44.508Z" transform="translate(83.014 284.412)" fill="#6c63ff"/><path d="M898.914,206.457c-5.847-28.607-8.657-43.262-29.906-63.5-5.045.713,1.331,26.873-26.474,63.311-40.422,52.969-36.394,4.4-48.347,20.719-2.6,3.542-3.155,16.323-2.3,20.719,3.369,17.374,23.311.409,2.3,59.857-3.125,4.623-6.811,3.5-11.51,3.454-.364,0,2.021-.459-6.906-2.3-4.261-.88-10.224-1.918-17.374-3.116-83.052-13.991-112.378-118.786-48.184-173.31,14.606-12.405,28.94-21.807,41.38-26.163,37.482-13.12,122.886-4.592,139.282,37.986a130.4,130.4,0,0,1,8.035,62.347Z" transform="translate(87.37 203.529)" fill="#010102"/><ellipse cx="59.234" cy="59.234" rx="59.234" ry="59.234" transform="translate(756 459.735)" fill="#010102"/></g></g></svg>