<svg xmlns="http://www.w3.org/2000/svg" width="800" height="626.559" viewBox="0 0 800 626.559" xmlns:xlink="http://www.w3.org/1999/xlink" role="img" artist="Katerina Limpitsouni" source="https://undraw.co/"><g transform="translate(-532.266 -210.876)"><g transform="translate(532.266 210.876)"><path d="M892.254,359.068c11.829-48.842,21.851-103.931-.458-148.915-15.479-31.212-72.741-41.723-105.566-30.479s-56.558,41.752-67,75.014-9.225,69.105-4.676,103.684C774.929,357.213,835.3,356.054,892.254,359.068Z" transform="translate(-270.206 -175.297)" fill="#090814"/><path d="M574.2,181.755l22.1,67.479-85.512,22.649,6.2-81.227Z" transform="translate(-23.796 -25.404)" fill="#ed9da0"/><ellipse cx="70.398" cy="70.398" rx="70.398" ry="70.398" transform="translate(424.63 85.355) rotate(-28.663)" fill="#ed9da0"/><path d="M882.943,269.237a88.422,88.422,0,1,0-176.737,2.33c10.183.022,32.211-8.51,32.211-8.51S836.218,271.386,882.943,269.237Z" transform="translate(-276.711 -170.38)" fill="#090814"/><path d="M496.507,233.122s83.715-1.573,132.343,5.207,62.17,21.912,62.17,21.912l-2.805,210.411L750.87,589.417l-316.084-59.85L459.1,439.792l-11.222-188.9Z" transform="translate(-28.192 -26.096)" fill="#6c63ff"/><path d="M3.627,660.3a23.076,23.076,0,0,1-1.358-22.4L53.522,530.212a23.31,23.31,0,0,1,20.949-13.23H721.838A23.135,23.135,0,0,1,742.383,529.4l54.936,104.721A23.2,23.2,0,0,1,776.866,668.1L23.309,671.071h-.094A23.074,23.074,0,0,1,3.627,660.3Z" transform="translate(0 -44.512)" fill="#fff"/><path d="M3.627,660.3a23.076,23.076,0,0,1-1.358-22.4L53.522,530.212a23.31,23.31,0,0,1,20.949-13.23H721.838A23.135,23.135,0,0,1,742.383,529.4l54.936,104.721A23.2,23.2,0,0,1,776.866,668.1L23.309,671.071h-.094A23.074,23.074,0,0,1,3.627,660.3ZM74.471,519.417a20.864,20.864,0,0,0-18.75,11.841L4.468,638.947a20.765,20.765,0,0,0,18.747,29.689H23.3l753.557-2.966a20.766,20.766,0,0,0,18.307-30.412L740.227,530.535a20.709,20.709,0,0,0-18.389-11.118H74.471Z" transform="translate(0 -44.512)" fill="#3f3d56"/><path d="M688.341,632.773,421.19,614.406a8.868,8.868,0,0,1-3.954-16.45l59.075-35.446a8.807,8.807,0,0,1,4.965-1.254l231.083,10.5a8.867,8.867,0,0,1,7.429,13.017L696.78,628.086a8.879,8.879,0,0,1-7.831,4.708C688.748,632.794,688.544,632.786,688.341,632.773Z" transform="translate(-26.774 -47.382)" fill="#3f3d56"/><path d="M419.287,604.132l266.053,18.236,21.041-45.355-228.129-8.946Z" transform="translate(-27.187 -47.825)" fill="#fff"/><path d="M636.71,582.9c5.143.2,9.058,4.812,9.342,9.8.294,5.182-3.309,9.956-7.638,12.424-5.071,2.891-11.4,3.354-17.111,2.857-5.136-.447-10.724-2.045-14.03-6.286-2.781-3.568-3.8-8.96-1.439-13.011,2.345-4.016,7.332-5.125,11.5-3.514a11.1,11.1,0,0,1,7.219,10.466,16.074,16.074,0,0,1-7.269,13.028c-4.6,3.137-10.384,4.145-15.856,4.133a44.97,44.97,0,0,1-17.385-3.589c-5.139-2.177-10.274-5.317-13.948-9.583-3.445-4-5.508-9.549-3.595-14.736a9.755,9.755,0,0,1,10.069-6.5,12.478,12.478,0,0,1,10.2,6.58c2.081,4.331,1.146,9.528-1.5,13.4a17.132,17.132,0,0,1-13.256,7.347c-5.711.387-11.368-1.643-16.066-4.781-4.35-2.9-8.174-6.624-12.845-9.041a15.74,15.74,0,0,0-7.239-1.9c-3.241,0-6.356,1.068-9.508,1.686a15.982,15.982,0,0,1-8.06-.025,11.607,11.607,0,0,1-5.788-3.989,6.674,6.674,0,0,1-1.055-6.248c.6-1.691,3.309-.963,2.705.746-1.392,3.943,3.384,6.84,6.727,7.2,2.536.274,5.153-.458,7.6-1.031a31.145,31.145,0,0,1,7.795-1.142c9.341.23,15.517,8.215,23.048,12.547,7.919,4.555,19.515,4.872,24.364-4.179,1.761-3.287,2.125-7.657-.295-10.728a9.838,9.838,0,0,0-8.842-3.594c-4.076.623-6.106,4.5-5.958,8.364.181,4.723,3.473,8.56,6.984,11.389a41.81,41.81,0,0,0,28.174,8.941c4.69-.264,9.674-1.485,13.317-4.608,3.148-2.7,5.3-7.085,4.54-11.288a8.336,8.336,0,0,0-7.391-6.762,6.145,6.145,0,0,0-6.885,6.068,10.505,10.505,0,0,0,5.975,9.7c4.132,2.185,9.138,2.456,13.716,2.218,4.861-.253,9.926-1.534,13.328-5.235,2.9-3.158,4-7.842,1.328-11.5a6.575,6.575,0,0,0-4.976-2.828c-1.8-.071-1.808-2.877,0-2.806h0Z" transform="translate(-33.14 -48.492)" fill="#6c63ff"/><path d="M508.69,568.674l1.43-8.844,79.371-151.7a5.143,5.143,0,0,1,9.115,4.769L519.27,564.531l-6.486,6.285a2.435,2.435,0,0,1-4.094-2.142Z" transform="translate(-32.982 -37.275)" fill="#3f3d56"/><path d="M563.354,468.009a57.059,57.059,0,0,1,24.557,11.1l.4.087.082-.4,86.5,13.549-6.267-115.058,65.559-35.907L718.7,535.864a23.005,23.005,0,0,1-28.6,16.1L579.977,520.288l.275-1.355-.385-.1a57.065,57.065,0,0,1-26.949.674c-22.347-4.523-38.128-19.719-35.248-33.94S541,463.482,563.354,468.009Z" transform="translate(-33.544 -33.126)" fill="#ed9da0"/><path d="M629.787,282.706l73.878-20.573s38.809,28.522,43.485,59.383c.556,3.67,2.1,174.637.468,179.083-12.084,32.935-78.553-19.638-78.553-19.638L629.787,282.706Z" transform="translate(-40.836 -27.988)" fill="#6c63ff"/><path d="M273.948,606.367l-7.659-6.564h0a8.24,8.24,0,0,0-4.009-1.873L91.629,569.488a9.179,9.179,0,0,1-3.214-16.925l60.88-36.528a9.137,9.137,0,0,1,6.746-1.082l216.371,48.884a9.179,9.179,0,0,1,.567,17.759L282.512,608.2a9.151,9.151,0,0,1-8.563-1.837Z" transform="translate(-5.443 -44.366)" fill="#3f3d56"/><path d="M195.807,379.176a57.059,57.059,0,0,1,21.944,15.643l.38.164.158-.379,82.244,30.04L388.347,282.46l48.546,30.087L335.076,475.821a23.005,23.005,0,0,1-31.18,10.255l-101.9-52.392.532-1.276-.358-.176a57.065,57.065,0,0,1-26.57-4.556c-21.049-8.763-33.589-26.727-28.01-40.122s27.163-17.146,48.218-8.377Z" transform="translate(-9.484 -29.306)" fill="#ed9da0"/><path d="M492.771,305.882,453.93,247.8s-46.22,9.148-65.259,33.881c-2.38,3.092-84.13,121.654-84.657,126.828-3.687,36.219,90.27,53.19,90.27,53.19l98.487-155.817Z" transform="translate(-19.706 -27.058)" fill="#6c63ff"/><path d="M264.923,599.505,69.305,572.468a16.7,16.7,0,0,1-13.767-11.951L10.61,403.268a16.7,16.7,0,0,1,17.328-21.234l197.085,15.1a16.691,16.691,0,0,1,14.895,12.493l43.461,169.187a16.691,16.691,0,0,1-18.455,20.691Z" transform="translate(-0.645 -35.759)" fill="#3f3d56"/><path d="M222.144,266.433c1.143,1.258,5.293-.024,13.545-2.638,6.273-1.987,7.239-2.71,7.836-3.228,2.1-1.823,2.647-3.739,4.725-12.206,3.729-15.2,3.845-16.706,5.76-19.931.659-1.111,2.325-3.759,1.919-4.088s-2.22,2.422-5.552,3.465c-3.247,1.016-4.709-.612-7.481-.2-3.584.536-5.714,3.94-9.057,9.45-2.96,4.879-3.332,6.842-7.481,16.537-1.176,2.746-2.122,4.872-2.849,6.552q-12.221,11.406-24.234,23.079l.426-.652c3.547-5.445,4.029-8.365,3.977-10.552-.083-3.544-1.776-6.243-5.158-11.5a83.463,83.463,0,0,0-10.237-12.6c-4.959-5.314-7.439-7.971-8.426-7.8-7.053,1.248-8.939,49.271-.065,57.859a15.608,15.608,0,0,0-3.023,2.739c-7.6-8.434-20.609-17.856-35.024-19.017-8.887-.715-13.792,2.073-15.317,3.031-7.049,4.427-11.24,13.289-9.135,15.789,1.963,2.332,7.632-2.969,18.742-2.677,7.752.2,13.808,3.016,17.4,4.686,7.542,3.5,10.3,6.946,15.861,9.305a24.237,24.237,0,0,0-5.969,7.329c-.449.463-.9.928-1.346,1.392a46.627,46.627,0,0,0-18.971-6.15c-8.887-.715-13.792,2.073-15.317,3.031a22.941,22.941,0,0,0-9.3,11.684c-.72.145-1.387.31-2,.488-2.154-4.867-8.563-10-14.522-12.586-10.258-4.453-23.582-3.272-25.008.962a2.266,2.266,0,0,0-.077.4q1.687-13.609,4.559-27.025a6.257,6.257,0,0,0,.254.785c2.532,6.36,9.375,12.464,18.7,15.631,7.32,2.486,10.387,1.2,11.165.837.744-.344,3.958-1.723,4.745-4.466,1.46-5.085-7.48-20.114-13.119-15.073-18.118,16.2-20.6,3.081-21.437.874q2.311-10.606,5.3-21.091c.034.043.064.085.1.128,3.958,4.8,11.576,8.183,20.528,8.332,7.026.117,9.322-1.849,9.9-2.377.548-.5,2.946-2.591,2.866-5.184-.149-4.807-8.7-8.721-15.542-9.4-6.3-.626-13.093,1.3-16.461,3.749q2.349-7.852,5.047-15.636c4.6,1.879,11.119,1.627,17.521-1.236,5.28-2.36,6.307-4.626,6.551-5.22.233-.567,1.295-2.958.331-4.864-1.786-3.532-9.526-3.472-14.864-1.6a23.037,23.037,0,0,0-6.079,3.307q4.776-12.758,10.387-25.333l-3.741-.935a334.931,334.931,0,0,0-12.5,32.524A29.78,29.78,0,0,0,87.99,235.7c-4.31-8.186-13.516-14.328-16.629-12.335a3,3,0,0,0-1.122,1.821c-1.908,6.219-.471,14.813,4.555,22.71,3.945,6.2,6.983,7.068,7.774,7.264.668.166,3.248.878,5.368-.039q-2.139,7.329-3.947,14.723a28.621,28.621,0,0,0-7.313-10.066c-6.953-6.1-17.747-8.545-19.942-5.57a3,3,0,0,0-.4,2.1c.442,6.49,4.859,14,12.377,19.578,5.9,4.376,9.049,4.1,9.858,4a11.2,11.2,0,0,0,3.3-.829q-1.933,8.984-3.388,18.052c-1.947-6.761-8.561-15.2-14.8-12.512-11.076,4.762-24.1-2.553-25.53.646a3.373,3.373,0,0,0,.293,2.621c2.87,7.493,10.8,14.753,21.678,18.608,8.541,3.026,12.155,1.563,13.073,1.153a12.923,12.923,0,0,0,4.113-2.668q-1.613,11.649-2.481,23.411c-2.309-5.042-8.814-10.355-14.9-13.094-10.682-4.8-24.652-3.752-26.2.663a3.8,3.8,0,0,0,.3,2.691c2.946,7.691,11.08,15.142,22.25,19.1,8.767,3.106,12.475,1.6,13.418,1.184a12.457,12.457,0,0,0,4.672-3.253q-.3,5.436-.449,10.891c-.028,1.036-.044,2.072-.064,3.108a3.067,3.067,0,0,0-.309.629,3.865,3.865,0,0,0,.256,2.678c-.008.658-.012,1.316-.016,1.974a57.014,57.014,0,0,1-7.09-8.231c-2.53-3.425-4.933-.912-6.476,2a6.922,6.922,0,0,0-6.543,1.49c-12.172,11.371-25.824,5.338-26.017,8.728a3.9,3.9,0,0,0,1.129,2.6c5.315,6.789,15.748,11.742,28.143,12.264,9.728.41,12.977-2.234,13.791-2.945a18.565,18.565,0,0,0,1.62-1.548c.557.445,1.1.849,1.643,1.217q.321,9.763,1.164,19.5c-.461.041-.9.117-1.231.151-4.712.48-6.3-5.877-13.418-8.2-2.364-.771-6.918-1.613-9.318,0a16.739,16.739,0,0,1-5.591,2.609c-2.921.8-5.626,2.991-7.454,4.473-3.438,2.786-5.157,4.179-5.964,6.709a7.38,7.38,0,0,0,0,5.218c.458,1.031,1.519,2.564,5.591,4.1a26.039,26.039,0,0,0,17.891.745c1.916-.644.453-.414,7.827-4.1,5.8-2.9,9.194-4.287,9.691-7.082.175-.983,0-2.181.745-2.609a1.693,1.693,0,0,1,1.418.058q.732,7.826,1.837,15.624H70.531a22.9,22.9,0,0,0-20.636,12.8L25.064,470.619a23.148,23.148,0,0,0-2.4,10.228V609.659A23.059,23.059,0,0,0,45.7,632.691h57.958a23.059,23.059,0,0,0,23.033-23.033V491.048a22.939,22.939,0,0,0-1.592-8.415l-23.665-60.295a22.874,22.874,0,0,0-16.518-14.087q3.575-4.239,7.177-8.463a48.364,48.364,0,0,0,9.945,3.5c9.479,2.228,13.166.242,14.1-.3.891-.521,4.753-2.64,5.407-6.174a5.871,5.871,0,0,0,.092-1.148c9.709,7.893,14.774,11.783,18.474,10.486,3.181-1.115,5-4.77,6.037-8.049,1.086.151,2.238.305,3.466.469,13.3,1.776,20,2.6,22.562-.551,3.547-4.359.18-12.764-.748-15.08a27.83,27.83,0,0,0-7.048-9.962c-2.5-2.42-9.637-9.318-20.868-10.238a23.372,23.372,0,0,0-6.869.421,29.73,29.73,0,0,0-2.505-2.073,23.418,23.418,0,0,0-5.259-2.929q4.216-4.62,8.462-9.207c.448.2.874.4,1.265.583,9.278,4.309,11.316,8.528,20.238,10.75,4.048,1.008,8.631,2.149,9.765.433,2.016-3.047-6.539-15.585-19.759-24.069q1.337-1.416,2.678-2.826c1.209.507,2.274,1,3.182,1.423,9.278,4.309,11.316,8.528,20.238,10.75,4.047,1.008,8.63,2.149,9.765.433,1.8-2.719-4.819-13-15.655-21.207a35.252,35.252,0,0,1,12.035-1.859c7.753.2,13.808,3.016,17.4,4.686,9.278,4.309,11.316,8.528,20.238,10.75,4.048,1.008,8.63,2.149,9.765.433,3-4.53-17.354-30.053-41.7-32.012a33.132,33.132,0,0,0-5.124-.026c-.212-.352-.442-.712-.685-1.079,8.236.265,24.321-2.09,38.012,7.522,3.948,2.772,11.617,9.291,24.451,14.648,4.1,1.712,6.165,2.554,6.733,1.851,2.034-2.516-14.876-23.227-38.665-33.43-9.432-4.045-15.26-4.428-19.4-3.815.639-.728,1.261-1.48,1.861-2.235q13.895-13.628,28.108-26.944c-.458,1.417-.443,2.171.057,2.721ZM103.269,379.509c-10.463-3.387-23.132-1.567-26.436,2.286q-.7-5.123-1.2-10.263c4.767,2.662,9.74,3.375,19.175,4.635,4.018.537,7.425.983,10.307,1.263a23.362,23.362,0,0,0,1.279,2.9c.055.1.115.2.172.308l-.084.1c-1.074-.466-2.151-.877-3.209-1.22Zm-27.8-45.888a6.284,6.284,0,0,0,.077-3.131q.488-5.906,1.213-11.777a4.8,4.8,0,0,0,.437,1.848c2.909,7.305,10.768,14.317,21.481,17.955a35.285,35.285,0,0,0,5.189,1.368,17.383,17.383,0,0,0-1.477,3.256c-3.652-2.934-8.354-5.068-13.688-2.8-1.452.616-2.313,2.869-3.062,5.564-4.928.085-9.046,1.113-11.007,2.853.01-.726.007-1.45.026-2.176q.166-6.213.6-12.386a5.508,5.508,0,0,0,.208-.57Zm-.823,21.3c.212.435.445.868.687,1.3-.219-.161-.444-.335-.674-.523C74.654,355.441,74.653,355.182,74.648,354.924Zm8.414,53.01q-.861-.113-1.737-.163c-1.349-6.7-2.595-13.389-3.637-20.094A33.835,33.835,0,0,0,90.6,399.032q-3.794,4.44-7.542,8.9Zm44.16-50.366c-3.568-1.146-7.755-1.694-13.55-2.367a33.61,33.61,0,0,0-4.1-4.626c-.606-.586-1.537-1.748-2.742-3.108,3.124-1,7.785-2.789,14.372-2.616a39.459,39.459,0,0,1,14.566,3.41Q131.477,352.9,127.222,357.567Zm20.222-21.794a53.237,53.237,0,0,0-11.312-5.208c.389,0,.77-.015,1.173,0a38.017,38.017,0,0,1,12.6,2.616Q148.674,334.474,147.443,335.773Z" transform="translate(-1.47 -24.776)" fill="#e6e6e6"/></g></g></svg>